<svg width="203" height="69" xmlns="http://www.w3.org/2000/svg" xmlns:xlink="http://www.w3.org/1999/xlink" xml:space="preserve" overflow="hidden"><defs><clipPath id="clip0"><rect x="437" y="211" width="203" height="69"/></clipPath></defs><g clip-path="url(#clip0)" transform="translate(-437 -211)"><path d="M60.2681 0 17.5702 0C7.88313 0 0 7.88313 0 17.5702 0 27.2572 7.88313 35.1403 17.5702 35.1403L21.1338 35.1403C21.1614 35.1403 21.1945 35.1403 21.2221 35.1403L32.8013 35.1403C34.186 35.0907 35.2617 33.9322 35.212 32.5475 35.1624 31.1629 34.0039 30.0817 32.6193 30.1368L17.5702 30.1368C10.6414 30.1368 5.00901 24.4989 5.00901 17.5757 5.00901 10.6524 10.6414 5.00901 17.5702 5.00901L60.2681 5.00901C67.1969 5.00901 72.8293 10.6414 72.8293 17.5702 72.8293 19.7933 72.239 21.9779 71.1302 23.8866L49.704 57.5871C49.704 57.5871 49.6874 57.6202 49.6764 57.6312 47.376 61.4266 43.3544 63.6939 38.9247 63.6939 34.4949 63.6939 30.4733 61.4266 28.1509 57.5926L23.5004 50.2005 32.851 50.2005C42.538 50.2005 50.4211 42.3173 50.4211 32.6303 50.4211 22.9433 42.538 15.0601 32.851 15.0601L18.6735 15.0601C17.2888 15.0601 16.169 16.18 16.169 17.5646 16.169 18.9493 17.2888 20.0691 18.6735 20.0691L32.851 20.0691C39.7797 20.0691 45.4121 25.7015 45.4121 32.6303 45.4121 39.5591 39.7797 45.1914 32.851 45.1914L18.9658 45.1914C18.0556 45.1914 17.2171 45.6879 16.7758 46.4823 16.3345 47.2822 16.362 48.2531 16.8475 49.0254L23.8866 60.224C27.1027 65.5309 32.7241 68.7029 38.9247 68.7029 45.1252 68.7029 50.73 65.5419 53.9462 60.2516L75.3834 26.5345C75.3834 26.5345 75.4165 26.4849 75.4276 26.4573 77.0053 23.7707 77.8383 20.698 77.8383 17.5646 77.8383 7.87761 69.9552-0.00551653 60.2681-0.00551653Z" fill="#1618FF" transform="matrix(1.00479 0 0 1 437 211.146)"/><path d="M85.6442 32.0511 86.9075 29.8224C87.1226 29.4748 87.6301 29.5245 87.8232 29.6624 87.928 29.7176 89.8643 31.1408 91.6406 31.1408 92.7164 31.1408 93.4942 30.4678 93.4942 29.53 93.4942 28.3991 92.5564 27.5441 90.7249 26.8159 88.4135 25.9001 85.5118 24.1017 85.5118 20.8801 85.5118 18.2211 87.5805 15.5346 91.7179 15.5346 94.5148 15.5346 96.6607 16.9578 97.4661 17.5481 97.7861 17.7357 97.7364 18.2211 97.6261 18.4087L96.258 20.4774C96.0704 20.7753 95.585 21.0125 95.3422 20.8249 95.0995 20.6925 93.1411 19.2141 91.5027 19.2141 90.5373 19.2141 89.8092 19.8595 89.8092 20.5822 89.8092 21.5752 90.6146 22.3309 92.7384 23.186 94.8347 24.019 98.1667 25.6574 98.1667 29.3093 98.1667 32.0786 95.778 34.87 91.8282 34.87 88.3363 34.87 86.3999 33.4192 85.7821 32.8013 85.5118 32.531 85.4345 32.4262 85.6497 32.0511Z" fill="#171C24" transform="matrix(1.00479 0 0 1 437 211.146)"/><path d="M101.173 16.3069C101.173 16.0366 101.416 15.7938 101.686 15.7938L104.991 15.7938C105.289 15.7938 105.504 16.0366 105.504 16.3069L105.504 27.1855C105.504 29.0666 106.899 30.5726 108.808 30.5726 110.717 30.5726 112.168 29.0666 112.168 27.1855L112.168 16.3069C112.168 16.0366 112.383 15.7938 112.681 15.7938L115.985 15.7938C116.255 15.7938 116.498 16.0366 116.498 16.3069L116.498 27.4006C116.498 31.4829 113.061 34.87 108.814 34.87 104.566 34.87 101.184 31.4829 101.184 27.4006L101.184 16.3069Z" fill="#171C24" transform="matrix(1.00479 0 0 1 437 211.146)"/><path d="M129.142 15.5235C131.829 15.5235 133.815 16.3565 135.646 18.0225 135.889 18.2377 135.889 18.5576 135.674 18.7728L133.577 20.9463C133.39 21.1338 133.092 21.1338 132.904 20.9463 131.911 20.0581 130.593 19.5782 129.28 19.5782 126.246 19.5782 124.012 22.1047 124.012 25.1113 124.012 28.1178 126.268 30.5671 129.302 30.5671 130.565 30.5671 131.933 30.1092 132.904 29.2762 133.092 29.1163 133.439 29.1163 133.605 29.3038L135.701 31.5325C135.889 31.7201 135.861 32.0676 135.674 32.2552 133.848 34.026 131.536 34.859 129.148 34.859 123.774 34.859 119.449 30.5892 119.449 25.2161 119.449 19.843 123.774 15.518 129.148 15.518Z" fill="#171C24" transform="matrix(1.00479 0 0 1 437 211.146)"/><path d="M138.895 16.3069C138.895 16.0366 139.11 15.7938 139.408 15.7938L150.53 15.7938C150.828 15.7938 151.043 16.0366 151.043 16.3069L151.043 19.2362C151.043 19.5065 150.828 19.7492 150.53 19.7492L143.088 19.7492 143.088 23.0812 149.211 23.0812C149.482 23.0812 149.724 23.3239 149.724 23.5942L149.724 26.5235C149.724 26.8214 149.482 27.0365 149.211 27.0365L143.088 27.0365 143.088 30.6609 150.53 30.6609C150.828 30.6609 151.043 30.9036 151.043 31.1739L151.043 34.1032C151.043 34.3735 150.828 34.6162 150.53 34.6162L139.408 34.6162C139.116 34.6162 138.895 34.3735 138.895 34.1032L138.895 16.3069Z" fill="#171C24" transform="matrix(1.00479 0 0 1 437 211.146)"/><path d="M153.564 32.0511 154.827 29.8224C155.042 29.4748 155.55 29.5245 155.743 29.6624 155.848 29.7176 157.784 31.1408 159.56 31.1408 160.636 31.1408 161.414 30.4678 161.414 29.53 161.414 28.3991 160.476 27.5441 158.644 26.8159 156.333 25.9001 153.431 24.1017 153.431 20.8801 153.431 18.2211 155.5 15.5346 159.637 15.5346 162.434 15.5346 164.58 16.9578 165.386 17.5481 165.706 17.7357 165.656 18.2211 165.546 18.4087L164.178 20.4774C163.99 20.7753 163.505 21.0125 163.262 20.8249 163.019 20.6925 161.061 19.2141 159.422 19.2141 158.457 19.2141 157.729 19.8595 157.729 20.5822 157.729 21.5752 158.534 22.3309 160.658 23.186 162.754 24.019 166.086 25.6574 166.086 29.3093 166.086 32.0786 163.698 34.87 159.748 34.87 156.256 34.87 154.319 33.4192 153.702 32.8013 153.431 32.531 153.354 32.4262 153.569 32.0511Z" fill="#171C24" transform="matrix(1.00479 0 0 1 437 211.146)"/><path d="M168.287 32.0511 169.551 29.8224C169.766 29.4748 170.273 29.5245 170.466 29.6624 170.571 29.7176 172.508 31.1408 174.284 31.1408 175.36 31.1408 176.137 30.4678 176.137 29.53 176.137 28.3991 175.2 27.5441 173.368 26.8159 171.057 25.9001 168.155 24.1017 168.155 20.8801 168.155 18.2211 170.224 15.5346 174.361 15.5346 177.152 15.5346 179.304 16.9578 180.109 17.5481 180.429 17.7357 180.38 18.2211 180.269 18.4087L178.901 20.4774C178.714 20.7753 178.228 21.0125 177.985 20.8249 177.743 20.6925 175.784 19.2141 174.146 19.2141 173.181 19.2141 172.452 19.8595 172.452 20.5822 172.452 21.5752 173.258 22.3309 175.382 23.186 177.478 24.019 180.81 25.6574 180.81 29.3093 180.81 32.0786 178.421 34.87 174.471 34.87 170.979 34.87 169.043 33.4192 168.425 32.8013 168.155 32.531 168.078 32.4262 168.293 32.0511Z" fill="#171C24" transform="matrix(1.00479 0 0 1 437 211.146)"/><path d="M192.362 15.5235C197.735 15.5235 202.032 19.8485 202.032 25.2216 202.032 30.5947 197.735 34.8645 192.362 34.8645 186.988 34.8645 182.719 30.5947 182.719 25.2216 182.719 19.8485 186.988 15.5235 192.362 15.5235ZM192.362 30.5671C195.318 30.5671 197.735 28.1509 197.735 25.2216 197.735 22.2923 195.318 19.8209 192.362 19.8209 189.405 19.8209 187.016 22.2647 187.016 25.2216 187.016 28.1785 189.432 30.5671 192.362 30.5671Z" fill="#171C24" transform="matrix(1.00479 0 0 1 437 211.146)"/><path d="M74.6552 42.4387C74.6552 42.207 74.8373 42.0029 75.091 42.0029L84.1382 42.0029C84.3919 42.0029 84.574 42.207 84.574 42.4387L84.574 43.1062C84.574 43.3379 84.3919 43.542 84.1382 43.542L76.426 43.542 76.426 49.1413 83.0128 49.1413C83.2445 49.1413 83.4486 49.3454 83.4486 49.5771L83.4486 50.2446C83.4486 50.4983 83.2445 50.6804 83.0128 50.6804L76.426 50.6804 76.426 56.5334 84.1382 56.5334C84.3919 56.5334 84.574 56.7375 84.574 56.9692L84.574 57.6367C84.574 57.8684 84.3919 58.0725 84.1382 58.0725L75.091 58.0725C74.8373 58.0725 74.6552 57.8684 74.6552 57.6367L74.6552 42.4387Z" fill="#171C24" transform="matrix(1.00479 0 0 1 437 211.146)"/><path d="M90.0574 42.0967C90.1015 41.9146 90.2891 41.7767 90.4711 41.7767L90.8408 41.7767C91.0007 41.7767 91.1828 41.8926 91.2324 42.0305L95.778 54.6799 95.8939 54.6799 100.368 42.0305C100.412 41.8926 100.6 41.7767 100.759 41.7767L101.129 41.7767C101.311 41.7767 101.499 41.9146 101.543 42.0967L104.505 57.5264C104.577 57.8464 104.433 58.0781 104.091 58.0781L103.176 58.0781C102.994 58.0781 102.806 57.9181 102.762 57.7581L100.721 45.9362 100.627 45.9362 96.4014 58.056C96.3573 58.1939 96.1477 58.3098 96.0097 58.3098L95.596 58.3098C95.4581 58.3098 95.254 58.1939 95.2043 58.056L90.9345 45.9362 90.8408 45.9362 88.8438 57.7581C88.8217 57.9181 88.6121 58.0781 88.43 58.0781L87.5143 58.0781C87.1723 58.0781 87.0343 57.8464 87.1005 57.5264L90.0629 42.0967Z" fill="#171C24" transform="matrix(1.00479 0 0 1 437 211.146)"/><path d="M110.949 42.6042C110.811 42.3063 110.993 42.0084 111.34 42.0084L112.256 42.0084C112.46 42.0084 112.598 42.1463 112.648 42.2622L118.363 55.1157 118.457 55.1157 124.172 42.2622C124.216 42.1463 124.376 42.0084 124.563 42.0084L125.479 42.0084C125.821 42.0084 126.009 42.3063 125.871 42.6042L118.892 58.056C118.821 58.1939 118.688 58.3098 118.501 58.3098L118.269 58.3098C118.109 58.3098 117.949 58.1939 117.877 58.056L110.943 42.6042Z" fill="#171C24" transform="matrix(1.00479 0 0 1 437 211.146)"/><path d="M128.375 42.4387C128.375 42.207 128.557 42.0029 128.811 42.0029L137.858 42.0029C138.112 42.0029 138.294 42.207 138.294 42.4387L138.294 43.1062C138.294 43.3379 138.112 43.542 137.858 43.542L130.146 43.542 130.146 49.1413 136.733 49.1413C136.964 49.1413 137.169 49.3454 137.169 49.5771L137.169 50.2446C137.169 50.4983 136.964 50.6804 136.733 50.6804L130.146 50.6804 130.146 56.5334 137.858 56.5334C138.112 56.5334 138.294 56.7375 138.294 56.9692L138.294 57.6367C138.294 57.8684 138.112 58.0725 137.858 58.0725L128.811 58.0725C128.557 58.0725 128.375 57.8684 128.375 57.6367L128.375 42.4387Z" fill="#171C24" transform="matrix(1.00479 0 0 1 437 211.146)"/><path d="M141.968 42.1904C141.968 41.9588 142.172 41.7767 142.404 41.7767L142.978 41.7767 153.332 54.6799 153.376 54.6799 153.376 42.4442C153.376 42.2125 153.558 42.0084 153.812 42.0084L154.617 42.0084C154.849 42.0084 155.053 42.2125 155.053 42.4442L155.053 57.896C155.053 58.1277 154.849 58.3098 154.617 58.3098L154.204 58.3098 143.667 45.1583 143.645 45.1583 143.645 57.6478C143.645 57.8795 143.463 58.0836 143.209 58.0836L142.404 58.0836C142.172 58.0836 141.968 57.8795 141.968 57.6478L141.968 42.196Z" fill="#171C24" transform="matrix(1.00479 0 0 1 437 211.146)"/><path d="M159.737 42.4387C159.737 42.207 159.919 42.0029 160.15 42.0029L165.292 42.0029C169.722 42.0029 173.352 45.6052 173.352 50.0129 173.352 54.4206 169.722 58.0725 165.292 58.0725L160.15 58.0725C159.919 58.0725 159.737 57.8684 159.737 57.6367L159.737 42.4387ZM164.928 56.4893C168.69 56.4893 171.426 53.8027 171.426 50.0129 171.426 46.223 168.696 43.5641 164.928 43.5641L161.485 43.5641 161.485 56.4893 164.928 56.4893Z" fill="#171C24" transform="matrix(1.00479 0 0 1 437 211.146)"/><path d="M174.593 57.4768 181.571 42.025C181.643 41.887 181.753 41.7712 181.963 41.7712L182.195 41.7712C182.399 41.7712 182.515 41.887 182.586 42.025L189.52 57.4768C189.658 57.7747 189.476 58.0725 189.129 58.0725L188.213 58.0725C188.009 58.0725 187.871 57.9346 187.821 57.8188L186.122 54.0289 177.974 54.0289 176.297 57.8188C176.253 57.9346 176.115 58.0725 175.906 58.0725L174.99 58.0725C174.648 58.0725 174.46 57.7747 174.598 57.4768ZM185.499 52.6112C184.374 50.1067 183.27 47.5856 182.145 45.0811L181.963 45.0811 178.609 52.6112 185.493 52.6112Z" fill="#171C24" transform="matrix(1.00479 0 0 1 437 211.146)"/><path d="M190.982 55.6618C191.098 55.5239 191.214 55.3639 191.324 55.226 191.556 54.9281 191.804 54.7461 192.13 55.0219 192.29 55.1598 193.967 56.7651 196.008 56.7651 197.867 56.7651 199.086 55.5956 199.086 54.2386 199.086 52.6553 197.707 51.712 195.07 50.6087 192.544 49.5054 191.032 48.4738 191.032 45.8589 191.032 44.2978 192.273 41.7712 195.92 41.7712 198.17 41.7712 199.847 42.9407 199.847 42.9407 199.985 43.0069 200.261 43.2827 199.985 43.7185 199.892 43.8564 199.803 44.0164 199.71 44.1543 199.505 44.4743 199.274 44.5681 198.904 44.3584 198.744 44.2647 197.299 43.3048 195.898 43.3048 193.465 43.3048 192.731 44.866 192.731 45.8314 192.731 47.3705 193.901 48.2641 195.831 49.0696 198.932 50.3328 200.929 51.5024 200.929 54.1668 200.929 56.5555 198.656 58.2987 195.969 58.2987 193.283 58.2987 191.424 56.7155 191.126 56.4397 190.944 56.2797 190.712 56.0976 190.988 55.6618Z" fill="#171C24" transform="matrix(1.00479 0 0 1 437 211.146)"/></g></svg>