<svg width="155" height="318" xmlns="http://www.w3.org/2000/svg" xmlns:xlink="http://www.w3.org/1999/xlink" xml:space="preserve" overflow="hidden"><defs><clipPath id="clip0"><rect x="892" y="201" width="155" height="318"/></clipPath></defs><g clip-path="url(#clip0)" transform="translate(-892 -201)"><path d="M9.41811 262.075 9.41811 263.266 5.42758 263.266 5.42758 274.511 4.23672 274.511 4.23672 263.266 0.251913 263.266 0.251913 262.075 9.41811 262.075Z" fill="#181D24" transform="matrix(1.00192 0 0 1 892.175 201)"/><path d="M14.3991 267.4C13.9869 267.199 13.4773 267.114 13.1739 267.114 11.462 267.114 10.7578 269.135 10.7578 271.373L10.7578 274.516 9.54979 274.516 9.54979 266.089 10.7578 266.089 10.7578 268.001C11.17 266.558 11.9487 265.906 13.1739 265.906 13.7522 265.906 14.3819 266.089 14.548 266.232L14.4048 267.406Z" fill="#181D24" transform="matrix(1.00192 0 0 1 892.175 201)"/><path d="M24.218 274.511 23.01 274.511 23.01 273.068C22.3802 274.133 21.0634 274.694 19.8324 274.694 17.4335 274.694 15.5213 272.942 15.5213 270.274 15.5213 267.606 17.4335 265.906 19.8324 265.906 21.0576 265.906 22.3802 266.409 23.01 267.474L23.01 266.083 24.218 266.083 24.218 274.511ZM19.8324 273.48C21.5672 273.48 23.01 272.364 23.01 270.268 23.01 268.173 21.3496 267.108 19.8324 267.108 18.0805 267.108 16.7293 268.333 16.7293 270.268 16.7293 272.203 18.0805 273.48 19.8324 273.48Z" fill="#181D24" transform="matrix(1.00192 0 0 1 892.175 201)"/><path d="M28.3517 274.511 27.1436 274.511 27.1436 266.083 28.3517 266.083 28.3517 267.474C28.8727 266.375 30.1723 265.906 31.1513 265.906 33.2296 265.906 34.4205 267.297 34.3976 269.604L34.3976 274.516 33.1895 274.516 33.1895 269.604C33.1895 268.035 32.451 267.096 31.1513 267.096 29.8517 267.096 28.3517 267.852 28.3517 269.913L28.3517 274.516Z" fill="#181D24" transform="matrix(1.00192 0 0 1 892.175 201)"/><path d="M37.6037 272.095C37.7469 272.742 38.1648 273.555 39.5904 273.555 40.6725 273.555 41.3767 273.011 41.3767 272.221 41.3767 271.659 41.0504 271.138 40.1687 270.921L38.995 270.652C37.9644 270.417 36.6304 269.873 36.8652 267.909 37.0656 266.701 38.2392 265.906 39.6076 265.906 40.9759 265.906 42.0237 266.553 42.2584 268.087L41.0847 268.087C40.9416 267.44 40.329 267.056 39.6076 267.056 38.7946 267.056 38.1305 267.491 38.0389 268.087 37.8385 269.043 38.7087 269.352 39.2812 269.495L40.4377 269.764C42.0237 270.142 42.5676 271.064 42.5676 272.221 42.5676 273.68 41.2336 274.694 39.4816 274.694 38.0732 274.694 36.5961 273.755 36.5388 272.095L37.6037 272.095Z" fill="#181D24" transform="matrix(1.00192 0 0 1 892.175 201)"/><path d="M49.4093 262.654 48.5047 262.654C46.8787 262.654 46.7699 263.988 46.7699 265.11L46.7699 266.083 48.8425 266.083 48.8425 267.165 46.7699 267.165 46.7699 274.511 45.5619 274.511 45.5619 267.165 43.9187 267.165 43.9187 266.083 45.5619 266.083 45.5619 265.11C45.5619 263.089 46.2661 261.52 48.5047 261.52L49.4093 261.52 49.4093 262.659Z" fill="#181D24" transform="matrix(1.00192 0 0 1 892.175 201)"/><path d="M50.0562 270.268C50.0562 267.595 52.0601 265.9 54.459 265.9 56.8579 265.9 58.8617 267.595 58.8617 270.268 58.8617 272.942 56.8579 274.688 54.459 274.688 52.0601 274.688 50.0562 272.936 50.0562 270.268ZM57.6709 270.268C57.6709 268.322 56.2109 267.091 54.459 267.091 52.7071 267.091 51.2471 268.316 51.2471 270.268 51.2471 272.221 52.7071 273.497 54.459 273.497 56.2109 273.497 57.6709 272.215 57.6709 270.268Z" fill="#181D24" transform="matrix(1.00192 0 0 1 892.175 201)"/><path d="M66.0642 267.4C65.6519 267.199 65.1424 267.114 64.839 267.114 63.1271 267.114 62.4229 269.135 62.4229 271.373L62.4229 274.516 61.2148 274.516 61.2148 266.089 62.4229 266.089 62.4229 268.001C62.8351 266.558 63.6137 265.906 64.839 265.906 65.4172 265.906 66.047 266.089 66.213 266.232L66.0699 267.406Z" fill="#181D24" transform="matrix(1.00192 0 0 1 892.175 201)"/><path d="M75.2704 274.511 74.0624 274.511 74.0624 269.598C74.0624 268.03 73.3238 267.091 72.0242 267.091 70.7246 267.091 69.2245 267.846 69.2245 269.908L69.2245 274.511 68.0165 274.511 68.0165 266.083 69.2245 266.083 69.2245 267.474C69.7455 266.375 71.2456 265.906 72.0242 265.906 73.467 265.906 74.4632 266.575 74.9498 267.749 75.7285 266.163 77.2228 265.906 78.0701 265.906 80.1484 265.906 81.3393 267.297 81.3163 269.604L81.3163 274.516 80.1083 274.516 80.1083 269.604C80.1083 268.035 79.3698 267.096 78.0701 267.096 76.7705 267.096 75.2704 267.852 75.2704 269.913L75.2704 274.516Z" fill="#181D24" transform="matrix(1.00192 0 0 1 892.175 201)"/><path d="M92.2517 274.511 91.0436 274.511 91.0436 273.068C90.4138 274.133 89.0913 274.694 87.8661 274.694 85.4672 274.694 83.5549 272.942 83.5549 270.274 83.5549 267.606 85.4672 265.906 87.8661 265.906 89.0913 265.906 90.4138 266.409 91.0436 267.474L91.0436 266.083 92.2517 266.083 92.2517 274.511ZM87.8661 273.48C89.6008 273.48 91.0436 272.364 91.0436 270.268 91.0436 268.173 89.3833 267.108 87.8661 267.108 86.1141 267.108 84.763 268.333 84.763 270.268 84.763 272.203 86.1141 273.48 87.8661 273.48Z" fill="#181D24" transform="matrix(1.00192 0 0 1 892.175 201)"/><path d="M99.8663 275.742C100.279 276.698 99.8663 277.688 98.9273 278.072 98.0056 278.45 97.0666 278.037 96.6544 277.116 96.5456 276.847 96.4941 276.589 96.4941 276.337L97.4502 276.411C97.5018 276.537 97.4674 276.629 97.5247 276.755 97.725 277.167 98.1716 277.385 98.5896 277.224 99.0247 277.024 99.2365 276.537 99.0419 276.125L98.4121 274.665C96.2994 274.431 94.6048 272.736 94.6048 270.28 94.6048 267.606 96.6086 265.911 99.0075 265.911 100.181 265.911 101.246 266.323 102.042 267.051L101.195 267.898C100.616 267.394 99.8606 267.102 99.0132 267.102 97.2613 267.102 95.8013 268.327 95.8013 270.28 95.8013 272.232 97.2613 273.509 99.0132 273.509 99.8606 273.509 100.599 273.24 101.195 272.696L102.059 273.543C101.338 274.213 100.45 274.591 99.4255 274.682L99.8777 275.747Z" fill="#181D24" transform="matrix(1.00192 0 0 1 892.175 201)"/><path d="M112.136 274.511 110.928 274.511 110.928 273.068C110.298 274.133 108.981 274.694 107.75 274.694 105.351 274.694 103.439 272.942 103.439 270.274 103.439 267.606 105.351 265.906 107.75 265.906 108.975 265.906 110.298 266.409 110.928 267.474L110.928 266.083 112.136 266.083 112.136 274.511ZM107.75 273.48C109.485 273.48 110.928 272.364 110.928 270.268 110.928 268.173 109.267 267.108 107.75 267.108 105.998 267.108 104.647 268.333 104.647 270.268 104.647 272.203 105.998 273.48 107.75 273.48ZM106.611 264.022 105.689 264.022C105.781 262.545 106.536 262.07 107.223 262.07 108.036 262.07 108.323 262.825 108.866 262.825 109.101 262.825 109.462 262.665 109.479 262.07L110.401 262.07C110.309 263.547 109.519 263.965 108.866 263.965 108.053 263.965 107.767 263.209 107.223 263.209 106.989 263.209 106.628 263.426 106.611 264.022Z" fill="#181D24" transform="matrix(1.00192 0 0 1 892.175 201)"/><path d="M114.477 270.268C114.477 267.595 116.481 265.9 118.88 265.9 121.279 265.9 123.283 267.595 123.283 270.268 123.283 272.942 121.279 274.688 118.88 274.688 116.481 274.688 114.477 272.936 114.477 270.268ZM122.092 270.268C122.092 268.322 120.632 267.091 118.88 267.091 117.128 267.091 115.668 268.316 115.668 270.268 115.668 272.221 117.128 273.497 118.88 273.497 120.632 273.497 122.092 272.215 122.092 270.268Z" fill="#181D24" transform="matrix(1.00192 0 0 1 892.175 201)"/><path d="M124.582 276.64C125.235 275.719 125.773 274.511 125.722 272.833L127.113 272.833C126.97 274.929 126.14 276.297 125.418 276.892L124.588 276.64Z" fill="#181D24" transform="matrix(1.00192 0 0 1 892.175 201)"/><path d="M8.62802 283.728 8.62802 284.919 2.72524 284.919 2.72524 289.465 7.88373 289.465 7.88373 290.656 2.72524 290.656 2.72524 294.967 8.82268 294.967 8.82268 296.158 1.53438 296.158 1.53438 283.723 8.62802 283.723Z" fill="#181D24" transform="matrix(1.00192 0 0 1 892.175 201)"/><path d="M11.1128 287.736 13.9812 294.755 16.8324 287.736 18.1148 287.736 14.6109 296.164 13.3285 296.164 9.84751 287.736 11.1128 287.736Z" fill="#181D24" transform="matrix(1.00192 0 0 1 892.175 201)"/><path d="M19.2026 291.927C19.2026 289.253 21.2065 287.559 23.6054 287.559 26.0043 287.559 28.0081 289.253 28.0081 291.927 28.0081 294.601 26.0043 296.347 23.6054 296.347 21.2065 296.347 19.2026 294.595 19.2026 291.927ZM26.8173 291.927C26.8173 289.98 25.3573 288.749 23.6054 288.749 21.8534 288.749 20.3935 289.975 20.3935 291.927 20.3935 293.879 21.8534 295.156 23.6054 295.156 25.3573 295.156 26.8173 293.874 26.8173 291.927Z" fill="#181D24" transform="matrix(1.00192 0 0 1 892.175 201)"/><path d="M31.5406 296.164 30.3498 296.164 30.3498 283.167 31.5406 283.167 31.5406 296.164Z" fill="#181D24" transform="matrix(1.00192 0 0 1 892.175 201)"/><path d="M40.4034 287.736 41.6114 287.736 41.6114 296.164 40.4034 296.164 40.4034 294.772C39.8824 295.872 38.5828 296.341 37.6037 296.341 35.5254 296.341 34.3346 294.95 34.3575 292.643L34.3575 287.736 35.5655 287.736 35.5655 292.643C35.5655 294.211 36.3041 295.15 37.6037 295.15 38.9034 295.15 40.4034 294.395 40.4034 292.333L40.4034 287.73Z" fill="#181D24" transform="matrix(1.00192 0 0 1 892.175 201)"/><path d="M49.2261 297.395C49.6383 298.351 49.2261 299.341 48.2871 299.725 47.3654 300.103 46.4264 299.691 46.0142 298.769 45.9054 298.5 45.8539 298.242 45.8539 297.99L46.81 298.065C46.8615 298.19 46.8272 298.282 46.8844 298.408 47.0848 298.82 47.5314 299.038 47.9493 298.878 48.3845 298.677 48.5963 298.19 48.4016 297.778L47.7719 296.318C45.6592 296.084 43.9645 294.389 43.9645 291.933 43.9645 289.259 45.9684 287.564 48.3673 287.564 49.541 287.564 50.6059 287.977 51.4017 288.704L50.5543 289.551C49.9761 289.047 49.2204 288.755 48.373 288.755 46.6211 288.755 45.1611 289.98 45.1611 291.933 45.1611 293.885 46.6211 295.162 48.373 295.162 49.2204 295.162 49.9589 294.893 50.5543 294.349L51.4189 295.196C50.6975 295.866 49.8101 296.244 48.7852 296.335L49.2375 297.4Z" fill="#181D24" transform="matrix(1.00192 0 0 1 892.175 201)"/><path d="M61.5011 296.164 60.2931 296.164 60.2931 294.721C59.6633 295.786 58.3465 296.347 57.1155 296.347 54.7166 296.347 52.8044 294.595 52.8044 291.927 52.8044 289.259 54.7166 287.559 57.1155 287.559 58.3407 287.559 59.6633 288.062 60.2931 289.127L60.2931 287.736 61.5011 287.736 61.5011 296.164ZM57.1155 295.133C58.8503 295.133 60.2931 294.017 60.2931 291.921 60.2931 289.826 58.6327 288.761 57.1155 288.761 55.3636 288.761 54.0124 289.986 54.0124 291.921 54.0124 293.856 55.3636 295.133 57.1155 295.133ZM55.9762 285.675 55.0544 285.675C55.146 284.198 55.9018 283.723 56.5888 283.723 57.4018 283.723 57.6881 284.478 58.232 284.478 58.4667 284.478 58.8274 284.318 58.8446 283.723L59.7663 283.723C59.6747 285.2 58.8846 285.618 58.232 285.618 57.419 285.618 57.1327 284.862 56.5888 284.862 56.3541 284.862 55.9934 285.08 55.9762 285.675Z" fill="#181D24" transform="matrix(1.00192 0 0 1 892.175 201)"/><path d="M63.8428 291.927C63.8428 289.253 65.8466 287.559 68.2455 287.559 70.6444 287.559 72.6483 289.253 72.6483 291.927 72.6483 294.601 70.6444 296.347 68.2455 296.347 65.8466 296.347 63.8428 294.595 63.8428 291.927ZM71.4574 291.927C71.4574 289.98 69.9974 288.749 68.2455 288.749 66.4936 288.749 65.0336 289.975 65.0336 291.927 65.0336 293.879 66.4936 295.156 68.2455 295.156 69.9974 295.156 71.4574 293.874 71.4574 291.927Z" fill="#181D24" transform="matrix(1.00192 0 0 1 892.175 201)"/><path d="M0.612606 313.58C0.612606 310.906 2.47333 309.212 4.87223 309.212 7.27112 309.212 9.00589 310.906 9.00589 313.58 9.00589 313.78 9.00589 313.975 8.98871 314.141L1.83782 314.141C2.0382 315.784 3.31494 316.815 4.87223 316.815 6.02873 316.815 6.98486 316.271 7.50586 315.355 7.86655 315.447 8.33603 315.538 8.7139 315.624 8.00969 317.141 6.58409 318.006 4.87223 318.006 2.47333 318.006 0.612606 316.254 0.612606 313.586ZM7.77495 313.019C7.54021 311.41 6.44096 310.402 4.8665 310.402 3.29204 310.402 2.06683 311.416 1.83209 313.019L7.78067 313.019Z" fill="#181D24" transform="matrix(1.00192 0 0 1 892.175 201)"/><path d="M24.5787 317.823 23.1187 317.823 19.6893 312.967 17.5938 312.967 17.5938 317.823 16.3858 317.823 16.3858 305.387 21.0061 305.387C23.531 305.387 24.4527 307.265 24.4527 309.194 24.4527 311.124 23.5481 312.91 21.1492 312.967L24.5787 317.823ZM17.5938 306.578 17.5938 311.777 20.9145 311.777C22.6664 311.777 23.2619 310.511 23.2619 309.194 23.2619 307.878 22.6664 306.578 21.0061 306.578L17.5938 306.578Z" fill="#181D24" transform="matrix(1.00192 0 0 1 892.175 201)"/><path d="M26.0558 313.58C26.0558 310.906 27.9165 309.212 30.3154 309.212 32.7143 309.212 34.4491 310.906 34.4491 313.58 34.4491 313.78 34.4491 313.975 34.4319 314.141L27.2868 314.141C27.4871 315.784 28.7639 316.815 30.3212 316.815 31.4777 316.815 32.4338 316.271 32.9548 315.355 33.3155 315.447 33.785 315.538 34.1628 315.624 33.4586 317.141 32.033 318.006 30.3212 318.006 27.9223 318.006 26.0615 316.254 26.0615 313.586ZM33.2182 313.019C32.9834 311.41 31.8842 310.402 30.3097 310.402 28.7352 310.402 27.51 311.416 27.2753 313.019L33.2124 313.019Z" fill="#181D24" transform="matrix(1.00192 0 0 1 892.175 201)"/><path d="M37.0827 315.401C37.2259 316.048 37.6438 316.861 39.0694 316.861 40.1515 316.861 40.8557 316.317 40.8557 315.527 40.8557 314.966 40.5294 314.445 39.6477 314.227L38.474 313.958C37.4434 313.723 36.1094 313.179 36.3442 311.216 36.5446 310.007 37.7182 309.212 39.0866 309.212 40.4549 309.212 41.5027 309.859 41.7374 311.393L40.5637 311.393C40.4206 310.746 39.808 310.362 39.0866 310.362 38.2736 310.362 37.6095 310.798 37.5178 311.393 37.3175 312.349 38.1877 312.658 38.7602 312.801L39.9167 313.071C41.5027 313.448 42.0466 314.37 42.0466 315.527 42.0466 316.987 40.7126 318 38.9606 318 37.5522 318 36.0751 317.061 36.0178 315.401L37.0827 315.401Z" fill="#181D24" transform="matrix(1.00192 0 0 1 892.175 201)"/><path d="M50.2738 309.395 51.4818 309.395 51.4818 317.823 50.2738 317.823 50.2738 316.431C49.7528 317.531 48.4532 318 47.4741 318 45.3959 318 44.205 316.609 44.2279 314.301L44.2279 309.395 45.4359 309.395 45.4359 314.301C45.4359 315.87 46.1745 316.809 47.4741 316.809 48.7738 316.809 50.2738 316.053 50.2738 313.992L50.2738 309.389Z" fill="#181D24" transform="matrix(1.00192 0 0 1 892.175 201)"/><path d="M55.5983 317.823 54.4075 317.823 54.4075 304.826 55.5983 304.826 55.5983 317.823Z" fill="#181D24" transform="matrix(1.00192 0 0 1 892.175 201)"/><path d="M59.0793 317.823 59.0793 310.477 57.5621 310.477 57.5621 309.395 59.0793 309.395 59.0793 306.235 60.2873 306.235 60.2873 309.395 62.0736 309.395 62.0736 310.477 60.2873 310.477 60.2873 317.823 59.0793 317.823Z" fill="#181D24" transform="matrix(1.00192 0 0 1 892.175 201)"/><path d="M72.0356 317.823 70.8276 317.823 70.8276 316.38C70.1978 317.445 68.881 318.006 67.6501 318.006 65.2512 318.006 63.3389 316.254 63.3389 313.586 63.3389 310.918 65.2512 309.217 67.6501 309.217 68.8753 309.217 70.1978 309.721 70.8276 310.786L70.8276 309.395 72.0356 309.395 72.0356 317.823ZM67.6501 316.792C69.3848 316.792 70.8276 315.676 70.8276 313.58 70.8276 311.485 69.1673 310.42 67.6501 310.42 65.8981 310.42 64.547 311.645 64.547 313.58 64.547 315.515 65.8981 316.792 67.6501 316.792Z" fill="#181D24" transform="matrix(1.00192 0 0 1 892.175 201)"/><path d="M83.0797 317.823 81.8717 317.823 81.8717 316.38C81.2419 317.445 79.9251 318.006 78.6942 318.006 76.2953 318.006 74.383 316.254 74.383 313.586 74.383 310.918 76.2953 309.217 78.6942 309.217 79.9194 309.217 81.2419 309.721 81.8717 310.786L81.8717 304.832 83.0797 304.832 83.0797 317.828ZM78.6942 316.792C80.4289 316.792 81.8717 315.676 81.8717 313.58 81.8717 311.485 80.2114 310.42 78.6942 310.42 76.9422 310.42 75.591 311.645 75.591 313.58 75.591 315.515 76.9422 316.792 78.6942 316.792Z" fill="#181D24" transform="matrix(1.00192 0 0 1 892.175 201)"/><path d="M85.4271 313.58C85.4271 310.906 87.431 309.212 89.8299 309.212 92.2288 309.212 94.2326 310.906 94.2326 313.58 94.2326 316.254 92.2288 318 89.8299 318 87.431 318 85.4271 316.248 85.4271 313.58ZM93.0417 313.58C93.0417 311.633 91.5818 310.402 89.8299 310.402 88.0779 310.402 86.618 311.628 86.618 313.58 86.618 315.532 88.0779 316.809 89.8299 316.809 91.5818 316.809 93.0417 315.527 93.0417 313.58Z" fill="#181D24" transform="matrix(1.00192 0 0 1 892.175 201)"/><path d="M96.975 315.401C97.1182 316.048 97.5361 316.861 98.9617 316.861 100.044 316.861 100.748 316.317 100.748 315.527 100.748 314.966 100.422 314.445 99.54 314.227L98.3663 313.958C97.3357 313.723 96.0017 313.179 96.2365 311.216 96.4369 310.007 97.6105 309.212 98.9789 309.212 100.347 309.212 101.395 309.859 101.63 311.393L100.456 311.393C100.313 310.746 99.7003 310.362 98.9789 310.362 98.1659 310.362 97.5018 310.798 97.4101 311.393 97.2098 312.349 98.08 312.658 98.6525 312.801L99.809 313.071C101.395 313.448 101.939 314.37 101.939 315.527 101.939 316.987 100.605 318 98.8529 318 97.4445 318 95.9674 317.061 95.9101 315.401L96.975 315.401Z" fill="#181D24" transform="matrix(1.00192 0 0 1 892.175 201)"/><path d="M0 231.531 36.6419 231.531 36.6419 232.676 0 232.676Z" fill="#1618FF" transform="matrix(1.00192 0 0 1 892.175 201)"/><path d="M0.429397 168.106 2.10118 165.158C2.38745 164.694 3.05731 164.768 3.30922 164.946 3.45235 165.014 6.01156 166.898 8.3532 166.898 9.77308 166.898 10.8036 166.011 10.8036 164.768 10.8036 163.274 9.56124 162.14 7.14517 161.178 4.08786 159.97 0.251913 157.589 0.251913 153.329 0.251913 149.814 2.9886 146.258 8.45626 146.258 12.1491 146.258 14.9945 148.142 16.0594 148.921 16.4831 149.173 16.4144 149.808 16.2713 150.06L14.4564 152.797C14.2102 153.186 13.5689 153.507 13.2483 153.26 12.9277 153.083 10.3342 151.131 8.16999 151.131 6.89325 151.131 5.9314 151.984 5.9314 152.946 5.9314 154.257 6.99631 155.253 9.8017 156.392 12.5727 157.491 16.9812 159.661 16.9812 164.493 16.9812 168.152 13.8209 171.85 8.59367 171.85 3.97335 171.85 1.41415 169.932 0.601156 169.114 0.246188 168.759 0.137407 168.616 0.423672 168.118Z" fill="#181D24" transform="matrix(1.00192 0 0 1 892.175 201)"/><path d="M20.966 147.283C20.966 146.928 21.2866 146.608 21.6416 146.608L26.01 146.608C26.3993 146.608 26.6856 146.928 26.6856 147.283L26.6856 161.671C26.6856 164.156 28.5349 166.148 31.054 166.148 33.5731 166.148 35.4968 164.161 35.4968 161.671L35.4968 147.283C35.4968 146.928 35.7831 146.608 36.1724 146.608L40.5408 146.608C40.8958 146.608 41.2164 146.928 41.2164 147.283L41.2164 161.957C41.2164 167.356 36.6705 171.833 31.054 171.833 25.4375 171.833 20.966 167.356 20.966 161.957L20.966 147.283Z" fill="#181D24" transform="matrix(1.00192 0 0 1 892.175 201)"/><path d="M57.9571 146.253C61.5126 146.253 64.1405 147.352 66.5565 149.556 66.8772 149.842 66.8772 150.266 66.5909 150.552L63.8199 153.432C63.5737 153.684 63.1786 153.684 62.9324 153.432 61.6156 152.258 59.8751 151.623 58.1346 151.623 54.1212 151.623 51.1727 154.961 51.1727 158.94 51.1727 162.919 54.1556 166.154 58.1747 166.154 59.8465 166.154 61.6557 165.553 62.9382 164.448 63.1843 164.236 63.6481 164.236 63.8599 164.482L66.631 167.43C66.8772 167.677 66.8428 168.14 66.5966 168.392 64.1805 170.74 61.1232 171.839 57.9629 171.839 50.8578 171.839 45.1382 166.188 45.1382 159.083 45.1382 151.978 50.8578 146.258 57.9629 146.258Z" fill="#181D24" transform="matrix(1.00192 0 0 1 892.175 201)"/><path d="M70.8562 147.283C70.8562 146.928 71.1425 146.608 71.5318 146.608L86.2401 146.608C86.6294 146.608 86.9157 146.928 86.9157 147.283L86.9157 151.153C86.9157 151.508 86.6294 151.829 86.2401 151.829L76.3983 151.829 76.3983 156.232 84.4996 156.232C84.8546 156.232 85.1752 156.552 85.1752 156.907L85.1752 160.778C85.1752 161.167 84.8546 161.453 84.4996 161.453L76.3983 161.453 76.3983 166.251 86.2401 166.251C86.6294 166.251 86.9157 166.572 86.9157 166.927L86.9157 170.803C86.9157 171.158 86.6294 171.478 86.2401 171.478L71.5318 171.478C71.1425 171.478 70.8562 171.158 70.8562 170.803L70.8562 147.283Z" fill="#181D24" transform="matrix(1.00192 0 0 1 892.175 201)"/><path d="M90.2535 168.106 91.9253 165.158C92.2116 164.694 92.8814 164.768 93.1334 164.946 93.2765 165.014 95.8357 166.898 98.1773 166.898 99.5972 166.898 100.628 166.011 100.628 164.768 100.628 163.274 99.3854 162.14 96.9693 161.178 93.912 159.97 90.076 157.589 90.076 153.329 90.076 149.814 92.8127 146.258 98.2804 146.258 101.973 146.258 104.819 148.142 105.884 148.921 106.307 149.173 106.239 149.808 106.095 150.06L104.281 152.797C104.034 153.186 103.393 153.507 103.072 153.26 102.752 153.083 100.158 151.131 97.9941 151.131 96.7174 151.131 95.7555 151.984 95.7555 152.946 95.7555 154.257 96.8204 155.253 99.6258 156.392 102.397 157.491 106.805 159.661 106.805 164.493 106.805 168.152 103.645 171.85 98.4178 171.85 93.7975 171.85 91.2383 169.932 90.4253 169.114 90.0703 168.759 89.9615 168.616 90.2478 168.118Z" fill="#181D24" transform="matrix(1.00192 0 0 1 892.175 201)"/><path d="M109.725 168.106 111.397 165.158C111.683 164.694 112.359 164.768 112.605 164.946 112.748 165.014 115.307 166.898 117.649 166.898 119.069 166.898 120.099 166.011 120.099 164.768 120.099 163.274 118.857 162.14 116.441 161.178 113.384 159.97 109.548 157.589 109.548 153.329 109.548 149.814 112.284 146.258 117.752 146.258 121.445 146.258 124.29 148.142 125.355 148.921 125.785 149.173 125.71 149.808 125.567 150.06L123.752 152.797C123.506 153.186 122.865 153.507 122.544 153.26 122.224 153.083 119.63 151.131 117.466 151.131 116.189 151.131 115.227 151.984 115.227 152.946 115.227 154.257 116.292 155.253 119.098 156.392 121.869 157.491 126.277 159.661 126.277 164.493 126.277 168.152 123.117 171.85 117.89 171.85 113.269 171.85 110.71 169.932 109.897 169.114 109.542 168.759 109.433 168.616 109.72 168.118Z" fill="#181D24" transform="matrix(1.00192 0 0 1 892.175 201)"/><path d="M141.564 146.253C148.669 146.253 154.354 151.972 154.354 159.077 154.354 166.182 148.669 171.833 141.564 171.833 134.459 171.833 128.808 166.182 128.808 159.077 128.808 151.972 134.459 146.253 141.564 146.253ZM141.564 166.148C145.474 166.148 148.669 162.953 148.669 159.077 148.669 155.201 145.474 151.938 141.564 151.938 137.653 151.938 134.493 155.173 134.493 159.077 134.493 162.982 137.688 166.148 141.564 166.148Z" fill="#181D24" transform="matrix(1.00192 0 0 1 892.175 201)"/><path d="M0.251913 183.026C0.251913 182.746 0.475199 182.494 0.784365 182.494L11.8227 182.494C12.1319 182.494 12.3552 182.746 12.3552 183.026L12.3552 183.839C12.3552 184.12 12.1319 184.372 11.8227 184.372L2.41035 184.372 2.41035 191.208 10.4487 191.208C10.7292 191.208 10.9811 191.46 10.9811 191.74L10.9811 192.553C10.9811 192.862 10.7292 193.086 10.4487 193.086L2.41035 193.086 2.41035 200.231 11.8227 200.231C12.1319 200.231 12.3552 200.483 12.3552 200.763L12.3552 201.576C12.3552 201.857 12.1319 202.109 11.8227 202.109L0.784365 202.109C0.475199 202.109 0.251913 201.857 0.251913 201.576L0.251913 183.032Z" fill="#181D24" transform="matrix(1.00192 0 0 1 892.175 201)"/><path d="M19.0538 182.608C19.111 182.385 19.3343 182.219 19.5576 182.219L20.0042 182.219C20.1988 182.219 20.4221 182.356 20.4794 182.528L26.0272 197.963 26.1646 197.963 31.6265 182.528C31.6838 182.362 31.9071 182.219 32.1017 182.219L32.5483 182.219C32.7716 182.219 32.9949 182.385 33.0521 182.608L36.6648 201.433C36.7507 201.828 36.5789 202.109 36.161 202.109L35.0388 202.109C34.8155 202.109 34.5922 201.914 34.535 201.714L32.0387 187.286 31.9242 187.286 26.7715 202.08C26.7142 202.246 26.4623 202.389 26.2963 202.389L25.7924 202.389C25.6264 202.389 25.3745 202.252 25.3172 202.08L20.1072 187.286 19.9927 187.286 17.5538 201.714C17.5251 201.908 17.2732 202.109 17.0499 202.109L15.9278 202.109C15.5098 202.109 15.3381 201.828 15.4239 201.433L19.0366 182.608Z" fill="#181D24" transform="matrix(1.00192 0 0 1 892.175 201)"/><path d="M44.5485 183.221C44.3825 182.854 44.6058 182.494 45.0237 182.494L46.1459 182.494C46.3978 182.494 46.5638 182.66 46.6211 182.803L53.5945 198.49 53.709 198.49 60.6881 182.803C60.7454 182.665 60.94 182.494 61.1633 182.494L62.2855 182.494C62.7034 182.494 62.9324 182.86 62.7607 183.221L54.2414 202.074C54.1556 202.24 53.9895 202.383 53.7662 202.383L53.4857 202.383C53.291 202.383 53.0907 202.246 53.0105 202.074L44.5485 183.221Z" fill="#181D24" transform="matrix(1.00192 0 0 1 892.175 201)"/><path d="M65.818 183.026C65.818 182.746 66.0413 182.494 66.3504 182.494L77.3888 182.494C77.698 182.494 77.9212 182.746 77.9212 183.026L77.9212 183.839C77.9212 184.12 77.698 184.372 77.3888 184.372L67.9764 184.372 67.9764 191.208 76.0147 191.208C76.2953 191.208 76.5472 191.46 76.5472 191.74L76.5472 192.553C76.5472 192.862 76.2953 193.086 76.0147 193.086L67.9764 193.086 67.9764 200.231 77.3888 200.231C77.698 200.231 77.9212 200.483 77.9212 200.763L77.9212 201.576C77.9212 201.857 77.698 202.109 77.3888 202.109L66.3504 202.109C66.0413 202.109 65.818 201.857 65.818 201.576L65.818 183.032Z" fill="#181D24" transform="matrix(1.00192 0 0 1 892.175 201)"/><path d="M82.4042 182.723C82.4042 182.442 82.6561 182.219 82.9366 182.219L83.6351 182.219 96.2708 197.963 96.3281 197.963 96.3281 183.032C96.3281 182.751 96.5514 182.499 96.8605 182.499L97.8395 182.499C98.1201 182.499 98.372 182.751 98.372 183.032L98.372 201.885C98.372 202.166 98.1201 202.389 97.8395 202.389L97.3357 202.389 84.4767 186.335 84.4481 186.335 84.4481 201.576C84.4481 201.857 84.2248 202.109 83.9156 202.109L82.9366 202.109C82.6561 202.109 82.4042 201.857 82.4042 201.576L82.4042 182.723Z" fill="#181D24" transform="matrix(1.00192 0 0 1 892.175 201)"/><path d="M104.092 183.026C104.092 182.746 104.315 182.494 104.595 182.494L110.87 182.494C116.275 182.494 120.706 186.891 120.706 192.273 120.706 197.654 116.281 202.109 110.87 202.109L104.595 202.109C104.315 202.109 104.092 201.857 104.092 201.576L104.092 183.032ZM110.424 200.173C115.021 200.173 118.353 196.899 118.353 192.273 118.353 187.646 115.021 184.4 110.424 184.4L106.221 184.4 106.221 200.173 110.424 200.173Z" fill="#181D24" transform="matrix(1.00192 0 0 1 892.175 201)"/><path d="M122.218 201.381 130.737 182.528C130.823 182.362 130.96 182.219 131.212 182.219L131.493 182.219C131.745 182.219 131.888 182.356 131.968 182.528L140.43 201.381C140.596 201.748 140.373 202.109 139.955 202.109L138.833 202.109C138.581 202.109 138.415 201.943 138.357 201.799L136.285 197.179 126.34 197.179 124.296 201.799C124.239 201.937 124.073 202.109 123.821 202.109L122.699 202.109C122.281 202.109 122.052 201.742 122.224 201.381ZM135.523 195.444C134.149 192.393 132.804 189.307 131.436 186.255L131.212 186.255 127.124 195.444 135.529 195.444Z" fill="#181D24" transform="matrix(1.00192 0 0 1 892.175 201)"/><path d="M142.222 199.166C142.359 199 142.503 198.799 142.64 198.633 142.921 198.267 143.23 198.044 143.619 198.381 143.814 198.547 145.858 200.511 148.354 200.511 150.621 200.511 152.11 199.08 152.11 197.431 152.11 195.496 150.426 194.351 147.209 193.005 144.129 191.66 142.279 190.4 142.279 187.206 142.279 185.299 143.791 182.219 148.245 182.219 150.993 182.219 153.037 183.645 153.037 183.645 153.203 183.73 153.541 184.062 153.203 184.595 153.089 184.761 152.98 184.961 152.865 185.127 152.613 185.522 152.333 185.631 151.886 185.379 151.692 185.265 149.923 184.091 148.216 184.091 145.245 184.091 144.352 185.998 144.352 187.171 144.352 189.049 145.783 190.143 148.136 191.122 151.921 192.662 154.354 194.093 154.354 197.339 154.354 200.254 151.583 202.383 148.302 202.383 145.022 202.383 142.754 200.448 142.394 200.116 142.171 199.922 141.89 199.698 142.228 199.166Z" fill="#181D24" transform="matrix(1.00192 0 0 1 892.175 201)"/><path d="M116.143 0 38.4625 0C20.8343 0 6.49821 14.3419 6.49821 31.9643 6.49821 49.5868 20.8401 63.9286 38.4625 63.9286L44.9436 63.9286C45.0008 63.9286 45.0523 63.9286 45.1096 63.9286L66.1787 63.9286C68.6921 63.837 70.6559 61.7244 70.57 59.211 70.4784 56.6976 68.3715 54.7224 65.8523 54.8197L38.4683 54.8197C25.8669 54.8197 15.6129 44.5657 15.6129 31.9643 15.6129 19.3629 25.8612 9.11467 38.4625 9.11467L116.143 9.11467C128.745 9.11467 138.999 19.3687 138.999 31.97 138.999 36.0178 137.928 39.9912 135.907 43.4607L96.9235 104.779C96.9235 104.779 96.8891 104.836 96.872 104.864 92.6868 111.769 85.3756 115.897 77.3086 115.897 69.2417 115.897 61.9305 111.775 57.7052 104.802L49.249 91.3471 66.2645 91.3471C83.8927 91.3471 98.2289 77.0052 98.2289 59.3827 98.2289 41.7603 83.887 27.4184 66.2645 27.4184L40.4778 27.4184C37.9587 27.4184 35.9205 29.4566 35.9205 31.9758 35.9205 34.4949 37.9587 36.5331 40.4778 36.5331L66.2645 36.5331C78.8659 36.5331 89.1199 46.7871 89.1199 59.3885 89.1199 71.9898 78.8659 82.2438 66.2645 82.2438L41.0046 82.2438C39.3442 82.2438 37.8213 83.1427 37.014 84.5969 36.2125 86.0512 36.264 87.8203 37.1457 89.2287L49.9475 109.599C55.7987 119.258 66.0241 125.023 77.3029 125.023 88.5817 125.023 98.7785 119.275 104.635 109.645L143.636 48.2986C143.665 48.2528 143.693 48.207 143.722 48.1612 146.596 43.2718 148.113 37.6839 148.113 31.9872 148.113 14.359 133.771 0.0229012 116.149 0.0229012Z" fill="#1618FF" transform="matrix(1.00192 0 0 1 892.175 201)"/></g></svg>