<svg width="127" height="167" xmlns="http://www.w3.org/2000/svg" xmlns:xlink="http://www.w3.org/1999/xlink" xml:space="preserve" overflow="hidden"><defs><clipPath id="clip0"><rect x="89" y="449" width="127" height="167"/></clipPath></defs><g clip-path="url(#clip0)" transform="translate(-89 -449)"><path d="M0.14924 138.511 1.52557 136.079C1.75772 135.698 2.31599 135.759 2.5205 135.902 2.63658 135.963 4.74805 137.511 6.67711 137.511 7.84893 137.511 8.69462 136.781 8.69462 135.753 8.69462 134.526 7.67205 133.587 5.67665 132.796 3.16168 131.801 0 129.839 0 126.329 0 123.433 2.25518 120.503 6.76003 120.503 9.80563 120.503 12.1493 122.056 13.0226 122.698 13.3763 122.902 13.3155 123.427 13.1995 123.637L11.7071 125.892C11.5025 126.213 10.9774 126.478 10.7121 126.274 10.4468 126.13 8.31323 124.516 6.52787 124.516 5.47214 124.516 4.68172 125.218 4.68172 126.008 4.68172 127.092 5.56058 127.91 7.87104 128.85 10.1539 129.756 13.7854 131.541 13.7854 135.521 13.7854 138.539 11.182 141.579 6.8761 141.579 3.06771 141.579 0.96177 139.998 0.287425 139.324-0.00552741 139.031-0.093966 138.915 0.138185 138.506Z" fill="#FFFFFF" transform="matrix(1 0 0 1.00146 89.0149 449)"/><path d="M17.0687 121.354C17.0687 121.061 17.334 120.796 17.6269 120.796L21.2253 120.796C21.5459 120.796 21.7835 121.061 21.7835 121.354L21.7835 133.211C21.7835 135.261 23.3036 136.897 25.3874 136.897 27.4712 136.897 29.0466 135.256 29.0466 133.211L29.0466 121.354C29.0466 121.061 29.2787 120.796 29.6048 120.796L33.2087 120.796C33.5017 120.796 33.767 121.061 33.767 121.354L33.767 133.443C33.767 137.892 30.0194 141.579 25.3929 141.579 20.7665 141.579 17.0797 137.892 17.0797 133.443L17.0797 121.354Z" fill="#FFFFFF" transform="matrix(1 0 0 1.00146 89.0149 449)"/><path d="M47.5468 120.509C50.4763 120.509 52.6431 121.415 54.6329 123.234 54.8983 123.466 54.8983 123.82 54.6606 124.052L52.3778 126.423C52.1732 126.628 51.8527 126.628 51.6481 126.423 50.5648 125.456 49.1332 124.931 47.696 124.931 44.3907 124.931 41.9586 127.683 41.9586 130.961 41.9586 134.239 44.4183 136.903 47.7237 136.903 49.1 136.903 50.5924 136.405 51.6481 135.499 51.8527 135.322 52.2341 135.322 52.4109 135.527L54.6937 137.959C54.8983 138.163 54.8706 138.545 54.6661 138.749 52.6762 140.684 50.1557 141.59 47.5523 141.59 41.6988 141.59 36.9839 136.936 36.9839 131.083 36.9839 125.229 41.6988 120.514 47.5523 120.514Z" fill="#FFFFFF" transform="matrix(1 0 0 1.00146 89.0149 449)"/><path d="M58.1705 121.354C58.1705 121.061 58.4026 120.796 58.7288 120.796L70.8504 120.796C71.171 120.796 71.4086 121.061 71.4086 121.354L71.4086 124.544C71.4086 124.837 71.1765 125.102 70.8504 125.102L62.7417 125.102 62.7417 128.733 69.4133 128.733C69.7062 128.733 69.9715 128.999 69.9715 129.292L69.9715 132.481C69.9715 132.802 69.7062 133.039 69.4133 133.039L62.7417 133.039 62.7417 136.991 70.8504 136.991C71.171 136.991 71.4086 137.257 71.4086 137.55L71.4086 140.739C71.4086 141.032 71.1765 141.297 70.8504 141.297L58.7288 141.297C58.4082 141.297 58.1705 141.032 58.1705 140.739L58.1705 121.36Z" fill="#FFFFFF" transform="matrix(1 0 0 1.00146 89.0149 449)"/><path d="M74.1613 138.511 75.5376 136.079C75.7698 135.698 76.328 135.759 76.5326 135.902 76.6486 135.963 78.7601 137.511 80.6892 137.511 81.861 137.511 82.7067 136.781 82.7067 135.753 82.7067 134.526 81.6841 133.587 79.6887 132.796 77.1737 131.801 74.0121 129.839 74.0121 126.329 74.0121 123.433 76.2672 120.503 80.7721 120.503 83.8177 120.503 86.1613 122.056 87.0346 122.698 87.3884 122.902 87.3276 123.427 87.2115 123.637L85.7191 125.892C85.5146 126.213 84.9895 126.478 84.7242 126.274 84.4589 126.13 82.3253 124.516 80.5399 124.516 79.4842 124.516 78.6938 125.218 78.6938 126.008 78.6938 127.092 79.5726 127.91 81.8831 128.85 84.1659 129.756 87.7974 131.541 87.7974 135.521 87.7974 138.539 85.194 141.579 80.8882 141.579 77.0798 141.579 74.9738 139.998 74.2995 139.324 74.0065 139.031 73.9181 138.915 74.1502 138.506Z" fill="#FFFFFF" transform="matrix(1 0 0 1.00146 89.0149 449)"/><path d="M90.2019 138.511 91.5782 136.079C91.8103 135.698 92.3686 135.759 92.5731 135.902 92.6892 135.963 94.7951 137.511 96.7297 137.511 97.9015 137.511 98.7472 136.781 98.7472 135.753 98.7472 134.526 97.7247 133.587 95.7348 132.796 93.2198 131.801 90.0581 129.839 90.0581 126.329 90.0581 123.433 92.3133 120.503 96.8182 120.503 99.8638 120.503 102.207 122.056 103.081 122.698 103.434 122.902 103.374 123.427 103.258 123.637L101.765 125.892C101.561 126.213 101.036 126.478 100.77 126.274 100.505 126.13 98.3714 124.516 96.586 124.516 95.5303 124.516 94.7399 125.218 94.7399 126.008 94.7399 127.092 95.6187 127.91 97.9292 128.85 100.212 129.756 103.844 131.541 103.844 135.521 103.844 138.539 101.24 141.579 96.9342 141.579 93.1258 141.579 91.0199 139.998 90.3456 139.324 90.0526 139.031 89.9642 138.915 90.1963 138.506Z" fill="#FFFFFF" transform="matrix(1 0 0 1.00146 89.0149 449)"/><path d="M116.435 120.509C122.288 120.509 126.976 125.224 126.976 131.077 126.976 136.931 122.294 141.585 116.435 141.585 110.576 141.585 105.927 136.931 105.927 131.077 105.927 125.224 110.581 120.509 116.435 120.509ZM116.435 136.903C119.657 136.903 122.288 134.266 122.288 131.077 122.288 127.888 119.652 125.196 116.435 125.196 113.218 125.196 110.609 127.86 110.609 131.077 110.609 134.294 113.246 136.903 116.435 136.903Z" fill="#FFFFFF" transform="matrix(1 0 0 1.00146 89.0149 449)"/><path d="M0 150.804C0 150.572 0.182405 150.368 0.436666 150.368L9.53479 150.368C9.78905 150.368 9.97145 150.578 9.97145 150.804L9.97145 151.473C9.97145 151.705 9.78905 151.91 9.53479 151.91L1.77983 151.91 1.77983 157.542 8.40167 157.542C8.63382 157.542 8.83833 157.752 8.83833 157.979L8.83833 158.648C8.83833 158.902 8.62829 159.084 8.40167 159.084L1.77983 159.084 1.77983 164.971 9.53479 164.971C9.78905 164.971 9.97145 165.181 9.97145 165.408L9.97145 166.077C9.97145 166.309 9.78905 166.513 9.53479 166.513L0.436666 166.513C0.182405 166.513 0 166.303 0 166.077L0 150.793Z" fill="#FFFFFF" transform="matrix(1 0 0 1.00146 89.0149 449)"/><path d="M15.4878 150.462C15.532 150.279 15.72 150.141 15.9024 150.141L16.2727 150.141C16.433 150.141 16.6209 150.257 16.6651 150.395L21.2363 163.114 21.3524 163.114 25.8517 150.395C25.8959 150.257 26.0839 150.141 26.2442 150.141L26.6145 150.141C26.7969 150.141 26.9848 150.279 27.0291 150.462L30.0083 165.977C30.0802 166.298 29.942 166.53 29.5938 166.53L28.6707 166.53C28.4883 166.53 28.3004 166.37 28.2561 166.209L26.1999 154.32 26.106 154.32 21.8609 166.508C21.8167 166.646 21.6067 166.762 21.4685 166.762L21.0539 166.762C20.9157 166.762 20.7057 166.646 20.6615 166.508L16.3667 154.32 16.2727 154.32 14.2663 166.209C14.2441 166.37 14.0341 166.53 13.8517 166.53L12.9286 166.53C12.5804 166.53 12.4422 166.298 12.5141 165.977L15.4933 150.462Z" fill="#FFFFFF" transform="matrix(1 0 0 1.00146 89.0149 449)"/><path d="M36.4975 150.97C36.3593 150.672 36.5417 150.368 36.89 150.368L37.813 150.368C38.0231 150.368 38.1613 150.506 38.2055 150.622L43.954 163.551 44.048 163.551 49.7965 150.622C49.8407 150.506 50.0065 150.368 50.1889 150.368L51.112 150.368C51.4602 150.368 51.6426 150.666 51.5044 150.97L44.4846 166.508C44.4128 166.646 44.2746 166.762 44.0922 166.762L43.86 166.762C43.6997 166.762 43.5394 166.646 43.4676 166.508L36.4975 150.97Z" fill="#FFFFFF" transform="matrix(1 0 0 1.00146 89.0149 449)"/><path d="M54.0194 150.804C54.0194 150.572 54.2018 150.368 54.4561 150.368L63.5487 150.368C63.8029 150.368 63.9853 150.578 63.9853 150.804L63.9853 151.473C63.9853 151.705 63.8029 151.91 63.5487 151.91L55.7937 151.91 55.7937 157.542 62.4211 157.542C62.6532 157.542 62.8577 157.752 62.8577 157.979L62.8577 158.648C62.8577 158.902 62.6477 159.084 62.4211 159.084L55.7937 159.084 55.7937 164.971 63.5487 164.971C63.8029 164.971 63.9853 165.181 63.9853 165.408L63.9853 166.077C63.9853 166.309 63.8029 166.513 63.5487 166.513L54.4561 166.513C54.2018 166.513 54.0194 166.303 54.0194 166.077L54.0194 150.793Z" fill="#FFFFFF" transform="matrix(1 0 0 1.00146 89.0149 449)"/><path d="M67.6887 150.55C67.6887 150.318 67.8987 150.136 68.1254 150.136L68.7002 150.136 79.1139 163.108 79.1581 163.108 79.1581 150.804C79.1581 150.572 79.3405 150.368 79.5947 150.368L80.4017 150.368C80.6339 150.368 80.8384 150.578 80.8384 150.804L80.8384 166.342C80.8384 166.574 80.6284 166.757 80.4017 166.757L79.9872 166.757 69.3911 153.529 69.369 153.529 69.369 166.088C69.369 166.32 69.1866 166.524 68.9324 166.524L68.1254 166.524C67.8932 166.524 67.6887 166.314 67.6887 166.088L67.6887 150.55Z" fill="#FFFFFF" transform="matrix(1 0 0 1.00146 89.0149 449)"/><path d="M85.5588 150.804C85.5588 150.572 85.7412 150.368 85.9734 150.368L91.147 150.368C95.6021 150.368 99.2502 153.994 99.2502 158.427 99.2502 162.86 95.6021 166.53 91.147 166.53L85.9734 166.53C85.7412 166.53 85.5588 166.32 85.5588 166.093L85.5588 150.81ZM90.7767 164.932C94.563 164.932 97.3101 162.23 97.3101 158.421 97.3101 154.613 94.563 151.932 90.7767 151.932L87.3165 151.932 87.3165 164.927 90.7767 164.927Z" fill="#FFFFFF" transform="matrix(1 0 0 1.00146 89.0149 449)"/><path d="M100.494 165.927 107.514 150.39C107.586 150.252 107.696 150.136 107.906 150.136L108.138 150.136C108.348 150.136 108.459 150.252 108.531 150.39L115.501 165.927C115.639 166.226 115.457 166.53 115.108 166.53L114.185 166.53C113.975 166.53 113.837 166.392 113.793 166.276L112.085 162.467 103.888 162.467 102.202 166.276C102.158 166.392 102.019 166.53 101.809 166.53L100.886 166.53C100.538 166.53 100.356 166.231 100.494 165.927ZM111.46 161.036C110.327 158.521 109.222 155.978 108.089 153.463L107.906 153.463 104.534 161.036 111.46 161.036Z" fill="#FFFFFF" transform="matrix(1 0 0 1.00146 89.0149 449)"/><path d="M116.977 164.103C117.093 163.965 117.209 163.805 117.325 163.667 117.557 163.368 117.811 163.18 118.132 163.457 118.292 163.595 119.978 165.209 122.034 165.209 123.902 165.209 125.13 164.032 125.13 162.672 125.13 161.08 123.742 160.135 121.089 159.024 118.552 157.918 117.026 156.879 117.026 154.248 117.026 152.678 118.27 150.141 121.946 150.141 124.206 150.141 125.892 151.318 125.892 151.318 126.031 151.385 126.307 151.667 126.031 152.103 125.937 152.242 125.848 152.402 125.754 152.54 125.544 152.861 125.318 152.955 124.947 152.75 124.787 152.656 123.333 151.689 121.924 151.689 119.475 151.689 118.74 153.259 118.74 154.231 118.74 155.779 119.917 156.68 121.857 157.487 124.975 158.758 126.981 159.936 126.981 162.611 126.981 165.01 124.698 166.768 121.996 166.768 119.293 166.768 117.424 165.176 117.126 164.899 116.943 164.739 116.711 164.551 116.988 164.114Z" fill="#FFFFFF" transform="matrix(1 0 0 1.00146 89.0149 449)"/><path d="M95.4916 0 31.4841 0C16.9581 0 5.14602 11.8176 5.14602 26.3381 5.14602 40.8586 16.9636 52.6762 31.4841 52.6762L36.8236 52.6762C36.8678 52.6762 36.9121 52.6762 36.9563 52.6762L54.3124 52.6762C56.3851 52.6044 58.0047 50.8633 57.9273 48.7905 57.8554 46.7177 56.1143 45.0926 54.0415 45.1755L31.4841 45.1755C21.1037 45.1755 12.6522 36.7241 12.6522 26.3436 12.6522 15.9632 21.0981 7.50623 31.4841 7.50623L95.4916 7.50623C105.872 7.50623 114.323 15.9521 114.323 26.3381 114.323 29.6712 113.445 32.9434 111.775 35.8066L79.6555 86.3271C79.6555 86.3271 79.6279 86.3714 79.6113 86.3935 76.1622 92.0867 70.1373 95.4805 63.4934 95.4805 56.8494 95.4805 50.8246 92.0812 47.3423 86.3382L40.3722 75.2557 54.3953 75.2557C68.9158 75.2557 80.7334 63.4381 80.7334 48.9176 80.7334 34.3971 68.9158 22.5795 54.3953 22.5795L33.1424 22.5795C31.0696 22.5795 29.3893 24.2598 29.3893 26.3326 29.3893 28.4054 31.0696 30.0857 33.1424 30.0857L54.3897 30.0857C64.7702 30.0857 73.2216 38.5316 73.2216 48.9176 73.2216 59.3036 64.7758 67.7495 54.3897 67.7495L33.5735 67.7495C32.2082 67.7495 30.948 68.4902 30.2902 69.6896 29.6269 70.8835 29.6712 72.3483 30.3952 73.5035L40.9471 90.2848C45.767 98.2442 54.1963 102.992 63.4879 102.992 72.7794 102.992 81.1811 98.2553 86.0065 90.3179L118.143 39.7753C118.165 39.7366 118.187 39.7034 118.209 39.6647 120.575 35.6352 121.824 31.0309 121.824 26.3381 121.824 11.8121 110.007-1.17824e-14 95.4861-1.17824e-14Z" fill="#BCFE63" transform="matrix(1 0 0 1.00146 89.0149 449)"/></g></svg>