<?xml version="1.0" encoding="UTF-8"?><svg id="Camada_2" xmlns="http://www.w3.org/2000/svg" xmlns:xlink="http://www.w3.org/1999/xlink" viewBox="0 0 233.65 209.3"><defs><style>.cls-1{fill:url(#Gradiente_sem_nome_20);}.cls-1,.cls-2,.cls-3{stroke-width:0px;}.cls-2{fill:url(#Gradiente_sem_nome_12);}.cls-3{fill:#f3f3f3;}</style><linearGradient id="Gradiente_sem_nome_20" x1="235.95" y1="27.33" x2="-71.1" y2="123.41" gradientUnits="userSpaceOnUse"><stop offset="0" stop-color="#f42621"/><stop offset="1" stop-color="#fbe42e"/></linearGradient><linearGradient id="Gradiente_sem_nome_12" x1="-248.83" y1="337.54" x2="-448.61" y2="409.08" gradientTransform="translate(371.21 -365.03) rotate(-11.38)" gradientUnits="userSpaceOnUse"><stop offset="0" stop-color="#f42621"/><stop offset=".71" stop-color="#fbe42e"/></linearGradient></defs><g id="Camada_1-2"><path class="cls-3" d="M56.56,165.79l-9.14,26.1c-.87,2.44-1.78,4.71-2.74,6.83-.96,2.12-2.13,3.96-3.52,5.53-1.39,1.57-3.07,2.8-5.05,3.7-1.97.9-4.44,1.35-7.4,1.35h-.87c-2.78,0-5.15-.45-7.09-1.35-1.94-.9-3.64-2.13-5.09-3.7-1.45-1.57-2.68-3.41-3.7-5.53-1.02-2.12-1.96-4.39-2.83-6.83L0,165.79h11.49l7.92,22.62c.58,1.62,1.13,3.13,1.65,4.52.52,1.39,1.1,2.6,1.74,3.61.64,1.02,1.36,1.8,2.18,2.35.81.55,1.77.83,2.87.83h.87c.99,0,1.87-.29,2.65-.87.78-.58,1.51-1.38,2.18-2.39.67-1.01,1.29-2.22,1.87-3.61.58-1.39,1.16-2.87,1.74-4.44l7.92-22.62h11.49Z"/><path class="cls-3" d="M114.12,175.36h-34.54c-3.42,0-5.84.84-7.27,2.52-1.42,1.68-2.13,3.92-2.13,6.7v5.92c0,2.78.71,5.02,2.13,6.7,1.42,1.68,3.84,2.52,7.27,2.52h34.54v9.57h-37.41c-2.61,0-4.99-.42-7.13-1.26-2.15-.84-3.97-2.02-5.48-3.52-1.51-1.51-2.68-3.33-3.52-5.48-.84-2.15-1.26-4.52-1.26-7.13v-8.7c0-2.61.42-4.99,1.26-7.13.84-2.15,2.02-3.97,3.52-5.48,1.51-1.51,3.34-2.68,5.48-3.52,2.15-.84,4.52-1.26,7.13-1.26h37.41v9.57ZM94.72,191.63h-32.28v-8.27h32.28v8.27Z"/><path class="cls-3" d="M134.81,189.89c0,6.56,3.28,9.83,9.83,9.83h25.41v9.57h-28.71c-2.61,0-4.99-.42-7.13-1.26-2.15-.84-3.97-2.02-5.48-3.52-1.51-1.51-2.68-3.33-3.52-5.48-.84-2.15-1.26-4.52-1.26-7.13v-26.1h10.88v24.1Z"/><path class="cls-3" d="M177.09,209.3v-26.1c0-2.61.42-4.99,1.26-7.13.84-2.15,2.01-3.97,3.52-5.48,1.51-1.51,3.34-2.68,5.48-3.52,2.15-.84,4.52-1.26,7.13-1.26h21.75c2.61,0,4.99.42,7.14,1.26,2.15.84,3.97,2.02,5.48,3.52,1.51,1.51,2.68,3.34,3.52,5.48.84,2.15,1.26,4.52,1.26,7.13v26.1h-10.88v-11.92h-34.8v11.92h-10.88ZM222.77,189.11v-2.44c0-3.42-.87-6.16-2.61-8.22-1.74-2.06-4.03-3.09-6.87-3.09h-15.75c-2.9,0-5.22,1.03-6.96,3.09-1.74,2.06-2.61,4.8-2.61,8.22v2.44h34.8Z"/><path class="cls-1" d="M116.82,0C81.2,0,52.21,28.98,52.21,64.61s28.98,64.61,64.61,64.61,64.61-28.98,64.61-64.61S152.45,0,116.82,0ZM116.82,3.18c33.87,0,61.42,27.55,61.42,61.42,0,6.34-.97,12.47-2.76,18.23-4.3-.8-7.06,1.39-9.8,5.48-3,4.48-7.03,8.69-11.51,11.68-20.58,13.71-46.41,7.92-59.95-12.88-1.08-1.66-2.8-4.05-4.28-4.1-10.44-.33-20.9-.21-31.79-.19-1.79-5.76-2.76-11.87-2.76-18.21,0-33.87,27.55-61.42,61.42-61.42Z"/><path class="cls-2" d="M136.01,102.29c-8.17-27.04-22.9-37.05-55.73-38.42,12.36-18.34,24.81-36.79,37.29-55.3,27.72,16.13,40.51,60.77,18.44,93.72Z"/></g></svg>