<?xml version="1.0" encoding="utf-8"?>
<!-- Generator: Adobe Illustrator 28.2.0, SVG Export Plug-In . SVG Version: 6.00 Build 0)  -->
<svg version="1.0" id="Camada_1" xmlns="http://www.w3.org/2000/svg" xmlns:xlink="http://www.w3.org/1999/xlink" x="0px"
	y="0px" viewBox="250 100 345 400" style="enable-background:new 0 0 841.9 595.3;" xml:space="preserve">
	<style type="text/css">
		.st0 {
			fill: #FFFFFF;
		}

		.st1 {
			fill: #1717FF;
		}

		.st2 {
			fill: url(#SVGID_1_);
		}

		.st3 {
			fill: url(#SVGID_00000145744810543547561260000001142219822653880712_);
		}

		.st4 {
			fill: #FF7730;
		}

		.st5 {
			fill: url(#SVGID_00000150797954020863929830000016654875057558356608_);
		}

		.st6 {
			fill: url(#SVGID_00000129888767500872588160000004255744136041515415_);
		}

		.st7 {
			fill: url(#SVGID_00000088091449351434373910000008007563535521579952_);
		}
	</style>
	<g>
		<g>
			<path class="st1" d="M497.9,297.6c0,56.6-47.1,102.3-104.1,100.2c-54.2-2-96.3-48.3-96.3-102.6l0-141.2h-42.4
			c-2.2,0-4.1-1.8-4.1-4.1v-22.7c0-12.7,10.3-23,23-23h64.7c4.7,0,8.5,3.8,8.5,8.5v184.8c0,28.3,23.4,51.3,51.9,50.4
			c26.3-0.8,48.2-22.7,48.9-48.9c0.8-25.9-18.1-47.6-42.9-51.3c-4.3-0.6-7.5-4.1-7.5-8.5l0-41.9
			C452.9,197.4,497.9,242.3,497.9,297.6z" />
		</g>
		<g>
			<path class="st1" d="M397.7,491.1c-81,0-146.9-65.9-146.9-146.9s65.9-146.9,146.9-146.9v13.8c-73.4,0-133,59.7-133,133
			s59.7,133,133,133V491.1z" />
		</g>
		<g>
			<linearGradient id="SVGID_1_" gradientUnits="userSpaceOnUse" x1="510.2792" y1="121.0758" x2="443.6116"
				y2="499.1667">
				<stop offset="9.000000e-02" style="stop-color:#FF7730" />
				<stop offset="0.55" style="stop-color:#1717FF" />
			</linearGradient>
			<path class="st2"
				d="M591.1,297.6c0,106.7-86.8,193.4-193.4,193.4l0-41.5c0-4.5,3.4-8.3,7.9-8.5c75.6-4.1,135.8-66.9,135.8-143.4
			c0-76.5-60.2-139.3-135.8-143.4c-4.5-0.2-7.9-4-7.9-8.5l0-37.3c0-2.3,1.9-4.2,4.2-4.1C506.5,106.5,591.1,192.3,591.1,297.6z" />
		</g>
	</g>
</svg>