<svg width="447" height="507" viewBox="0 0 447 507" fill="none" xmlns="http://www.w3.org/2000/svg">
<path d="M444.996 263.463C444.996 121.149 330.457 5.06117 188.562 2.06016C185.48 1.99646 182.927 4.53387 182.927 7.6092V58.0955C182.927 64.1364 187.587 69.275 193.629 69.6005C295.988 75.1637 377.549 160.02 377.549 263.463C377.549 366.906 295.988 451.836 193.629 457.399C187.583 457.729 182.927 462.864 182.927 468.905V506.3C83.5681 506.286 2.73419 425.609 2.73419 326.449C2.73419 281.239 19.5393 239.872 47.2416 208.238V260.228C47.2416 333.572 104.288 396.112 177.728 398.88C254.967 401.789 318.751 339.985 318.751 263.459C318.751 186.934 257.825 128.018 182.955 128.018V184.647C182.955 190.476 187.338 195.215 193.115 196.078C226.651 201.089 252.254 230.501 251.225 265.491C250.179 301.007 220.527 330.61 184.938 331.665C146.402 332.808 114.682 301.761 114.682 263.459V159.999C135.746 151.364 158.799 146.597 182.945 146.597V127.901C158.973 127.901 135.98 132.155 114.682 139.94V13.5546C114.682 7.17391 109.497 2 103.104 2H15.4861C-1.74102 2 -15.7092 15.9363 -15.7092 33.1319V63.825C-15.7092 66.8543 -13.2482 69.3103 -10.2127 69.3103H47.2416V181.392C8.3477 217.655 -16 269.267 -16 326.452C-16 435.925 73.2347 524.986 182.927 525C182.927 525 182.934 525 182.941 525C182.948 525 182.948 525 182.955 525C327.428 524.986 445 407.72 445 263.463H444.996Z" stroke="url(#paint0_linear_881_5172)" stroke-opacity="0.2" stroke-width="3" stroke-miterlimit="10"/>
<defs>
<linearGradient id="paint0_linear_881_5172" x1="173.694" y1="532.356" x2="224.46" y2="6.3104" gradientUnits="userSpaceOnUse">
<stop offset="0.09" stop-color="#FF7730"/>
<stop offset="0.55" stop-color="#1717FF"/>
</linearGradient>
</defs>
</svg>
