<svg width="388" height="507" viewBox="0 0 388 507" fill="none" xmlns="http://www.w3.org/2000/svg">
<path d="M385.996 263.463C385.996 121.149 271.457 5.06117 129.562 2.06016C126.48 1.99646 123.927 4.53387 123.927 7.6092V58.0955C123.927 64.1364 128.587 69.275 134.629 69.6005C236.988 75.1637 318.549 160.02 318.549 263.463C318.549 366.906 236.988 451.836 134.629 457.399C128.583 457.729 123.927 462.864 123.927 468.905V506.3C24.5681 506.286 -56.2658 425.609 -56.2658 326.449C-56.2658 281.239 -39.4607 239.872 -11.7584 208.238V260.228C-11.7584 333.572 45.2882 396.112 118.728 398.88C195.967 401.789 259.751 339.985 259.751 263.459C259.751 186.934 198.825 128.018 123.955 128.018V184.647C123.955 190.476 128.338 195.215 134.115 196.078C167.651 201.089 193.254 230.501 192.225 265.491C191.179 301.007 161.527 330.61 125.938 331.665C87.402 332.808 55.6819 301.761 55.6819 263.459V159.999C76.7458 151.364 99.7992 146.597 123.945 146.597V127.901C99.973 127.901 76.9799 132.155 55.6819 139.94V13.5546C55.6819 7.17391 50.4974 2 44.1038 2H-43.5139C-60.741 2 -74.7092 15.9363 -74.7092 33.1319V63.825C-74.7092 66.8543 -72.2482 69.3103 -69.2127 69.3103H-11.7584V181.392C-50.6523 217.655 -75 269.267 -75 326.452C-75 435.925 14.2347 524.986 123.927 525C123.927 525 123.934 525 123.941 525C123.948 525 123.948 525 123.955 525C268.428 524.986 386 407.72 386 263.463H385.996Z" stroke="#DFDFDF" stroke-opacity="0.5" stroke-width="3" stroke-miterlimit="10"/>
</svg>
