<?xml version="1.0" encoding="UTF-8"?><svg id="Camada_2" xmlns="http://www.w3.org/2000/svg" xmlns:xlink="http://www.w3.org/1999/xlink" viewBox="0 0 537.9 129.22"><defs><style>.cls-1{fill:url(#Gradiente_sem_nome_20);}.cls-1,.cls-2,.cls-3{stroke-width:0px;}.cls-2{fill:url(#Gradiente_sem_nome_12);}.cls-3{fill:#f3f3f3;}</style><linearGradient id="Gradiente_sem_nome_20" x1="183.74" y1="27.33" x2="-123.31" y2="123.41" gradientUnits="userSpaceOnUse"><stop offset="0" stop-color="#f42621"/><stop offset="1" stop-color="#fbe42e"/></linearGradient><linearGradient id="Gradiente_sem_nome_12" x1="-440.41" y1="411.87" x2="-640.19" y2="483.41" gradientTransform="translate(492.13 -475.71) rotate(-11.38)" gradientUnits="userSpaceOnUse"><stop offset="0" stop-color="#f42621"/><stop offset=".71" stop-color="#fbe42e"/></linearGradient></defs><g id="Camada_1-2"><path class="cls-1" d="M64.61,0C28.98,0,0,28.98,0,64.61s28.98,64.61,64.61,64.61,64.61-28.98,64.61-64.61S100.23,0,64.61,0ZM64.61,3.18c33.87,0,61.42,27.55,61.42,61.42,0,6.34-.97,12.47-2.76,18.23-4.3-.8-7.06,1.39-9.8,5.48-3,4.48-7.03,8.69-11.51,11.68-20.58,13.71-46.41,7.92-59.95-12.88-1.08-1.66-2.8-4.05-4.28-4.1-10.44-.33-20.9-.21-31.79-.19-1.79-5.76-2.76-11.87-2.76-18.21C3.18,30.74,30.74,3.18,64.61,3.18Z"/><path class="cls-2" d="M83.79,102.29c-8.17-27.04-22.9-37.05-55.73-38.42,12.36-18.34,24.81-36.79,37.29-55.3,27.72,16.13,40.51,60.77,18.44,93.72Z"/><path class="cls-3" d="M216.78,23.18l-9.72,27.76c-.93,2.59-1.9,5.01-2.91,7.26-1.02,2.25-2.27,4.21-3.75,5.88-1.48,1.67-3.27,2.98-5.37,3.93-2.1.96-4.72,1.43-7.87,1.43h-.93c-2.96,0-5.48-.48-7.54-1.43-2.07-.96-3.87-2.27-5.41-3.93-1.54-1.67-2.85-3.62-3.93-5.88-1.08-2.25-2.08-4.67-3.01-7.26l-9.72-27.76h12.22l8.42,24.06c.62,1.73,1.2,3.33,1.76,4.81.56,1.48,1.17,2.76,1.85,3.84.68,1.08,1.45,1.91,2.31,2.5.86.59,1.88.88,3.05.88h.93c1.05,0,1.99-.31,2.82-.93.83-.62,1.6-1.47,2.31-2.54.71-1.08,1.37-2.36,1.99-3.84.62-1.48,1.23-3.05,1.85-4.72l8.42-24.06h12.22Z"/><path class="cls-3" d="M324.13,33.36h-36.74c-3.64,0-6.22.9-7.73,2.68-1.51,1.79-2.27,4.16-2.27,7.13v6.29c0,2.96.75,5.34,2.27,7.13,1.51,1.79,4.09,2.68,7.73,2.68h36.74v10.18h-39.79c-2.78,0-5.31-.45-7.59-1.34-2.28-.89-4.23-2.14-5.83-3.75-1.6-1.6-2.85-3.55-3.75-5.83-.9-2.28-1.34-4.81-1.34-7.59v-9.25c0-2.78.45-5.31,1.34-7.59.89-2.28,2.14-4.23,3.75-5.83,1.6-1.6,3.55-2.85,5.83-3.75,2.28-.89,4.81-1.34,7.59-1.34h39.79v10.18ZM303.49,50.67h-34.33v-8.79h34.33v8.79Z"/><path class="cls-3" d="M387.52,48.82c0,6.97,3.48,10.46,10.46,10.46h27.02v10.18h-30.54c-2.78,0-5.31-.45-7.59-1.34-2.28-.89-4.23-2.14-5.83-3.75-1.6-1.6-2.85-3.55-3.75-5.83-.9-2.28-1.34-4.81-1.34-7.59v-27.76h11.57v25.63Z"/><path class="cls-3" d="M477.75,69.46v-27.76c0-2.78.45-5.31,1.34-7.59.89-2.28,2.14-4.23,3.75-5.83,1.6-1.6,3.55-2.85,5.83-3.75,2.28-.89,4.81-1.34,7.59-1.34h23.14c2.78,0,5.31.45,7.59,1.34,2.28.9,4.22,2.14,5.83,3.75,1.6,1.61,2.85,3.55,3.75,5.83.89,2.28,1.34,4.81,1.34,7.59v27.76h-11.57v-12.68h-37.02v12.68h-11.57ZM526.33,47.99v-2.59c0-3.64-.93-6.55-2.78-8.75-1.85-2.19-4.29-3.29-7.31-3.29h-16.75c-3.09,0-5.55,1.1-7.4,3.29-1.85,2.19-2.78,5.11-2.78,8.75v2.59h37.02Z"/><path class="cls-3" d="M163.45,105.86l6.05-15.06h2.3l6.15,15.06h-2.32l-1.36-3.4h-7.19l-1.33,3.4h-2.3ZM173.52,100.52l-2.88-7.08-2.84,7.08h5.72Z"/><path class="cls-3" d="M207.02,91.72c1.1-.75,2.47-1.12,4.09-1.12,1.99,0,3.77.57,5.31,1.7v2.32c-1.74-1.29-3.51-1.94-5.31-1.94-1.03,0-1.88.19-2.55.58-.67.39-1,.93-1,1.64,0,.6.31,1.06.93,1.37.62.31,1.58.61,2.88.91.86.2,1.59.41,2.18.62.6.22,1.17.5,1.73.84s.98.78,1.26,1.3c.28.52.42,1.13.42,1.82,0,1.35-.54,2.4-1.62,3.14-1.08.75-2.43,1.12-4.04,1.12-1.11,0-2.09-.14-2.96-.41-.87-.27-1.83-.69-2.87-1.25v-2.35c1.88,1.26,3.83,1.89,5.85,1.89,1.03,0,1.86-.19,2.5-.56.63-.37.95-.9.95-1.59,0-.62-.28-1.11-.83-1.47s-1.41-.69-2.57-.96c-1.92-.49-3.22-.91-3.89-1.27-1.42-.73-2.13-1.82-2.13-3.27,0-1.29.56-2.32,1.68-3.08Z"/><path class="cls-3" d="M246.17,91.72c1.1-.75,2.47-1.12,4.09-1.12,1.99,0,3.77.57,5.31,1.7v2.32c-1.74-1.29-3.51-1.94-5.31-1.94-1.03,0-1.88.19-2.55.58-.67.39-1,.93-1,1.64,0,.6.31,1.06.93,1.37.62.31,1.58.61,2.88.91.86.2,1.59.41,2.18.62.6.22,1.17.5,1.73.84s.98.78,1.26,1.3c.28.52.42,1.13.42,1.82,0,1.35-.54,2.4-1.62,3.14-1.08.75-2.43,1.12-4.04,1.12-1.11,0-2.09-.14-2.96-.41-.87-.27-1.83-.69-2.87-1.25v-2.35c1.88,1.26,3.83,1.89,5.85,1.89,1.03,0,1.86-.19,2.5-.56.63-.37.95-.9.95-1.59,0-.62-.28-1.11-.83-1.47s-1.41-.69-2.57-.96c-1.92-.49-3.22-.91-3.89-1.27-1.42-.73-2.13-1.82-2.13-3.27,0-1.29.56-2.32,1.68-3.08Z"/><path class="cls-3" d="M284.02,103.77v-12.98h10.63v2.07h-8.41v4.45h7.55v2.02h-7.55v4.45h8.41v2.07h-9.43l-1.2-2.09Z"/><path class="cls-3" d="M324.09,91.72c1.1-.75,2.47-1.12,4.09-1.12,1.99,0,3.77.57,5.31,1.7v2.32c-1.74-1.29-3.51-1.94-5.31-1.94-1.03,0-1.88.19-2.55.58-.67.39-1,.93-1,1.64,0,.6.31,1.06.93,1.37.62.31,1.58.61,2.88.91.86.2,1.59.41,2.18.62.6.22,1.17.5,1.73.84s.98.78,1.26,1.3c.28.52.42,1.13.42,1.82,0,1.35-.54,2.4-1.62,3.14-1.08.75-2.43,1.12-4.04,1.12-1.11,0-2.09-.14-2.96-.41-.87-.27-1.83-.69-2.87-1.25v-2.35c1.88,1.26,3.83,1.89,5.85,1.89,1.03,0,1.86-.19,2.5-.56.63-.37.95-.9.95-1.59,0-.62-.28-1.11-.83-1.47s-1.41-.69-2.57-.96c-1.92-.49-3.22-.91-3.89-1.27-1.42-.73-2.13-1.82-2.13-3.27,0-1.29.56-2.32,1.68-3.08Z"/><path class="cls-3" d="M363.23,91.72c1.1-.75,2.47-1.12,4.09-1.12,1.99,0,3.77.57,5.31,1.7v2.32c-1.74-1.29-3.51-1.94-5.31-1.94-1.03,0-1.88.19-2.55.58-.67.39-1,.93-1,1.64,0,.6.31,1.06.93,1.37.62.31,1.58.61,2.88.91.86.2,1.59.41,2.18.62.6.22,1.17.5,1.73.84s.98.78,1.26,1.3c.28.52.42,1.13.42,1.82,0,1.35-.54,2.4-1.62,3.14-1.08.75-2.43,1.12-4.04,1.12-1.11,0-2.09-.14-2.96-.41-.87-.27-1.83-.69-2.87-1.25v-2.35c1.88,1.26,3.83,1.89,5.85,1.89,1.03,0,1.86-.19,2.5-.56.63-.37.95-.9.95-1.59,0-.62-.28-1.11-.83-1.47s-1.41-.69-2.57-.96c-1.92-.49-3.22-.91-3.89-1.27-1.42-.73-2.13-1.82-2.13-3.27,0-1.29.56-2.32,1.68-3.08Z"/><path class="cls-3" d="M403.23,90.8l6.03,11.96,5.94-11.96h2.17v15.06h-2.15v-10.74l-5.31,10.74h-1.38l-5.29-10.76v10.76h-2.15v-15.06h2.15Z"/><path class="cls-3" d="M445.73,103.77v-12.98h10.63v2.07h-8.41v4.45h7.55v2.02h-7.55v4.45h8.41v2.07h-9.43l-1.2-2.09Z"/><path class="cls-3" d="M486.79,90.8l8.26,11.71v-11.71h2.15v15.06h-2.22l-8.26-11.73v11.73h-2.15v-15.06h2.22Z"/><path class="cls-3" d="M525.12,90.8h12.07v2.07h-4.84v13h-2.22v-13h-5.01v-2.07Z"/></g></svg>