<?xml version="1.0" encoding="UTF-8"?><svg id="Camada_2" xmlns="http://www.w3.org/2000/svg" xmlns:xlink="http://www.w3.org/1999/xlink" viewBox="0 0 129.22 129.22"><defs><style>.cls-1{fill:url(#Gradiente_sem_nome_20);}.cls-1,.cls-2{stroke-width:0px;}.cls-2{fill:url(#Gradiente_sem_nome_12);}</style><linearGradient id="Gradiente_sem_nome_20" x1="183.74" y1="27.33" x2="-123.31" y2="123.41" gradientUnits="userSpaceOnUse"><stop offset="0" stop-color="#f42621"/><stop offset="1" stop-color="#fbe42e"/></linearGradient><linearGradient id="Gradiente_sem_nome_12" x1="-504.13" y1="173.42" x2="-703.91" y2="244.95" gradientTransform="translate(601.66 -254.52) rotate(-11.38)" gradientUnits="userSpaceOnUse"><stop offset="0" stop-color="#f42621"/><stop offset=".71" stop-color="#fbe42e"/></linearGradient></defs><g id="Camada_1-2"><path class="cls-1" d="M64.61,0C28.98,0,0,28.98,0,64.61s28.98,64.61,64.61,64.61,64.61-28.98,64.61-64.61S100.23,0,64.61,0ZM64.61,3.18c33.87,0,61.42,27.55,61.42,61.42,0,6.34-.97,12.47-2.76,18.23-4.3-.8-7.06,1.39-9.8,5.48-3,4.48-7.03,8.69-11.51,11.68-20.58,13.71-46.41,7.92-59.95-12.88-1.08-1.66-2.8-4.05-4.28-4.1-10.44-.33-20.9-.21-31.79-.19-1.79-5.76-2.76-11.87-2.76-18.21C3.18,30.74,30.74,3.18,64.61,3.18Z"/><path class="cls-2" d="M83.79,102.29c-8.17-27.04-22.9-37.05-55.73-38.42,12.36-18.34,24.81-36.79,37.29-55.3,27.72,16.13,40.51,60.77,18.44,93.72Z"/></g></svg>