<svg width="544" height="106" xmlns="http://www.w3.org/2000/svg" xmlns:xlink="http://www.w3.org/1999/xlink" xml:space="preserve" overflow="hidden"><defs><clipPath id="clip0"><rect x="150" y="311" width="544" height="106"/></clipPath></defs><g clip-path="url(#clip0)" transform="translate(-150 -311)"><path d="M92.8195 0 27.058 0C12.1383 0 0 12.1383 0 27.058 0 41.9777 12.1383 54.116 27.058 54.116L32.5466 54.116C32.5938 54.116 32.6411 54.116 32.6884 54.116L50.5245 54.116C52.6511 54.0418 54.3186 52.2528 54.2376 50.1194 54.1633 47.9929 52.3743 46.3186 50.241 46.4064L27.058 46.4064C16.3914 46.4064 7.70965 37.7246 7.70965 27.058 7.70965 16.3914 16.3914 7.7164 27.058 7.7164L92.8195 7.7164C103.486 7.7164 112.168 16.3982 112.168 27.0648 112.168 30.4943 111.263 33.8563 109.549 36.793L76.5496 88.7014C76.5496 88.7014 76.5226 88.7487 76.5024 88.7757 72.9581 94.6221 66.7674 98.1123 59.9422 98.1123 53.1169 98.1123 46.9262 94.6221 43.3482 88.7217L36.1921 77.3327 50.5988 77.3327C65.5185 77.3327 77.6568 65.1944 77.6568 50.2747 77.6568 35.355 65.5185 23.2167 50.5988 23.2167L28.7593 23.2167C26.626 23.2167 24.9044 24.945 24.9044 27.0715 24.9044 29.1981 26.6327 30.9263 28.7593 30.9263L50.592 30.9263C61.2586 30.9263 69.9404 39.6081 69.9404 50.2747 69.9404 60.9413 61.2586 69.6231 50.592 69.6231L29.2048 69.6231C27.8006 69.6231 26.5044 70.386 25.8293 71.6146 25.1475 72.8433 25.1947 74.342 25.9374 75.5302L36.7795 92.7723C41.7347 100.948 50.3895 105.829 59.9354 105.829 69.4813 105.829 78.1159 100.961 83.0711 92.806L116.09 40.8773C116.117 40.8368 116.137 40.8031 116.158 40.7626 118.588 36.6242 119.871 31.8917 119.871 27.0715 119.871 12.1518 107.732 0.013502 92.8128 0.013502Z" fill="#1618FF" transform="matrix(1.00591 0 0 1 150 311.089)"/><path d="M131.901 49.3566 133.845 45.9203C134.176 45.3802 134.959 45.468 135.25 45.6705 135.412 45.7515 138.396 47.9456 141.123 47.9456 142.777 47.9456 143.979 46.9127 143.979 45.4613 143.979 43.7262 142.527 42.3963 139.719 41.2824 136.161 39.8782 131.692 37.1035 131.692 32.1415 131.692 28.0437 134.878 23.9053 141.251 23.9053 145.552 23.9053 148.866 26.0994 150.109 27.0108 150.601 27.3011 150.52 28.0437 150.358 28.334L148.252 31.5204C147.962 31.9727 147.219 32.3508 146.848 32.0605 146.477 31.8512 143.452 29.5761 140.934 29.5761 139.442 29.5761 138.328 30.5685 138.328 31.6892 138.328 33.2217 139.57 34.3761 142.838 35.7061 146.065 36.9887 151.195 39.5136 151.195 45.1372 151.195 49.3971 147.509 53.7042 141.427 53.7042 136.046 53.7042 133.069 51.4696 132.117 50.5178 131.705 50.1059 131.577 49.9372 131.908 49.3566Z" fill="#181D24" transform="matrix(1.00591 0 0 1 150 311.089)"/><path d="M155.82 25.1137C155.82 24.7019 156.191 24.3239 156.603 24.3239L161.693 24.3239C162.152 24.3239 162.483 24.6952 162.483 25.1137L162.483 41.8697C162.483 44.7659 164.637 47.0815 167.573 47.0815 170.51 47.0815 172.745 44.7659 172.745 41.8697L172.745 25.1137C172.745 24.7019 173.075 24.3239 173.528 24.3239L178.618 24.3239C179.03 24.3239 179.401 24.6952 179.401 25.1137L179.401 42.2005C179.401 48.4925 174.102 53.7042 167.567 53.7042 161.032 53.7042 155.813 48.4925 155.813 42.2005L155.813 25.1137Z" fill="#181D24" transform="matrix(1.00591 0 0 1 150 311.089)"/><path d="M198.898 23.9121C203.036 23.9121 206.101 25.1947 208.91 27.7601 209.281 28.0909 209.281 28.5905 208.95 28.9213L205.723 32.2698C205.433 32.5601 204.981 32.5601 204.69 32.2698 203.158 30.9061 201.133 30.1567 199.107 30.1567 194.429 30.1567 190.999 34.0453 190.999 38.6832 190.999 43.3212 194.476 47.0815 199.148 47.0815 201.092 47.0815 203.205 46.3794 204.69 45.0967 204.981 44.8469 205.521 44.8469 205.764 45.1372L208.991 48.5735C209.281 48.8638 209.241 49.4038 208.95 49.6874 206.135 52.4215 202.577 53.7042 198.898 53.7042 190.621 53.7042 183.958 47.1287 183.958 38.852 183.958 30.5753 190.621 23.9121 198.898 23.9121Z" fill="#181D24" transform="matrix(1.00591 0 0 1 150 311.089)"/><path d="M213.919 25.1137C213.919 24.7019 214.25 24.3239 214.702 24.3239L231.829 24.3239C232.282 24.3239 232.613 24.6952 232.613 25.1137L232.613 29.6234C232.613 30.0352 232.282 30.4133 231.829 30.4133L220.366 30.4133 220.366 35.544 229.797 35.544C230.209 35.544 230.58 35.9153 230.58 36.3339L230.58 40.8436C230.58 41.2959 230.209 41.6334 229.797 41.6334L220.366 41.6334 220.366 47.2165 231.829 47.2165C232.282 47.2165 232.613 47.5878 232.613 47.9996L232.613 52.5093C232.613 52.9211 232.282 53.2924 231.829 53.2924L214.702 53.2924C214.25 53.2924 213.919 52.9211 213.919 52.5093L213.919 25.1137Z" fill="#181D24" transform="matrix(1.00591 0 0 1 150 311.089)"/><path d="M236.515 49.3566 238.459 45.9203C238.79 45.3802 239.573 45.468 239.863 45.6705 240.025 45.7515 243.009 47.9456 245.736 47.9456 247.391 47.9456 248.592 46.9127 248.592 45.4613 248.592 43.7262 247.141 42.3963 244.332 41.2824 240.775 39.8782 236.305 37.1035 236.305 32.1415 236.305 28.0437 239.492 23.9053 245.865 23.9053 250.165 23.9053 253.48 26.0994 254.722 27.0108 255.215 27.3011 255.134 28.0437 254.972 28.334L252.866 31.5204C252.575 31.9727 251.833 32.3508 251.461 32.0605 251.09 31.8512 248.066 29.5761 245.547 29.5761 244.056 29.5761 242.942 30.5685 242.942 31.6892 242.942 33.2217 244.184 34.3761 247.451 35.7061 250.678 36.9887 255.809 39.5136 255.809 45.1372 255.809 49.3971 252.123 53.7042 246.04 53.7042 240.66 53.7042 237.683 51.4696 236.731 50.5178 236.319 50.1059 236.191 49.9372 236.521 49.3566Z" fill="#181D24" transform="matrix(1.00591 0 0 1 150 311.089)"/><path d="M259.191 49.3566 261.136 45.9203C261.466 45.3802 262.249 45.468 262.54 45.6705 262.702 45.7515 265.686 47.9456 268.413 47.9456 270.067 47.9456 271.269 46.9127 271.269 45.4613 271.269 43.7262 269.817 42.3963 267.009 41.2824 263.451 39.8782 258.982 37.1035 258.982 32.1415 258.982 28.0437 262.168 23.9053 268.541 23.9053 272.842 23.9053 276.157 26.0994 277.399 27.0108 277.898 27.3011 277.811 28.0437 277.648 28.334L275.535 31.5204C275.245 31.9727 274.503 32.3508 274.131 32.0605 273.76 31.8512 270.735 29.5761 268.217 29.5761 266.725 29.5761 265.611 30.5685 265.611 31.6892 265.611 33.2217 266.854 34.3761 270.121 35.7061 273.348 36.9887 278.479 39.5136 278.479 45.1372 278.479 49.3971 274.8 53.7042 268.717 53.7042 263.336 53.7042 260.359 51.4696 259.407 50.5178 258.995 50.1059 258.867 49.9372 259.198 49.3566Z" fill="#181D24" transform="matrix(1.00591 0 0 1 150 311.089)"/><path d="M296.261 23.9121C304.538 23.9121 311.16 30.5753 311.16 38.852 311.16 47.1287 304.538 53.7042 296.261 53.7042 287.984 53.7042 281.409 47.1287 281.409 38.852 281.409 30.5753 287.991 23.9121 296.261 23.9121ZM296.261 47.0815C300.811 47.0815 304.538 43.3549 304.538 38.8453 304.538 34.3356 300.811 30.528 296.261 30.528 291.711 30.528 288.025 34.2951 288.025 38.8453 288.025 43.3954 291.751 47.0815 296.261 47.0815Z" fill="#181D24" transform="matrix(1.00591 0 0 1 150 311.089)"/><path d="M114.976 65.3632C114.976 65.0122 115.26 64.6881 115.645 64.6881L129.572 64.6881C129.964 64.6881 130.247 65.0054 130.247 65.3632L130.247 66.3894C130.247 66.7404 129.964 67.0645 129.572 67.0645L117.69 67.0645 117.69 75.6922 127.837 75.6922C128.188 75.6922 128.512 76.0095 128.512 76.3673L128.512 77.3935C128.512 77.7851 128.195 78.0618 127.837 78.0618L117.69 78.0618 117.69 87.0744 129.572 87.0744C129.964 87.0744 130.247 87.3917 130.247 87.7495L130.247 88.7757C130.247 89.1267 129.964 89.444 129.572 89.444L115.645 89.444C115.253 89.444 114.976 89.1267 114.976 88.7757L114.976 65.37Z" fill="#181D24" transform="matrix(1.00591 0 0 1 150 311.089)"/><path d="M138.706 64.8366C138.774 64.5531 139.057 64.3438 139.341 64.3438L139.908 64.3438C140.158 64.3438 140.441 64.5193 140.509 64.7354L147.509 84.2188 147.685 84.2188 154.578 64.7354C154.652 64.5261 154.929 64.3438 155.179 64.3438L155.746 64.3438C156.029 64.3438 156.313 64.5531 156.38 64.8366L160.944 88.5934C161.052 89.0862 160.836 89.444 160.309 89.444L158.898 89.444C158.615 89.444 158.331 89.1942 158.264 88.9512L155.118 70.7438 154.976 70.7438 148.468 89.4103C148.401 89.6196 148.076 89.8018 147.867 89.8018L147.233 89.8018C147.023 89.8018 146.699 89.6263 146.632 89.4103L140.056 70.7438 139.915 70.7438 136.836 88.9512C136.802 89.201 136.485 89.444 136.201 89.444L134.791 89.444C134.257 89.444 134.048 89.093 134.156 88.5934L138.72 64.8366Z" fill="#181D24" transform="matrix(1.00591 0 0 1 150 311.089)"/><path d="M170.881 65.613C170.672 65.1539 170.956 64.6949 171.482 64.6949L172.893 64.6949C173.21 64.6949 173.427 64.9041 173.494 65.0864L182.297 84.8871 182.439 84.8871 191.242 65.0864C191.31 64.9109 191.56 64.6949 191.843 64.6949L193.254 64.6949C193.781 64.6949 194.064 65.1539 193.855 65.613L183.107 89.4103C182.999 89.6196 182.79 89.8018 182.507 89.8018L182.156 89.8018C181.906 89.8018 181.663 89.6263 181.555 89.4103L170.875 65.613Z" fill="#181D24" transform="matrix(1.00591 0 0 1 150 311.089)"/><path d="M197.717 65.3632C197.717 65.0122 198 64.6881 198.385 64.6881L212.312 64.6881C212.704 64.6881 212.987 65.0054 212.987 65.3632L212.987 66.3894C212.987 66.7404 212.704 67.0645 212.312 67.0645L200.431 67.0645 200.431 75.6922 210.577 75.6922C210.928 75.6922 211.252 76.0095 211.252 76.3673L211.252 77.3935C211.252 77.7851 210.935 78.0618 210.577 78.0618L200.431 78.0618 200.431 87.0744 212.312 87.0744C212.704 87.0744 212.987 87.3917 212.987 87.7495L212.987 88.7757C212.987 89.1267 212.704 89.444 212.312 89.444L198.385 89.444C197.993 89.444 197.717 89.1267 197.717 88.7757L197.717 65.37Z" fill="#181D24" transform="matrix(1.00591 0 0 1 150 311.089)"/><path d="M218.651 64.9784C218.651 64.6273 218.969 64.3438 219.32 64.3438L220.204 64.3438 236.15 84.212 236.218 84.212 236.218 65.37C236.218 65.0189 236.501 64.6949 236.893 64.6949L238.128 64.6949C238.479 64.6949 238.803 65.0122 238.803 65.37L238.803 89.1672C238.803 89.5183 238.486 89.8018 238.128 89.8018L237.494 89.8018 221.264 69.5421 221.23 69.5421 221.23 88.7757C221.23 89.1267 220.947 89.444 220.562 89.444L219.327 89.444C218.976 89.444 218.658 89.1267 218.658 88.7757L218.658 64.9784Z" fill="#181D24" transform="matrix(1.00591 0 0 1 150 311.089)"/><path d="M246.02 65.3632C246.02 65.0122 246.304 64.6881 246.655 64.6881L254.574 64.6881C261.399 64.6881 266.982 70.2374 266.982 77.0289 266.982 83.8204 261.392 89.4373 254.574 89.4373L246.655 89.4373C246.304 89.4373 246.02 89.12 246.02 88.7689L246.02 65.3632ZM254.013 87.0002C259.812 87.0002 264.018 82.8618 264.018 77.0289 264.018 71.1961 259.812 67.0915 254.013 67.0915L248.707 67.0915 248.707 87.0002 254.013 87.0002Z" fill="#181D24" transform="matrix(1.00591 0 0 1 150 311.089)"/><path d="M268.892 88.5259 279.64 64.7286C279.748 64.5193 279.924 64.3371 280.241 64.3371L280.592 64.3371C280.909 64.3371 281.085 64.5126 281.193 64.7286L291.873 88.5259C292.082 88.985 291.805 89.444 291.272 89.444L289.861 89.444C289.544 89.444 289.328 89.2347 289.26 89.0525L286.641 83.2196 274.091 83.2196 271.512 89.0525C271.444 89.228 271.228 89.444 270.911 89.444L269.5 89.444C268.967 89.444 268.69 88.985 268.899 88.5259ZM285.689 81.0323C283.954 77.1775 282.259 73.2889 280.524 69.4341L280.241 69.4341 275.076 81.0323 285.682 81.0323Z" fill="#181D24" transform="matrix(1.00591 0 0 1 150 311.089)"/><path d="M294.141 85.731C294.317 85.5217 294.492 85.2719 294.674 85.0559 295.026 84.5968 295.417 84.3133 295.91 84.7386 296.16 84.9479 298.739 87.4255 301.885 87.4255 304.747 87.4255 306.624 85.623 306.624 83.5369 306.624 81.0998 304.504 79.6483 300.44 77.9471 296.551 76.2526 294.215 74.6593 294.215 70.629 294.215 68.2256 296.126 64.3371 301.743 64.3371 305.206 64.3371 307.792 66.1396 307.792 66.1396 308.001 66.2476 308.426 66.6729 308.001 67.3413 307.859 67.5505 307.717 67.8003 307.576 68.0163 307.258 68.5092 306.901 68.6509 306.34 68.3336 306.09 68.1919 303.863 66.7067 301.709 66.7067 297.962 66.7067 296.828 69.11 296.828 70.5952 296.828 72.9648 298.631 74.342 301.601 75.5775 306.374 77.5218 309.452 79.3243 309.452 83.4289 309.452 87.1082 305.955 89.7951 301.817 89.7951 297.679 89.7951 294.816 87.358 294.357 86.9327 294.074 86.6829 293.723 86.3993 294.148 85.731Z" fill="#181D24" transform="matrix(1.00591 0 0 1 150 311.089)"/><path d="M403.44 24.3509 403.44 25.7416 398.782 25.7416 398.782 38.8655 397.391 38.8655 397.391 25.7416 392.733 25.7416 392.733 24.3509 403.433 24.3509Z" fill="#181D24" transform="matrix(1.00591 0 0 1 150 311.089)"/><path d="M409.253 30.5618C408.766 30.3323 408.179 30.2242 407.821 30.2242 405.823 30.2242 404.999 32.5803 404.999 35.193L404.999 38.8588 403.588 38.8588 403.588 29.0226 404.999 29.0226 404.999 31.2571C405.485 29.5694 406.39 28.8133 407.821 28.8133 408.496 28.8133 409.232 29.0226 409.421 29.1913L409.253 30.5618Z" fill="#181D24" transform="matrix(1.00591 0 0 1 150 311.089)"/><path d="M420.709 38.8655 419.298 38.8655 419.298 37.1778C418.562 38.42 417.023 39.0748 415.592 39.0748 412.79 39.0748 410.555 37.0292 410.555 33.917 410.555 30.8048 412.79 28.82 415.592 28.82 417.023 28.82 418.562 29.4074 419.298 30.6496L419.298 29.0293 420.709 29.0293 420.709 38.8655ZM415.592 37.6638C417.617 37.6638 419.298 36.3609 419.298 33.917 419.298 31.4732 417.36 30.231 415.592 30.231 413.546 30.231 411.966 31.6622 411.966 33.917 411.966 36.1719 413.546 37.6638 415.592 37.6638Z" fill="#181D24" transform="matrix(1.00591 0 0 1 150 311.089)"/><path d="M425.536 38.8655 424.125 38.8655 424.125 29.0293 425.536 29.0293 425.536 30.6496C426.144 29.3669 427.663 28.82 428.803 28.82 431.227 28.82 432.618 30.4403 432.597 33.1407L432.597 38.8723 431.187 38.8723 431.187 33.1407C431.187 31.3112 430.322 30.2107 428.803 30.2107 427.284 30.2107 425.536 31.0951 425.536 33.4985L425.536 38.8723Z" fill="#181D24" transform="matrix(1.00591 0 0 1 150 311.089)"/><path d="M436.338 36.0436C436.506 36.7997 436.992 37.7516 438.653 37.7516 439.916 37.7516 440.739 37.117 440.739 36.1921 440.739 35.5373 440.361 34.9297 439.328 34.6731L437.958 34.3559C436.756 34.0791 435.197 33.4512 435.473 31.1559 435.703 29.7449 437.073 28.82 438.673 28.82 440.273 28.82 441.495 29.5761 441.772 31.3719L440.402 31.3719C440.233 30.6158 439.517 30.1702 438.673 30.1702 437.728 30.1702 436.945 30.6766 436.844 31.3719 436.614 32.4858 437.62 32.8436 438.295 33.0124L439.646 33.3297C441.502 33.7753 442.13 34.8487 442.13 36.1921 442.13 37.9001 440.57 39.0816 438.525 39.0816 436.884 39.0816 435.156 37.9879 435.089 36.0504L436.331 36.0504Z" fill="#181D24" transform="matrix(1.00591 0 0 1 150 311.089)"/><path d="M450.116 25.026 449.063 25.026C447.166 25.026 447.038 26.5854 447.038 27.8884L447.038 29.0293 449.462 29.0293 449.462 30.2917 447.038 30.2917 447.038 38.8655 445.627 38.8655 445.627 30.2917 443.71 30.2917 443.71 29.0293 445.627 29.0293 445.627 27.8884C445.627 25.5323 446.451 23.696 449.063 23.696L450.116 23.696 450.116 25.026Z" fill="#181D24" transform="matrix(1.00591 0 0 1 150 311.089)"/><path d="M450.872 33.917C450.872 30.7981 453.208 28.82 456.01 28.82 458.812 28.82 461.147 30.7981 461.147 33.917 461.147 37.036 458.812 39.0748 456.01 39.0748 453.208 39.0748 450.872 37.0292 450.872 33.917ZM459.764 33.917C459.764 31.6419 458.056 30.2107 456.017 30.2107 453.978 30.2107 452.27 31.6419 452.27 33.917 452.27 36.1921 453.978 37.6908 456.017 37.6908 458.056 37.6908 459.764 36.1921 459.764 33.917Z" fill="#181D24" transform="matrix(1.00591 0 0 1 150 311.089)"/><path d="M469.553 30.5618C469.066 30.3323 468.479 30.2242 468.121 30.2242 466.123 30.2242 465.299 32.5803 465.299 35.193L465.299 38.8588 463.888 38.8588 463.888 29.0226 465.299 29.0226 465.299 31.2571C465.785 29.5694 466.69 28.8133 468.121 28.8133 468.796 28.8133 469.532 29.0226 469.721 29.1913L469.553 30.5618Z" fill="#181D24" transform="matrix(1.00591 0 0 1 150 311.089)"/><path d="M480.293 38.8655 478.882 38.8655 478.882 33.1339C478.882 31.3044 478.018 30.204 476.499 30.204 474.98 30.204 473.232 31.0884 473.232 33.4917L473.232 38.8655 471.821 38.8655 471.821 29.0293 473.232 29.0293 473.232 30.6496C473.839 29.3669 475.588 28.82 476.499 28.82 478.187 28.82 479.341 29.5964 479.915 30.9668 480.82 29.1103 482.568 28.82 483.561 28.82 485.984 28.82 487.375 30.4403 487.355 33.1407L487.355 38.8723 485.944 38.8723 485.944 33.1407C485.944 31.3112 485.08 30.2107 483.561 30.2107 482.042 30.2107 480.293 31.0951 480.293 33.4985L480.293 38.8723Z" fill="#181D24" transform="matrix(1.00591 0 0 1 150 311.089)"/><path d="M500.114 38.8655 498.703 38.8655 498.703 37.1778C497.967 38.42 496.428 39.0748 494.997 39.0748 492.195 39.0748 489.961 37.0292 489.961 33.917 489.961 30.8048 492.195 28.82 494.997 28.82 496.428 28.82 497.967 29.4074 498.703 30.6496L498.703 29.0293 500.114 29.0293 500.114 38.8655ZM494.997 37.6638C497.022 37.6638 498.703 36.3609 498.703 33.917 498.703 31.4732 496.766 30.231 494.997 30.231 492.951 30.231 491.372 31.6622 491.372 33.917 491.372 36.1719 492.951 37.6638 494.997 37.6638Z" fill="#181D24" transform="matrix(1.00591 0 0 1 150 311.089)"/><path d="M508.999 40.2967C509.485 41.4107 508.999 42.5718 507.905 43.0106 506.832 43.4562 505.738 42.9701 505.252 41.8967 505.124 41.5794 505.063 41.2824 505.063 40.9921L506.177 41.0798C506.237 41.2284 506.197 41.3296 506.258 41.4782 506.487 41.9642 507.014 42.214 507.5 42.025 508.006 41.7955 508.256 41.2216 508.026 40.7423L507.291 39.0343C504.827 38.7575 502.848 36.7795 502.848 33.917 502.848 30.7981 505.184 28.82 507.986 28.82 509.356 28.82 510.599 29.3061 511.523 30.15L510.531 31.1424C509.856 30.555 508.972 30.2175 507.979 30.2175 505.934 30.2175 504.232 31.6487 504.232 33.9238 504.232 36.1989 505.94 37.6976 507.979 37.6976 508.972 37.6976 509.836 37.3803 510.531 36.7525L511.544 37.7449C510.7 38.5212 509.667 38.9668 508.465 39.0748L508.992 40.317Z" fill="#181D24" transform="matrix(1.00591 0 0 1 150 311.089)"/><path d="M523.324 38.8655 521.913 38.8655 521.913 37.1778C521.177 38.42 519.638 39.0748 518.207 39.0748 515.405 39.0748 513.171 37.0292 513.171 33.917 513.171 30.8048 515.405 28.82 518.207 28.82 519.638 28.82 521.177 29.4074 521.913 30.6496L521.913 29.0293 523.324 29.0293 523.324 38.8655ZM518.207 37.6638C520.232 37.6638 521.913 36.3609 521.913 33.917 521.913 31.4732 519.976 30.231 518.207 30.231 516.161 30.231 514.582 31.6622 514.582 33.917 514.582 36.1719 516.161 37.6638 518.207 37.6638ZM516.877 26.626 515.804 26.626C515.912 24.8977 516.796 24.3509 517.593 24.3509 518.538 24.3509 518.875 25.2352 519.51 25.2352 519.787 25.2352 520.205 25.0462 520.226 24.3509L521.299 24.3509C521.191 26.0791 520.266 26.5652 519.51 26.5652 518.565 26.5652 518.227 25.6808 517.593 25.6808 517.316 25.6808 516.897 25.9306 516.877 26.626Z" fill="#181D24" transform="matrix(1.00591 0 0 1 150 311.089)"/><path d="M526.058 33.917C526.058 30.7981 528.394 28.82 531.196 28.82 533.998 28.82 536.333 30.7981 536.333 33.917 536.333 37.036 533.998 39.0748 531.196 39.0748 528.394 39.0748 526.058 37.0292 526.058 33.917ZM534.949 33.917C534.949 31.6419 533.241 30.2107 531.203 30.2107 529.164 30.2107 527.456 31.6419 527.456 33.917 527.456 36.1921 529.164 37.6908 531.203 37.6908 533.241 37.6908 534.949 36.1921 534.949 33.917Z" fill="#181D24" transform="matrix(1.00591 0 0 1 150 311.089)"/><path d="M537.852 41.3499C538.609 40.2765 539.243 38.8655 539.182 36.9077L540.803 36.9077C540.634 39.3516 539.668 40.9516 538.825 41.6469L537.852 41.3499Z" fill="#181D24" transform="matrix(1.00591 0 0 1 150 311.089)"/><path d="M402.515 49.6266 402.515 51.0173 395.629 51.0173 395.629 56.3236 401.651 56.3236 401.651 57.7143 395.629 57.7143 395.629 62.7506 402.751 62.7506 402.751 64.1413 394.238 64.1413 394.238 49.6266 402.515 49.6266Z" fill="#181D24" transform="matrix(1.00591 0 0 1 150 311.089)"/><path d="M405.418 54.2983 408.766 62.494 412.095 54.2983 413.593 54.2983 409.509 64.1345 408.01 64.1345 403.946 54.2983 405.418 54.2983Z" fill="#181D24" transform="matrix(1.00591 0 0 1 150 311.089)"/><path d="M414.856 59.186C414.856 56.0671 417.192 54.089 419.993 54.089 422.795 54.089 425.131 56.0671 425.131 59.186 425.131 62.305 422.795 64.3438 419.993 64.3438 417.192 64.3438 414.856 62.2983 414.856 59.186ZM423.747 59.186C423.747 56.911 422.039 55.4797 420 55.4797 417.961 55.4797 416.253 56.911 416.253 59.186 416.253 61.4611 417.961 62.9599 420 62.9599 422.039 62.9599 423.747 61.4611 423.747 59.186Z" fill="#181D24" transform="matrix(1.00591 0 0 1 150 311.089)"/><path d="M429.262 64.1413 427.872 64.1413 427.872 48.9718 429.262 48.9718 429.262 64.1413Z" fill="#181D24" transform="matrix(1.00591 0 0 1 150 311.089)"/><path d="M439.605 54.2983 441.016 54.2983 441.016 64.1345 439.605 64.1345 439.605 62.5143C438.997 63.797 437.478 64.3506 436.338 64.3506 433.914 64.3506 432.523 62.7303 432.544 60.0299L432.544 54.2983 433.954 54.2983 433.954 60.0299C433.954 61.8662 434.819 62.9599 436.338 62.9599 437.857 62.9599 439.605 62.0755 439.605 59.6721L439.605 54.2983Z" fill="#181D24" transform="matrix(1.00591 0 0 1 150 311.089)"/><path d="M449.9 65.5725C450.386 66.6864 449.9 67.8476 448.807 68.2864 447.733 68.732 446.64 68.2459 446.154 67.1725 446.025 66.8552 445.965 66.5581 445.965 66.2678L447.078 66.3556C447.139 66.5041 447.099 66.6054 447.159 66.7539 447.389 67.24 447.915 67.4898 448.402 67.3008 448.908 67.0712 449.158 66.4974 448.928 66.0181L448.192 64.3101C445.728 64.0333 443.75 62.0552 443.75 59.1928 443.75 56.0738 446.086 54.0958 448.888 54.0958 450.258 54.0958 451.5 54.5819 452.425 55.4257L451.433 56.4181C450.758 55.8308 449.873 55.4932 448.881 55.4932 446.835 55.4932 445.134 56.9245 445.134 59.1995 445.134 61.4746 446.842 62.9734 448.881 62.9734 449.873 62.9734 450.737 62.6561 451.433 62.0282L452.445 63.0206C451.602 63.797 450.569 64.2425 449.367 64.3506L449.894 65.5927Z" fill="#181D24" transform="matrix(1.00591 0 0 1 150 311.089)"/><path d="M464.226 64.1413 462.815 64.1413 462.815 62.4535C462.079 63.6957 460.54 64.3506 459.109 64.3506 456.307 64.3506 454.072 62.305 454.072 59.1928 454.072 56.0806 456.307 54.0958 459.109 54.0958 460.54 54.0958 462.079 54.6831 462.815 55.9253L462.815 54.3051 464.226 54.3051 464.226 64.1413ZM459.109 62.9396C461.134 62.9396 462.815 61.6367 462.815 59.1928 462.815 56.7489 460.877 55.5067 459.109 55.5067 457.063 55.5067 455.483 56.938 455.483 59.1928 455.483 61.4476 457.063 62.9396 459.109 62.9396ZM457.779 51.9017 456.705 51.9017C456.813 50.1735 457.698 49.6266 458.494 49.6266 459.439 49.6266 459.777 50.511 460.412 50.511 460.688 50.511 461.107 50.322 461.127 49.6266L462.201 49.6266C462.093 51.3549 461.168 51.841 460.412 51.841 459.467 51.841 459.129 50.9566 458.494 50.9566 458.218 50.9566 457.799 51.2064 457.779 51.9017Z" fill="#181D24" transform="matrix(1.00591 0 0 1 150 311.089)"/><path d="M466.96 59.186C466.96 56.0671 469.296 54.089 472.098 54.089 474.899 54.089 477.235 56.0671 477.235 59.186 477.235 62.305 474.899 64.3438 472.098 64.3438 469.296 64.3438 466.96 62.2983 466.96 59.186ZM475.851 59.186C475.851 56.911 474.143 55.4797 472.104 55.4797 470.066 55.4797 468.358 56.911 468.358 59.186 468.358 61.4611 470.066 62.9599 472.104 62.9599 474.143 62.9599 475.851 61.4611 475.851 59.186Z" fill="#181D24" transform="matrix(1.00591 0 0 1 150 311.089)"/><path d="M393.158 84.4618C393.158 81.3428 395.325 79.3648 398.127 79.3648 400.929 79.3648 402.954 81.3428 402.954 84.4618 402.954 84.6913 402.954 84.9276 402.934 85.1166L394.589 85.1166C394.819 87.0339 396.318 88.2356 398.127 88.2356 399.477 88.2356 400.591 87.601 401.205 86.5276 401.624 86.6356 402.177 86.7369 402.616 86.8449 401.793 88.6137 400.132 89.6263 398.127 89.6263 395.325 89.6263 393.158 87.5808 393.158 84.4685ZM401.523 83.8069C401.246 81.9302 399.963 80.7555 398.134 80.7555 396.304 80.7555 394.866 81.9369 394.596 83.8069L401.529 83.8069Z" fill="#181D24" transform="matrix(1.00591 0 0 1 150 311.089)"/><path d="M421.134 89.4103 419.426 89.4103 415.423 83.7462 412.979 83.7462 412.979 89.4103 411.568 89.4103 411.568 74.8956 416.962 74.8956C419.912 74.8956 420.986 77.0829 420.986 79.3378 420.986 81.5926 419.933 83.6787 417.131 83.7394L421.134 89.4035ZM412.979 76.2863 412.979 82.3555 416.854 82.3555C418.9 82.3555 419.595 80.8838 419.595 79.3445 419.595 77.8053 418.9 76.2931 416.962 76.2931L412.979 76.2931Z" fill="#181D24" transform="matrix(1.00591 0 0 1 150 311.089)"/><path d="M422.856 84.4618C422.856 81.3428 425.023 79.3648 427.825 79.3648 430.626 79.3648 432.652 81.3428 432.652 84.4618 432.652 84.6913 432.652 84.9276 432.631 85.1166L424.287 85.1166C424.517 87.0339 426.015 88.2356 427.825 88.2356 429.175 88.2356 430.289 87.601 430.903 86.5276 431.322 86.6356 431.875 86.7369 432.314 86.8449 431.49 88.6137 429.83 89.6263 427.825 89.6263 425.023 89.6263 422.856 87.5808 422.856 84.4685ZM431.22 83.8069C430.944 81.9302 429.661 80.7555 427.831 80.7555 426.002 80.7555 424.564 81.9369 424.294 83.8069L431.227 83.8069Z" fill="#181D24" transform="matrix(1.00591 0 0 1 150 311.089)"/><path d="M435.723 86.5884C435.892 87.3445 436.378 88.2964 438.039 88.2964 439.301 88.2964 440.125 87.6618 440.125 86.7369 440.125 86.082 439.747 85.4744 438.714 85.2179L437.343 84.9006C436.142 84.6238 434.582 83.996 434.859 81.7006 435.089 80.2897 436.459 79.3648 438.059 79.3648 439.659 79.3648 440.881 80.1209 441.158 81.9167L439.787 81.9167C439.619 81.1606 438.903 80.715 438.059 80.715 437.114 80.715 436.331 81.2213 436.23 81.9167 436 83.0306 437.006 83.3884 437.681 83.5572L439.031 83.8745C440.888 84.32 441.516 85.3934 441.516 86.7369 441.516 88.4449 439.956 89.6263 437.911 89.6263 436.27 89.6263 434.542 88.5326 434.474 86.5951L435.716 86.5951Z" fill="#181D24" transform="matrix(1.00591 0 0 1 150 311.089)"/><path d="M451.122 79.5741 452.533 79.5741 452.533 89.4103 451.122 89.4103 451.122 87.79C450.515 89.0727 448.996 89.6263 447.855 89.6263 445.431 89.6263 444.04 88.0061 444.061 85.3057L444.061 79.5741 445.472 79.5741 445.472 85.3057C445.472 87.1419 446.336 88.2356 447.855 88.2356 449.374 88.2356 451.122 87.3512 451.122 84.9479L451.122 79.5741Z" fill="#181D24" transform="matrix(1.00591 0 0 1 150 311.089)"/><path d="M457.333 89.4103 455.942 89.4103 455.942 74.2408 457.333 74.2408 457.333 89.4103Z" fill="#181D24" transform="matrix(1.00591 0 0 1 150 311.089)"/><path d="M461.397 89.4103 461.397 80.8365 459.629 80.8365 459.629 79.5741 461.397 79.5741 461.397 75.888 462.808 75.888 462.808 79.5741 464.894 79.5741 464.894 80.8365 462.808 80.8365 462.808 89.4103 461.397 89.4103Z" fill="#181D24" transform="matrix(1.00591 0 0 1 150 311.089)"/><path d="M476.526 89.4103 475.115 89.4103 475.115 87.7225C474.379 88.9647 472.84 89.6196 471.409 89.6196 468.607 89.6196 466.373 87.574 466.373 84.4618 466.373 81.3496 468.607 79.3648 471.409 79.3648 472.84 79.3648 474.379 79.9521 475.115 81.1943L475.115 79.5741 476.526 79.5741 476.526 89.4103ZM471.409 88.2086C473.434 88.2086 475.115 86.9057 475.115 84.4618 475.115 82.0179 473.178 80.7757 471.409 80.7757 469.363 80.7757 467.784 82.207 467.784 84.4618 467.784 86.7166 469.363 88.2086 471.409 88.2086Z" fill="#181D24" transform="matrix(1.00591 0 0 1 150 311.089)"/><path d="M489.414 89.4103 488.003 89.4103 488.003 87.7225C487.267 88.9647 485.728 89.6196 484.297 89.6196 481.495 89.6196 479.26 87.574 479.26 84.4618 479.26 81.3496 481.495 79.3648 484.297 79.3648 485.728 79.3648 487.267 79.9521 488.003 81.1943L488.003 74.2408 489.414 74.2408 489.414 89.4103ZM484.297 88.2086C486.322 88.2086 488.003 86.9057 488.003 84.4618 488.003 82.0179 486.065 80.7757 484.297 80.7757 482.251 80.7757 480.671 82.207 480.671 84.4618 480.671 86.7166 482.251 88.2086 484.297 88.2086Z" fill="#181D24" transform="matrix(1.00591 0 0 1 150 311.089)"/><path d="M492.148 84.4618C492.148 81.3428 494.484 79.3648 497.286 79.3648 500.087 79.3648 502.423 81.3428 502.423 84.4618 502.423 87.5808 500.087 89.6196 497.286 89.6196 494.484 89.6196 492.148 87.574 492.148 84.4618ZM501.039 84.4618C501.039 82.1867 499.331 80.7555 497.292 80.7555 495.254 80.7555 493.546 82.1867 493.546 84.4618 493.546 86.7369 495.254 88.2356 497.292 88.2356 499.331 88.2356 501.039 86.7369 501.039 84.4618Z" fill="#181D24" transform="matrix(1.00591 0 0 1 150 311.089)"/><path d="M505.63 86.5884C505.799 87.3445 506.285 88.2964 507.945 88.2964 509.208 88.2964 510.031 87.6618 510.031 86.7369 510.031 86.082 509.653 85.4744 508.621 85.2179L507.25 84.9006C506.048 84.6238 504.489 83.996 504.766 81.7006 504.995 80.2897 506.366 79.3648 507.966 79.3648 509.566 79.3648 510.788 80.1209 511.064 81.9167L509.694 81.9167C509.525 81.1606 508.81 80.715 507.966 80.715 507.021 80.715 506.237 81.2213 506.136 81.9167 505.907 83.0306 506.913 83.3884 507.588 83.5572L508.938 83.8745C510.794 84.32 511.422 85.3934 511.422 86.7369 511.422 88.4449 509.863 89.6263 507.817 89.6263 506.177 89.6263 504.448 88.5326 504.381 86.5951L505.623 86.5951Z" fill="#181D24" transform="matrix(1.00591 0 0 1 150 311.089)"/><path d="M351.801 37.063 353.152 37.063 353.152 75.9353 351.801 75.9353Z" fill="#1618FF" transform="matrix(1.00591 0 0 1 150 311.089)"/></g></svg>