<?xml version="1.0" encoding="utf-8"?>
<!-- Generator: Adobe Illustrator 28.2.0, SVG Export Plug-In . SVG Version: 6.00 Build 0)  -->
<svg version="1.0" id="Camada_1" xmlns="http://www.w3.org/2000/svg" xmlns:xlink="http://www.w3.org/1999/xlink" x="0px" y="0px"
	 viewBox="0 0 841.9 595.3" style="enable-background:new 0 0 841.9 595.3;" xml:space="preserve">
<style type="text/css">
	.st0{fill:#FFFFFF;}
	.st1{fill:#1717FF;}
	.st2{fill:url(#SVGID_1_);}
	.st3{fill:url(#SVGID_00000106839409395798895400000007140113047174987175_);}
	.st4{fill:#FF7730;}
	.st5{fill:url(#SVGID_00000038380867987768901910000010127530777047439779_);}
	.st6{fill:url(#SVGID_00000124136016186396144770000013411833910051363209_);}
	.st7{fill:url(#SVGID_00000024679954930832188460000007352295477411660964_);}
</style>
<g>
	<g>
		<g>
			<path class="st0" d="M191.1,297.6c0,32.6-27.1,58.8-59.9,57.6c-31.2-1.2-55.4-27.8-55.4-59l0-81.2H51.4c-1.3,0-2.3-1-2.3-2.3
				v-13.1c0-7.3,5.9-13.2,13.2-13.2h37.2c2.7,0,4.9,2.2,4.9,4.9v106.3c0,16.3,13.5,29.5,29.8,29c15.1-0.4,27.7-13,28.1-28.2
				c0.4-14.9-10.4-27.4-24.7-29.5c-2.5-0.4-4.3-2.4-4.3-4.9l0-24.1C165.2,240,191.1,265.8,191.1,297.6z"/>
		</g>
		<g>
			<path class="st0" d="M133.4,408.9c-46.6,0-84.5-37.9-84.5-84.5S86.8,240,133.4,240v8c-42.2,0-76.5,34.3-76.5,76.5
				s34.3,76.5,76.5,76.5V408.9z"/>
		</g>
		<g>
			<path class="st0" d="M244.7,297.6c0,61.4-49.9,111.3-111.3,111.3l0-23.9c0-2.6,2-4.8,4.5-4.9c43.5-2.4,78.1-38.5,78.1-82.5
				c0-44-34.6-80.1-78.1-82.5c-2.6-0.1-4.5-2.3-4.5-4.9l0-21.5c0-1.3,1.1-2.4,2.4-2.4C196,187.7,244.7,237.1,244.7,297.6z"/>
		</g>
	</g>
	<g>
		<path class="st0" d="M367.3,300.6c0-20,14.5-34.1,34.4-34.1c20,0,34.4,14.1,34.4,34.1s-14.4,34-34.4,34
			C381.8,334.6,367.3,320.6,367.3,300.6z M419.9,300.6c0-10.8-7.4-18.6-18.2-18.6c-10.7,0-18.2,7.8-18.2,18.6
			c0,10.7,7.5,18.6,18.2,18.6C412.5,319.2,419.9,311.3,419.9,300.6z"/>
		<path class="st0" d="M447.2,300.6c0-20,14.5-34.1,34.4-34.1c20,0,34.4,14.1,34.4,34.1s-14.4,34-34.4,34
			C461.7,334.6,447.2,320.6,447.2,300.6z M499.8,300.6c0-10.8-7.4-18.6-18.2-18.6c-10.7,0-18.2,7.8-18.2,18.6
			c0,10.7,7.5,18.6,18.2,18.6C492.4,319.2,499.8,311.3,499.8,300.6z"/>
		<path class="st0" d="M545.7,325.3v28.8c0,4-3.2,7.2-7.2,7.2h-6.4c-1.3,0-2.4-1.1-2.4-2.4v-58.3c0-19.9,15.4-34.6,35.6-34.1
			c18.8,0.5,33.5,15.3,33.5,34.1c0,19.6-14.4,34-32.7,34C558.2,334.6,550,331.1,545.7,325.3z M564.4,319.2c10.3,0,18.3-8,18.3-18.6
			s-8-18.6-18.3-18.6c-10.4,0-18.4,8-18.4,18.6S554,319.2,564.4,319.2z"/>
		<path class="st0" d="M647.7,334.1c-15.6,0-24.6-8.4-24.6-25.3v-26.5h-13.3c-1.6,0-2.9-1.3-2.9-2.9v-8.7c0-1.6,1.3-2.9,2.9-2.9h8.5
			c2.6,0,4.7-2.1,4.7-4.7v-10.9c0-4,3.3-7.3,7.3-7.3h8.6v22.9h21.3c1.6,0,2.9,1.3,2.9,2.9v8.7c0,1.6-1.3,2.9-2.9,2.9H639v24.9
			c0,7.9,3.2,11.5,11.7,11.5c2.8,0,6.4-0.1,11.3-0.7c0.6-0.1,1.1,0.4,1.1,1v13.3c0,0.5-0.4,0.9-0.9,1
			C657.2,333.8,652,334.1,647.7,334.1z"/>
		<g>
			<path class="st0" d="M323.6,266.5c-8.5,0-16.3,3.4-20.7,9.4v-39.2c0-1.5-1.2-2.7-2.7-2.7h-20.4c-4,0-7.3,3.2-7.3,7.3v7.2
				c0,0.7,0.6,1.3,1.3,1.3H287v51c0,19.5,14.3,33.9,34.5,33.9c20,0,34.5-14.4,34.5-34C356,280.9,341.8,266.5,323.6,266.5z
				 M321.6,319.2c-10.9,0-18.5-7.9-18.5-18.6c0-10.7,7.8-18.6,18.5-18.6c10.4,0,18.2,7.9,18.2,18.6
				C339.8,311.3,332,319.2,321.6,319.2z"/>
		</g>
	</g>
	<g>
		<path class="st0" d="M696,271.5H693v5.2c0,1.3,0,2.4,1.6,2.4c0.5,0,1.1-0.1,1.5-0.4l0.1,1.6c-0.6,0.3-1.4,0.4-2,0.4
			c-2.5,0-2.9-1.3-2.9-3.5v-5.7h-2.3v-1.5h2.3v-3h1.7v3h3.1V271.5z"/>
		<path class="st0" d="M707.5,278.6c-1.2,1.6-2.7,2.2-4.6,2.2c-3.3,0-5.3-2.5-5.3-5.5c0-3.2,2.3-5.5,5.3-5.5c2.9,0,4.9,2,4.9,5.5
			v0.6h-8.4c0.1,1.8,1.5,3.3,3.4,3.3c1.5,0,2.5-0.5,3.3-1.6L707.5,278.6z M706,274.3c-0.1-1.8-1.2-2.9-3.1-2.9s-3.2,1.2-3.4,2.9H706
			z"/>
		<path class="st0" d="M718,272.7c-0.7-0.9-1.6-1.3-2.6-1.3c-2.3,0-3.5,1.7-3.5,3.9c0,2.1,1.4,3.9,3.5,3.9c1.1,0,2-0.4,2.7-1.3
			l1.3,1.2c-1,1.2-2.4,1.7-3.9,1.7c-3.2,0-5.4-2.3-5.4-5.5c0-3.2,2.2-5.5,5.4-5.5c1.5,0,3,0.5,4,1.6L718,272.7z"/>
		<path class="st0" d="M721.3,272.5c0-1-0.1-1.8-0.1-2.5h1.6c0,0.6,0,1.1,0,1.7h0c0.5-1,1.8-2,3.5-2c2.7,0,4,1.7,4,4.3v6.4h-1.7
			v-6.3c0-1.7-0.8-2.8-2.4-2.8c-2.2,0-3.2,1.6-3.2,4v5.1h-1.7V272.5z"/>
		<path class="st0" d="M738.6,269.8c3.2,0,5.6,2.2,5.6,5.5c0,3.3-2.4,5.5-5.6,5.5c-3.2,0-5.6-2.2-5.6-5.5
			C733.1,272,735.4,269.8,738.6,269.8z M738.6,279.1c2.2,0,3.7-1.7,3.7-3.9c0-2.2-1.5-3.9-3.7-3.9c-2.2,0-3.7,1.7-3.7,3.9
			C734.9,277.5,736.4,279.1,738.6,279.1z"/>
		<path class="st0" d="M747,263.6h1.7v16.8H747V263.6z"/>
		<path class="st0" d="M757.2,269.8c3.2,0,5.6,2.2,5.6,5.5c0,3.3-2.4,5.5-5.6,5.5s-5.6-2.2-5.6-5.5C751.6,272,754,269.8,757.2,269.8
			z M757.2,279.1c2.2,0,3.7-1.7,3.7-3.9c0-2.2-1.5-3.9-3.7-3.9s-3.7,1.7-3.7,3.9C753.5,277.5,755,279.1,757.2,279.1z"/>
		<path class="st0" d="M775.9,280c0,3.8-2,5.8-5.7,5.8c-2,0-3.7-0.5-5.1-2l1.2-1.4c1.1,1.2,2.3,1.8,3.9,1.8c3.1,0,3.9-2,3.9-4.2
			v-1.3h0c-0.8,1.3-2.3,1.9-3.7,1.9c-3.3,0-5.5-2.3-5.5-5.3c0-3.4,2.2-5.5,5.5-5.5c1.4,0,3,0.7,3.7,2h0v-1.8h1.7V280z M770.4,279
			c2.4,0,3.7-1.8,3.7-3.8c0-2.2-1.5-3.8-3.7-3.8c-2.2,0-3.7,1.7-3.7,3.9C766.7,277.4,768.4,279,770.4,279z"/>
		<path class="st0" d="M780.1,264.7c0.7,0,1.3,0.6,1.3,1.3c0,0.7-0.5,1.3-1.3,1.3c-0.7,0-1.3-0.5-1.3-1.3
			C778.8,265.3,779.4,264.7,780.1,264.7z M779.2,270.1h1.7v10.4h-1.7V270.1z"/>
		<path class="st0" d="M784.3,271.4c1.1-1.1,2.6-1.6,4.1-1.6c3.1,0,4.4,1.5,4.4,4.4v4.5c0,0.6,0.1,1.3,0.2,1.8h-1.7
			c-0.1-0.5-0.1-1.1-0.1-1.6h0c-0.7,1.1-1.8,1.8-3.4,1.8c-2.1,0-3.9-1.1-3.9-3.1c0-3.5,4-3.7,6.6-3.7h0.7v-0.3c0-1.5-1-2.3-2.6-2.3
			c-1.1,0-2.3,0.4-3.1,1.1L784.3,271.4z M789.3,275.5c-2.2,0-3.6,0.6-3.6,2c0,1.3,1,1.8,2.3,1.8c2,0,3-1.4,3.1-3.1v-0.7H789.3z"/>
		<path class="st0" d="M690.3,297.6c0-1-0.1-1.8-0.1-2.5h1.6c0,0.6,0,1.1,0,1.7h0c0.5-1,1.8-2,3.5-2c0.2,0,0.5,0,0.7,0.1l-0.1,1.8
			c-0.3-0.1-0.6-0.1-0.9-0.1c-2.1,0-3.1,1.5-3.1,3.9v5.1h-1.7V297.6z"/>
		<path class="st0" d="M707.1,303.6c-1.2,1.6-2.7,2.2-4.6,2.2c-3.3,0-5.3-2.5-5.3-5.5c0-3.2,2.3-5.5,5.3-5.5c2.9,0,4.9,2,4.9,5.5
			v0.6H699c0.1,1.8,1.5,3.3,3.4,3.3c1.5,0,2.5-0.5,3.3-1.6L707.1,303.6z M705.6,299.4c-0.1-1.8-1.2-2.9-3.1-2.9s-3.2,1.2-3.4,2.9
			H705.6z"/>
		<path class="st0" d="M710.4,302.8c0.7,0.8,1.5,1.4,2.7,1.4c1.1,0,2.3-0.5,2.3-1.6c0-1.1-1.1-1.4-2.2-1.6c-2-0.4-3.7-0.9-3.7-3
			c0-2,2-3.1,3.9-3.1c1.5,0,2.8,0.6,3.5,1.9l-1.5,1c-0.4-0.7-1.2-1.2-2.2-1.2c-1,0-2,0.5-2,1.4c0,0.9,1.2,1.2,2.6,1.5
			c1.8,0.4,3.4,1,3.4,3.1c0,2.4-2.1,3.3-4.2,3.3c-1.8,0-3-0.5-4.1-1.9L710.4,302.8z"/>
		<path class="st0" d="M728.7,303.1c0,1,0.1,1.8,0.1,2.5h-1.6c0-0.6,0-1.1,0-1.7h0c-0.5,1-1.8,2-3.5,2c-2.7,0-4-1.7-4-4.3v-6.4h1.7
			v6.3c0,1.7,0.8,2.8,2.4,2.8c2.2,0,3.2-1.6,3.2-4v-5.1h1.7V303.1z"/>
		<path class="st0" d="M732.2,288.7h1.7v16.8h-1.7V288.7z"/>
		<path class="st0" d="M743.1,296.6H740v5.2c0,1.3,0,2.4,1.6,2.4c0.5,0,1.1-0.1,1.5-0.4l0.1,1.6c-0.6,0.3-1.4,0.4-2,0.4
			c-2.5,0-2.9-1.3-2.9-3.5v-5.7H736v-1.5h2.3v-3h1.7v3h3.1V296.6z"/>
		<path class="st0" d="M745.1,296.4c1.1-1.1,2.6-1.6,4.1-1.6c3.1,0,4.4,1.5,4.4,4.4v4.5c0,0.6,0.1,1.3,0.2,1.8h-1.7
			c-0.1-0.5-0.1-1.1-0.1-1.6h0c-0.7,1.1-1.8,1.8-3.4,1.8c-2.1,0-3.9-1.1-3.9-3.1c0-3.5,4-3.7,6.6-3.7h0.7v-0.3c0-1.5-1-2.3-2.6-2.3
			c-1.1,0-2.3,0.4-3.1,1.1L745.1,296.4z M750.1,300.5c-2.2,0-3.6,0.6-3.6,2c0,1.3,1,1.8,2.3,1.8c2,0,3-1.4,3.1-3.1v-0.7H750.1z"/>
		<path class="st0" d="M765.4,303.7L765.4,303.7c-0.7,1.2-2.2,2.1-4.1,2.1c-2.9,0-5.2-2.4-5.2-5.5c0-3.2,2.2-5.5,5.5-5.5
			c1.5,0,2.8,0.7,3.7,1.8h0v-7.9h1.7v16.8h-1.7V303.7z M761.7,296.4c-2.2,0-3.7,1.7-3.7,3.9c0,2.2,1.4,3.9,3.7,3.9s3.7-1.7,3.7-3.9
			C765.4,298.1,764,296.4,761.7,296.4z"/>
		<path class="st0" d="M775.3,294.8c3.2,0,5.6,2.2,5.6,5.5s-2.4,5.5-5.6,5.5s-5.6-2.2-5.6-5.5S772.1,294.8,775.3,294.8z
			 M775.3,304.2c2.2,0,3.7-1.7,3.7-3.9c0-2.2-1.5-3.9-3.7-3.9s-3.7,1.7-3.7,3.9C771.6,302.5,773.1,304.2,775.3,304.2z"/>
		<path class="st0" d="M695.9,322.8c-0.5-0.7-1.2-1.1-2.1-1.1c-0.7,0-1.6,0.3-1.6,1.1c0,1.9,5.8,0.4,5.8,4.5c0,2.5-2.4,3.4-4.6,3.4
			c-1.6,0-3.1-0.4-4.2-1.6l1.8-1.7c0.7,0.8,1.4,1.3,2.5,1.3c0.8,0,1.8-0.4,1.8-1.2c0-2.2-5.8-0.5-5.8-4.5c0-2.4,2.1-3.5,4.3-3.5
			c1.4,0,2.9,0.4,3.8,1.6L695.9,322.8z"/>
		<path class="st0" d="M709.8,330.6h-2.5v-1.7h0c-0.5,1.1-1.5,2-3.3,2c-2.9,0-3.9-2-3.9-4.2v-6.8h2.7v5.4c0,1.2,0.1,3.1,2,3.1
			c1.8,0,2.5-1.3,2.5-2.7v-5.8h2.7V330.6z"/>
		<path class="st0" d="M720.2,323.1c-0.6-0.6-1.3-1.1-2-1.1c-2,0-3.1,1.5-3.1,3.2s1.2,3.2,3.1,3.2c0.8,0,1.6-0.4,2.1-1l1.8,1.9
			c-1.1,1.1-2.9,1.5-3.9,1.5c-3.2,0-5.8-2.2-5.8-5.6s2.6-5.6,5.8-5.6c1.4,0,2.9,0.5,3.9,1.6L720.2,323.1z"/>
		<path class="st0" d="M725.7,326.2c0.2,1.6,1.4,2.5,2.9,2.5c1.3,0,2.2-0.6,2.9-1.5l1.9,1.5c-1.2,1.5-2.8,2.1-4.5,2.1
			c-3.2,0-5.8-2.2-5.8-5.6s2.6-5.6,5.8-5.6c3,0,5,2.1,5,5.8v0.7H725.7z M731.2,324.2c0-1.6-1-2.5-2.7-2.5c-1.6,0-2.6,1-2.8,2.5
			H731.2z"/>
		<path class="st0" d="M742.1,322.8c-0.5-0.7-1.2-1.1-2.1-1.1c-0.7,0-1.6,0.3-1.6,1.1c0,1.9,5.8,0.4,5.8,4.5c0,2.5-2.4,3.4-4.6,3.4
			c-1.6,0-3.1-0.4-4.2-1.6l1.8-1.7c0.7,0.8,1.4,1.3,2.5,1.3c0.8,0,1.8-0.4,1.8-1.2c0-2.2-5.8-0.5-5.8-4.5c0-2.4,2.1-3.5,4.3-3.5
			c1.4,0,2.9,0.4,3.8,1.6L742.1,322.8z"/>
		<path class="st0" d="M752,322.8c-0.5-0.7-1.2-1.1-2.1-1.1c-0.7,0-1.6,0.3-1.6,1.1c0,1.9,5.8,0.4,5.8,4.5c0,2.5-2.4,3.4-4.6,3.4
			c-1.6,0-3.1-0.4-4.2-1.6l1.8-1.7c0.7,0.8,1.4,1.3,2.5,1.3c0.8,0,1.8-0.4,1.8-1.2c0-2.2-5.8-0.5-5.8-4.5c0-2.4,2.1-3.5,4.3-3.5
			c1.4,0,2.9,0.4,3.8,1.6L752,322.8z"/>
		<path class="st0" d="M761.4,319.6c3.2,0,5.8,2.3,5.8,5.6s-2.6,5.6-5.8,5.6c-3.2,0-5.8-2.2-5.8-5.6S758.2,319.6,761.4,319.6z
			 M761.4,328.4c2,0,3.1-1.5,3.1-3.2s-1.2-3.2-3.1-3.2c-2,0-3.1,1.5-3.1,3.2S759.5,328.4,761.4,328.4z"/>
	</g>
</g>
<g>
	<path class="st0" d="M277.3,380.5c0-0.6,0.2-1,0.5-1.4s0.8-0.5,1.4-0.5h4.8c1.3,0,2.3,0.3,3.2,1s1.2,1.6,1.2,2.8
		c0,1.5-0.8,2.6-2.3,3.3c0.9,0.2,1.6,0.6,2.1,1.3c0.5,0.6,0.8,1.4,0.8,2.3c0,1.2-0.4,2.2-1.2,2.9c-0.8,0.7-1.9,1.1-3.1,1.1h-5.4
		c-0.6,0-1.1-0.2-1.4-0.5c-0.3-0.4-0.5-0.8-0.5-1.4V380.5z M286.8,382.5c0-0.8-0.3-1.4-0.8-1.8c-0.5-0.4-1.2-0.6-2.1-0.6h-4.4
		c-0.4,0-0.6,0.2-0.6,0.7v4.4h5.1c0.8,0,1.5-0.2,2-0.7C286.6,384,286.8,383.4,286.8,382.5z M278.9,391.2c0,0.2,0.1,0.3,0.2,0.5
		c0.1,0.1,0.3,0.2,0.5,0.2h5.1c0.8,0,1.4-0.2,1.9-0.7s0.8-1.1,0.8-1.9c0-0.8-0.3-1.5-0.9-2c-0.6-0.5-1.4-0.7-2.3-0.7h-5.2V391.2z"/>
	<path class="st0" d="M304.3,387c-0.2,0.4-0.5,0.7-0.8,0.9v5.4H302v-5.4c-0.3-0.2-0.6-0.5-0.8-1l-4.6-8.3h1.8l4.1,7.5
		c0.1,0.2,0.2,0.2,0.3,0.2c0.1,0,0.2-0.1,0.3-0.2l4.1-7.5h1.8L304.3,387z"/>
	<path class="st0" d="M335.2,393.5c-3.6,0-5.7-1.5-6.3-4.6h1.7c0.5,2.1,2.1,3.1,4.6,3.1c1.2,0,2.2-0.2,3-0.7
		c0.8-0.5,1.2-1.2,1.2-2.2c0-1.5-1-2.3-2.9-2.4l-2.8-0.2c-1.4-0.1-2.4-0.5-3.2-1.1c-0.8-0.7-1.1-1.6-1.1-2.7c0-1.3,0.5-2.3,1.5-3.1
		s2.3-1.1,4-1.1c0.9,0,1.7,0.1,2.5,0.3c0.8,0.2,1.5,0.6,2.1,1.3c0.7,0.6,1.1,1.4,1.3,2.3h-1.7c-0.6-1.6-2-2.4-4.2-2.4
		c-1.2,0-2.2,0.2-2.9,0.7s-1,1.1-1,2c0,1.5,1,2.3,2.9,2.4l2.8,0.2c1.4,0.1,2.5,0.5,3.3,1.1s1.2,1.6,1.2,2.8c0,1.4-0.5,2.5-1.6,3.3
		C338.3,393.1,336.9,393.5,335.2,393.5z"/>
	<path class="st0" d="M350.7,387.7v-9h1.6v9c0,1.3,0.4,2.3,1.2,3.1c0.8,0.8,1.9,1.2,3.1,1.2c1.3,0,2.3-0.4,3.1-1.2s1.2-1.9,1.2-3.1
		v-9h1.6v9c0,1.7-0.6,3.1-1.7,4.2c-1.1,1.1-2.6,1.6-4.3,1.6c-1.7,0-3.1-0.5-4.3-1.6C351.3,390.8,350.7,389.4,350.7,387.7z"/>
	<path class="st0" d="M387.1,388.3c-0.5,1.7-1.4,3-2.6,3.9c-1.2,0.9-2.7,1.3-4.4,1.3c-2.2,0-4-0.7-5.4-2.1c-1.4-1.4-2.1-3.2-2.1-5.4
		s0.7-4,2.1-5.4c1.4-1.4,3.2-2.1,5.4-2.1c1.7,0,3.2,0.5,4.5,1.4c1.2,0.9,2.1,2.2,2.6,3.9h-1.7c-0.4-1.2-1.1-2.1-2.1-2.8
		c-0.9-0.7-2-1-3.3-1c-1.7,0-3.2,0.6-4.2,1.7c-1.1,1.1-1.6,2.6-1.6,4.3c0,1.7,0.5,3.2,1.6,4.3c1.1,1.1,2.5,1.7,4.2,1.7
		c1.3,0,2.4-0.3,3.3-1c0.9-0.6,1.6-1.6,2.1-2.8H387.1z"/>
	<path class="st0" d="M406.6,391.8v1.5h-8c-0.6,0-1.1-0.2-1.4-0.5c-0.3-0.4-0.5-0.8-0.5-1.4v-10.9c0-0.6,0.2-1,0.5-1.4
		s0.8-0.5,1.4-0.5h7.9v1.5H399c-0.2,0-0.3,0.1-0.5,0.2c-0.1,0.1-0.2,0.3-0.2,0.5v4.3h7.8v1.5h-7.8v4.7c0,0.2,0.1,0.3,0.2,0.5
		c0.1,0.1,0.3,0.2,0.5,0.2H406.6z"/>
	<path class="st0" d="M421.9,393.5c-3.6,0-5.7-1.5-6.3-4.6h1.7c0.5,2.1,2.1,3.1,4.6,3.1c1.2,0,2.2-0.2,3-0.7
		c0.8-0.5,1.2-1.2,1.2-2.2c0-1.5-1-2.3-2.9-2.4l-2.8-0.2c-1.4-0.1-2.4-0.5-3.2-1.1c-0.8-0.7-1.1-1.6-1.1-2.7c0-1.3,0.5-2.3,1.5-3.1
		s2.3-1.1,4-1.1c0.9,0,1.7,0.1,2.5,0.3c0.8,0.2,1.5,0.6,2.1,1.3c0.7,0.6,1.1,1.4,1.3,2.3h-1.7c-0.6-1.6-2-2.4-4.2-2.4
		c-1.2,0-2.2,0.2-2.9,0.7s-1,1.1-1,2c0,1.5,1,2.3,2.9,2.4l2.8,0.2c1.4,0.1,2.5,0.5,3.3,1.1s1.2,1.6,1.2,2.8c0,1.4-0.5,2.5-1.6,3.3
		C425,393.1,423.6,393.5,421.9,393.5z"/>
	<path class="st0" d="M442.7,393.5c-3.6,0-5.7-1.5-6.3-4.6h1.7c0.5,2.1,2.1,3.1,4.6,3.1c1.2,0,2.2-0.2,3-0.7
		c0.8-0.5,1.2-1.2,1.2-2.2c0-1.5-1-2.3-2.9-2.4l-2.8-0.2c-1.4-0.1-2.4-0.5-3.2-1.1c-0.8-0.7-1.1-1.6-1.1-2.7c0-1.3,0.5-2.3,1.5-3.1
		s2.3-1.1,4-1.1c0.9,0,1.7,0.1,2.5,0.3c0.8,0.2,1.5,0.6,2.1,1.3c0.7,0.6,1.1,1.4,1.3,2.3h-1.7c-0.6-1.6-2-2.4-4.2-2.4
		c-1.2,0-2.2,0.2-2.9,0.7s-1,1.1-1,2c0,1.5,1,2.3,2.9,2.4l2.8,0.2c1.4,0.1,2.5,0.5,3.3,1.1s1.2,1.6,1.2,2.8c0,1.4-0.5,2.5-1.6,3.3
		C445.9,393.1,444.5,393.5,442.7,393.5z"/>
	<path class="st0" d="M470.6,391.4c-1.4,1.4-3.2,2.1-5.5,2.1c-2.2,0-4-0.7-5.5-2.1c-1.4-1.4-2.1-3.2-2.1-5.4c0-2.2,0.7-4,2.1-5.4
		c1.4-1.4,3.2-2.1,5.5-2.1s4,0.7,5.5,2.1c1.4,1.4,2.1,3.2,2.1,5.4C472.7,388.2,472,390,470.6,391.4z M465.1,392
		c1.8,0,3.2-0.6,4.3-1.7c1.1-1.1,1.7-2.6,1.7-4.4c0-1.8-0.6-3.2-1.7-4.3c-1.1-1.1-2.5-1.7-4.3-1.7c-1.7,0-3.2,0.6-4.3,1.7
		s-1.7,2.6-1.7,4.3c0,1.8,0.6,3.2,1.7,4.4C461.9,391.5,463.4,392,465.1,392z"/>
	<path class="st0" d="M505,391.8v1.5h-8c-0.6,0-1.1-0.2-1.4-0.5c-0.3-0.4-0.5-0.8-0.5-1.4v-10.9c0-0.6,0.2-1,0.5-1.4
		s0.8-0.5,1.4-0.5h7.9v1.5h-7.6c-0.2,0-0.3,0.1-0.5,0.2c-0.1,0.1-0.2,0.3-0.2,0.5v4.3h7.8v1.5h-7.8v4.7c0,0.2,0.1,0.3,0.2,0.5
		c0.1,0.1,0.3,0.2,0.5,0.2H505z"/>
	<path class="st0" d="M523.5,390c-0.8,0-1.4-0.4-1.8-1.3l-4.1-8.1c-0.1-0.2-0.2-0.3-0.4-0.3c-0.1,0-0.2,0-0.3,0.1s-0.1,0.2-0.1,0.3
		v12.7h-1.6v-12.7c0-0.7,0.2-1.2,0.5-1.6c0.3-0.4,0.8-0.6,1.4-0.6c0.5,0,0.9,0.1,1.2,0.4c0.3,0.3,0.6,0.7,0.9,1.3l3.9,7.8
		c0.1,0.2,0.3,0.3,0.4,0.3c0.2,0,0.3-0.1,0.4-0.3l3.9-7.8c0.3-0.6,0.6-1.1,0.9-1.3c0.3-0.3,0.7-0.4,1.2-0.4c1.2,0,1.8,0.7,1.8,2.1
		v12.7h-1.6v-12.7c0-0.3-0.1-0.4-0.4-0.4c-0.2,0-0.3,0.1-0.5,0.3l-4.1,8.1C524.8,389.6,524.2,390,523.5,390z"/>
	<path class="st0" d="M564.8,378.6h1.7l-5,13.5c-0.3,0.8-0.9,1.2-1.6,1.2c-0.4,0-0.8-0.1-1-0.3s-0.5-0.5-0.6-0.9l-5-13.5h1.7
		l4.8,13.1c0.1,0.1,0.1,0.2,0.2,0.2s0.2-0.1,0.2-0.2L564.8,378.6z"/>
	<path class="st0" d="M585.6,391.8v1.5h-8c-0.6,0-1.1-0.2-1.4-0.5c-0.3-0.4-0.5-0.8-0.5-1.4v-10.9c0-0.6,0.2-1,0.5-1.4
		s0.8-0.5,1.4-0.5h7.9v1.5H578c-0.2,0-0.3,0.1-0.5,0.2c-0.1,0.1-0.2,0.3-0.2,0.5v4.3h7.8v1.5h-7.8v4.7c0,0.2,0.1,0.3,0.2,0.5
		c0.1,0.1,0.3,0.2,0.5,0.2H585.6z"/>
	<path class="st0" d="M597.5,380.7v12.6h-1.6v-12.5c0-0.7,0.2-1.2,0.6-1.6c0.4-0.4,0.9-0.6,1.5-0.6c0.5,0,0.9,0.1,1.2,0.4
		c0.3,0.3,0.6,0.8,1,1.4l5.7,10.8c0.1,0.2,0.2,0.3,0.2,0.3c0,0.1,0.1,0.1,0.2,0.2c0.1,0.1,0.2,0.1,0.3,0.1c0.3,0,0.5-0.2,0.5-0.6
		v-12.6h1.6v12.5c0,0.7-0.2,1.2-0.5,1.6c-0.4,0.4-0.8,0.6-1.5,0.6c-0.5,0-0.9-0.1-1.3-0.4c-0.3-0.3-0.7-0.8-1-1.4l-5.7-10.8
		c-0.1-0.2-0.2-0.3-0.2-0.3c0-0.1-0.1-0.1-0.2-0.2c-0.1-0.1-0.2-0.1-0.3-0.1c-0.1,0-0.3,0-0.3,0.2S597.5,380.6,597.5,380.7z"/>
	<path class="st0" d="M619.7,380.5c0-0.6,0.2-1,0.5-1.4s0.8-0.5,1.4-0.5h3.6c2.2,0,4,0.7,5.5,2c1.5,1.3,2.2,3.1,2.2,5.4
		c0,2.2-0.7,4-2.2,5.4c-1.5,1.3-3.3,2-5.5,2h-3.6c-0.6,0-1.1-0.2-1.4-0.5c-0.3-0.4-0.5-0.8-0.5-1.4V380.5z M631.3,386
		c0-1.8-0.6-3.2-1.7-4.2c-1.1-1.1-2.6-1.6-4.3-1.6H622c-0.2,0-0.3,0.1-0.5,0.2c-0.1,0.1-0.2,0.3-0.2,0.5v10.4c0,0.2,0.1,0.3,0.2,0.5
		c0.1,0.1,0.3,0.2,0.5,0.2h3.3c1.7,0,3.2-0.5,4.3-1.6C630.7,389.2,631.3,387.7,631.3,386z"/>
	<path class="st0" d="M653,393.3l-1.8-4.7h-6.9l-1.8,4.7h-1.7l5.3-13.5c0.2-0.4,0.4-0.7,0.6-1c0.2-0.2,0.6-0.3,1-0.3
		c0.4,0,0.8,0.1,1,0.3c0.3,0.2,0.5,0.5,0.6,1l5.3,13.5H653z M647.4,380.3l-2.6,6.8h5.8l-2.7-6.8c-0.1-0.1-0.1-0.2-0.2-0.2
		S647.5,380.2,647.4,380.3z"/>
	<path class="st0" d="M668.9,393.5c-3.6,0-5.7-1.5-6.3-4.6h1.7c0.5,2.1,2.1,3.1,4.6,3.1c1.2,0,2.2-0.2,3-0.7
		c0.8-0.5,1.2-1.2,1.2-2.2c0-1.5-1-2.3-2.9-2.4l-2.8-0.2c-1.4-0.1-2.4-0.5-3.2-1.1c-0.8-0.7-1.1-1.6-1.1-2.7c0-1.3,0.5-2.3,1.5-3.1
		s2.3-1.1,4-1.1c0.9,0,1.7,0.1,2.5,0.3c0.8,0.2,1.5,0.6,2.1,1.3c0.7,0.6,1.1,1.4,1.3,2.3h-1.7c-0.6-1.6-2-2.4-4.2-2.4
		c-1.2,0-2.2,0.2-2.9,0.7s-1,1.1-1,2c0,1.5,1,2.3,2.9,2.4l2.8,0.2c1.4,0.1,2.5,0.5,3.3,1.1s1.2,1.6,1.2,2.8c0,1.4-0.5,2.5-1.6,3.3
		C672,393.1,670.6,393.5,668.9,393.5z"/>
</g>
</svg>
