<?xml version="1.0" encoding="utf-8"?>
<!-- Generator: Adobe Illustrator 28.2.0, SVG Export Plug-In . SVG Version: 6.00 Build 0)  -->
<svg version="1.0" id="Camada_1" xmlns="http://www.w3.org/2000/svg" xmlns:xlink="http://www.w3.org/1999/xlink" x="0px" y="0px"
	 viewBox="0 0 841.9 595.3" style="enable-background:new 0 0 841.9 595.3;" xml:space="preserve">
<style type="text/css">
	.st0{fill:#FFFFFF;}
	.st1{fill:#1717FF;}
	.st2{fill:url(#SVGID_1_);}
	.st3{fill:url(#SVGID_00000036935465864970384340000016112841448036558723_);}
	.st4{fill:#FF7730;}
	.st5{fill:url(#SVGID_00000027578840977173238020000015175687137270229439_);}
	.st6{fill:url(#SVGID_00000123433613890266969180000000663331858911696541_);}
	.st7{fill:url(#SVGID_00000017482863987793934950000000375565913966279335_);}
</style>
<g>
	<g>
		<g>
			<g>
				<path class="st0" d="M470.6,221.9c0,36.5-30.4,66-67.2,64.6c-35-1.3-62.1-31.2-62.1-66.2v-91.1h-27.4c-1.4,0-2.6-1.2-2.6-2.6
					v-14.6c0-8.2,6.7-14.9,14.9-14.9h41.7c3,0,5.5,2.5,5.5,5.5v119.3c0,18.3,15.1,33.1,33.5,32.5c16.9-0.5,31.1-14.6,31.6-31.6
					c0.5-16.7-11.7-30.7-27.7-33.1c-2.8-0.4-4.8-2.7-4.8-5.5v-27C441.6,157.2,470.6,186.2,470.6,221.9z"/>
			</g>
			<g>
				<path class="st0" d="M405.9,346.7c-52.2,0-94.7-42.5-94.7-94.7s42.5-94.7,94.7-94.7v8.9c-47.3,0-85.8,38.5-85.8,85.8
					s38.5,85.8,85.8,85.8V346.7z"/>
			</g>
			<g>
				<path class="st0" d="M530.7,221.9c0,68.8-56,124.8-124.8,124.8v-26.8c0-2.9,2.2-5.3,5.1-5.5c48.7-2.7,87.6-43.2,87.6-92.5
					c0-49.4-38.8-89.9-87.6-92.5c-2.9-0.2-5.1-2.6-5.1-5.5V99.8c0-1.5,1.2-2.7,2.7-2.6C476.2,98.5,530.7,153.9,530.7,221.9z"/>
			</g>
		</g>
		<g>
			<path class="st0" d="M307.4,429.6c0-22.6,16.4-38.5,38.8-38.5c22.6,0,38.8,16,38.8,38.5c0,22.6-16.2,38.4-38.8,38.4
				C323.8,468,307.4,452.2,307.4,429.6z M366.7,429.6c0-12.2-8.3-21-20.5-21c-12.1,0-20.6,8.8-20.6,21c0,12.1,8.5,21,20.6,21
				C358.4,450.6,366.7,441.7,366.7,429.6z"/>
			<path class="st0" d="M397.6,429.6c0-22.6,16.4-38.5,38.8-38.5c22.6,0,38.8,16,38.8,38.5c0,22.6-16.2,38.4-38.8,38.4
				C414,468,397.6,452.2,397.6,429.6z M457,429.6c0-12.2-8.3-21-20.5-21c-12.1,0-20.6,8.8-20.6,21c0,12.1,8.5,21,20.6,21
				C448.7,450.6,457,441.7,457,429.6z"/>
			<path class="st0" d="M508.9,457.5v32.6c0,4.5-3.6,8.1-8.1,8.1h-7.2c-1.5,0-2.7-1.2-2.7-2.7v-65.9c0-22.5,17.4-39.1,40.2-38.5
				c21.2,0.5,37.8,17.3,37.8,38.5c0,22.1-16.2,38.4-36.9,38.4C523,468,513.8,464.1,508.9,457.5z M530,450.6c11.6,0,20.7-9.1,20.7-21
				c0-11.9-9.1-21-20.7-21c-11.8,0-20.8,9.1-20.8,21C509.2,441.6,518.2,450.6,530,450.6z"/>
			<path class="st0" d="M624,467.4c-17.7,0-27.7-9.5-27.7-28.6V409h-15c-1.8,0-3.3-1.5-3.3-3.3v-9.8c0-1.8,1.5-3.3,3.3-3.3h9.7
				c2.9,0,5.3-2.4,5.3-5.3v-12.3c0-4.6,3.7-8.2,8.2-8.2h9.7v25.9h24c1.8,0,3.3,1.5,3.3,3.3v9.8c0,1.8-1.5,3.3-3.3,3.3h-24v28.2
				c0,8.9,3.6,12.9,13.2,12.9c3.2,0,7.3-0.1,12.8-0.8c0.7-0.1,1.3,0.4,1.3,1.1v15c0,0.6-0.4,1-1,1.1
				C634.8,467.2,628.9,467.4,624,467.4z"/>
			<g>
				<path class="st0" d="M258.1,391.1c-9.6,0-18.4,3.9-23.4,10.6v-44.3c0-1.7-1.4-3-3.1-3h-23c-4.5,0-8.2,3.7-8.2,8.2v8.1
					c0,0.8,0.6,1.4,1.4,1.4h14.9v57.6c0,22,16.1,38.2,39,38.2c22.6,0,39-16.2,39-38.4C294.6,407.4,278.6,391.1,258.1,391.1z
					 M255.8,450.6c-12.4,0-20.8-8.9-20.8-21c0-12.1,8.8-21,20.8-21c11.8,0,20.6,8.9,20.6,21C276.3,441.7,267.5,450.6,255.8,450.6z"
					/>
			</g>
		</g>
	</g>
	<g>
		<path class="st0" d="M197.8,520.2c0-0.7,0.2-1.2,0.6-1.6c0.4-0.4,0.9-0.6,1.6-0.6h5.4c1.4,0,2.6,0.4,3.6,1.1
			c0.9,0.8,1.4,1.8,1.4,3.2c0,1.7-0.9,2.9-2.6,3.7c1,0.2,1.8,0.7,2.4,1.4s0.9,1.6,0.9,2.6c0,1.4-0.5,2.4-1.4,3.3s-2.1,1.2-3.5,1.2
			h-6.1c-0.7,0-1.2-0.2-1.6-0.6s-0.6-0.9-0.6-1.6V520.2z M208.5,522.5c0-0.9-0.3-1.6-0.9-2s-1.4-0.7-2.3-0.7h-5
			c-0.5,0-0.7,0.2-0.7,0.7v4.9h5.8c0.9,0,1.7-0.3,2.3-0.8C208.2,524.1,208.5,523.4,208.5,522.5z M199.6,532.2c0,0.2,0.1,0.4,0.2,0.5
			s0.3,0.2,0.5,0.2h5.8c0.9,0,1.6-0.3,2.2-0.8s0.9-1.2,0.9-2.1c0-0.9-0.3-1.7-1-2.2s-1.5-0.8-2.6-0.8h-5.9V532.2z"/>
		<path class="st0" d="M228.2,527.5c-0.3,0.5-0.5,0.8-0.8,1v6.1h-1.8v-6.1c-0.3-0.2-0.7-0.6-0.9-1.1l-5.2-9.4h2.1l4.6,8.5
			c0.1,0.2,0.2,0.3,0.3,0.3c0.1,0,0.2-0.1,0.3-0.3l4.6-8.5h2L228.2,527.5z"/>
		<path class="st0" d="M262.9,534.8c-4.1,0-6.5-1.7-7.2-5.2h1.9c0.6,2.3,2.3,3.5,5.2,3.5c1.4,0,2.5-0.3,3.4-0.8s1.3-1.4,1.3-2.5
			c0-1.7-1.1-2.5-3.3-2.7l-3.2-0.2c-1.5-0.1-2.7-0.5-3.6-1.3c-0.9-0.8-1.3-1.8-1.3-3.1c0-1.5,0.6-2.6,1.7-3.5
			c1.1-0.8,2.6-1.3,4.5-1.3c1,0,1.9,0.1,2.8,0.4c0.9,0.3,1.7,0.7,2.4,1.4c0.7,0.7,1.2,1.6,1.5,2.6h-1.9c-0.6-1.8-2.2-2.7-4.8-2.7
			c-1.4,0-2.5,0.3-3.2,0.8c-0.8,0.5-1.1,1.3-1.1,2.2c0,1.7,1.1,2.5,3.3,2.7l3.1,0.2c1.6,0.1,2.8,0.5,3.7,1.2
			c0.9,0.7,1.3,1.8,1.3,3.1c0,1.6-0.6,2.9-1.8,3.8C266.4,534.4,264.9,534.8,262.9,534.8z"/>
		<path class="st0" d="M280.4,528.3v-10.2h1.8v10.2c0,1.4,0.5,2.6,1.4,3.5s2.1,1.4,3.5,1.4c1.4,0,2.6-0.5,3.5-1.4
			c0.9-0.9,1.4-2.1,1.4-3.5v-10.2h1.8v10.2c0,1.9-0.6,3.5-1.9,4.7s-2.9,1.9-4.8,1.9c-1.9,0-3.5-0.6-4.8-1.9
			C281.1,531.7,280.4,530.2,280.4,528.3z"/>
		<path class="st0" d="M321.4,529c-0.6,1.9-1.6,3.4-3,4.4c-1.4,1-3,1.5-5,1.5c-2.5,0-4.5-0.8-6.1-2.4s-2.3-3.6-2.3-6.1
			c0-2.5,0.8-4.5,2.3-6.1c1.6-1.6,3.6-2.4,6.1-2.4c2,0,3.6,0.5,5,1.6c1.4,1,2.4,2.5,2.9,4.4h-1.9c-0.5-1.3-1.3-2.4-2.3-3.1
			c-1.1-0.7-2.3-1.1-3.7-1.1c-2,0-3.6,0.6-4.8,1.9c-1.2,1.3-1.8,2.9-1.8,4.9c0,2,0.6,3.6,1.8,4.9s2.8,1.9,4.8,1.9
			c1.4,0,2.7-0.4,3.7-1.1c1-0.7,1.8-1.8,2.3-3.1H321.4z"/>
		<path class="st0" d="M343.4,532.9v1.7h-9c-0.7,0-1.2-0.2-1.6-0.6s-0.6-0.9-0.6-1.6v-12.2c0-0.7,0.2-1.2,0.6-1.6
			c0.4-0.4,0.9-0.6,1.6-0.6h8.9v1.7h-8.5c-0.2,0-0.4,0.1-0.5,0.2s-0.2,0.3-0.2,0.5v4.9h8.8v1.7h-8.8v5.3c0,0.2,0.1,0.4,0.2,0.5
			s0.3,0.2,0.5,0.2H343.4z"/>
		<path class="st0" d="M360.6,534.8c-4.1,0-6.5-1.7-7.2-5.2h1.9c0.6,2.3,2.3,3.5,5.2,3.5c1.4,0,2.5-0.3,3.4-0.8s1.3-1.4,1.3-2.5
			c0-1.7-1.1-2.5-3.3-2.7l-3.2-0.2c-1.5-0.1-2.7-0.5-3.6-1.3c-0.9-0.8-1.3-1.8-1.3-3.1c0-1.5,0.6-2.6,1.7-3.5
			c1.1-0.8,2.6-1.3,4.5-1.3c1,0,1.9,0.1,2.8,0.4c0.9,0.3,1.7,0.7,2.4,1.4c0.7,0.7,1.2,1.6,1.5,2.6h-1.9c-0.6-1.8-2.2-2.7-4.8-2.7
			c-1.4,0-2.5,0.3-3.2,0.8c-0.8,0.5-1.1,1.3-1.1,2.2c0,1.7,1.1,2.5,3.3,2.7l3.1,0.2c1.6,0.1,2.8,0.5,3.7,1.2
			c0.9,0.7,1.3,1.8,1.3,3.1c0,1.6-0.6,2.9-1.8,3.8C364.1,534.4,362.5,534.8,360.6,534.8z"/>
		<path class="st0" d="M384.1,534.8c-4.1,0-6.5-1.7-7.2-5.2h1.9c0.6,2.3,2.3,3.5,5.2,3.5c1.4,0,2.5-0.3,3.4-0.8s1.3-1.4,1.3-2.5
			c0-1.7-1.1-2.5-3.3-2.7l-3.2-0.2c-1.5-0.1-2.7-0.5-3.6-1.3c-0.9-0.8-1.3-1.8-1.3-3.1c0-1.5,0.6-2.6,1.7-3.5
			c1.1-0.8,2.6-1.3,4.5-1.3c1,0,1.9,0.1,2.8,0.4c0.9,0.3,1.7,0.7,2.4,1.4c0.7,0.7,1.2,1.6,1.5,2.6h-1.9c-0.6-1.8-2.2-2.7-4.8-2.7
			c-1.4,0-2.5,0.3-3.2,0.8c-0.8,0.5-1.1,1.3-1.1,2.2c0,1.7,1.1,2.5,3.3,2.7l3.1,0.2c1.6,0.1,2.8,0.5,3.7,1.2
			c0.9,0.7,1.3,1.8,1.3,3.1c0,1.6-0.6,2.9-1.8,3.8C387.6,534.4,386.1,534.8,384.1,534.8z"/>
		<path class="st0" d="M415.5,532.5c-1.6,1.6-3.7,2.4-6.2,2.4c-2.5,0-4.6-0.8-6.2-2.4c-1.6-1.6-2.4-3.6-2.4-6.1
			c0-2.5,0.8-4.5,2.4-6.1c1.6-1.6,3.7-2.4,6.1-2.4c2.5,0,4.5,0.8,6.1,2.4c1.6,1.6,2.4,3.6,2.4,6.1
			C417.9,528.8,417.1,530.9,415.5,532.5z M409.3,533.2c2,0,3.6-0.6,4.8-1.9c1.2-1.3,1.9-2.9,1.9-4.9c0-2-0.6-3.6-1.9-4.9
			s-2.9-1.9-4.8-1.9c-2,0-3.6,0.6-4.8,1.9s-1.9,2.9-1.9,4.9c0,2,0.6,3.6,1.9,4.9C405.7,532.5,407.3,533.2,409.3,533.2z"/>
		<path class="st0" d="M454.2,532.9v1.7h-9c-0.7,0-1.2-0.2-1.6-0.6c-0.4-0.4-0.6-0.9-0.6-1.6v-12.2c0-0.7,0.2-1.2,0.6-1.6
			c0.4-0.4,0.9-0.6,1.6-0.6h8.9v1.7h-8.5c-0.2,0-0.4,0.1-0.5,0.2c-0.1,0.1-0.2,0.3-0.2,0.5v4.9h8.8v1.7h-8.8v5.3
			c0,0.2,0.1,0.4,0.2,0.5c0.1,0.1,0.3,0.2,0.5,0.2H454.2z"/>
		<path class="st0" d="M475,530.9c-0.9,0-1.5-0.5-2-1.4l-4.6-9.1c-0.1-0.3-0.3-0.4-0.5-0.4c-0.1,0-0.2,0-0.3,0.1s-0.1,0.2-0.1,0.3
			v14.3h-1.8v-14.3c0-0.8,0.2-1.3,0.5-1.8s0.9-0.6,1.6-0.6c0.6,0,1,0.1,1.4,0.4c0.4,0.3,0.7,0.8,1,1.5l4.4,8.7
			c0.1,0.2,0.3,0.4,0.5,0.4c0.2,0,0.4-0.1,0.5-0.4l4.4-8.7c0.3-0.7,0.6-1.2,1-1.5c0.4-0.3,0.8-0.4,1.4-0.4c1.4,0,2.1,0.8,2.1,2.4
			v14.3h-1.8v-14.3c0-0.3-0.1-0.5-0.4-0.5c-0.2,0-0.4,0.1-0.5,0.4l-4.6,9.1C476.6,530.4,475.9,530.9,475,530.9z"/>
		<path class="st0" d="M521.7,518.1h1.9l-5.7,15.3c-0.4,0.9-1,1.4-1.8,1.4c-0.5,0-0.9-0.1-1.2-0.3s-0.5-0.6-0.7-1.1l-5.7-15.3h2
			l5.4,14.7c0.1,0.2,0.2,0.2,0.3,0.2s0.2-0.1,0.3-0.2L521.7,518.1z"/>
		<path class="st0" d="M545.1,532.9v1.7h-9c-0.7,0-1.2-0.2-1.6-0.6c-0.4-0.4-0.6-0.9-0.6-1.6v-12.2c0-0.7,0.2-1.2,0.6-1.6
			c0.4-0.4,0.9-0.6,1.6-0.6h8.9v1.7h-8.5c-0.2,0-0.4,0.1-0.5,0.2c-0.1,0.1-0.2,0.3-0.2,0.5v4.9h8.8v1.7h-8.8v5.3
			c0,0.2,0.1,0.4,0.2,0.5c0.1,0.1,0.3,0.2,0.5,0.2H545.1z"/>
		<path class="st0" d="M558.4,520.4v14.2h-1.8v-14.1c0-0.8,0.2-1.4,0.6-1.8c0.4-0.5,1-0.7,1.6-0.7c0.6,0,1,0.2,1.4,0.5
			s0.7,0.9,1.1,1.6l6.4,12.1c0.1,0.2,0.2,0.3,0.2,0.4c0,0.1,0.1,0.1,0.2,0.2c0.1,0.1,0.2,0.1,0.3,0.1c0.4,0,0.5-0.2,0.5-0.6v-14.2
			h1.8v14.1c0,0.8-0.2,1.4-0.6,1.8s-1,0.7-1.6,0.7c-0.6,0-1-0.2-1.4-0.5s-0.8-0.9-1.1-1.6l-6.4-12.1c-0.1-0.2-0.2-0.3-0.2-0.4
			c0-0.1-0.1-0.1-0.2-0.2c-0.1-0.1-0.2-0.1-0.3-0.1c-0.2,0-0.3,0.1-0.4,0.2C558.5,520.1,558.4,520.3,558.4,520.4z"/>
		<path class="st0" d="M583.5,520.2c0-0.7,0.2-1.2,0.6-1.6c0.4-0.4,0.9-0.6,1.6-0.6h4.1c2.5,0,4.5,0.8,6.2,2.2
			c1.6,1.5,2.5,3.5,2.5,6s-0.8,4.5-2.5,6c-1.6,1.5-3.7,2.2-6.2,2.2h-4.1c-0.7,0-1.2-0.2-1.6-0.6c-0.4-0.4-0.6-0.9-0.6-1.6V520.2z
			 M596.6,526.3c0-2-0.6-3.6-1.9-4.8c-1.3-1.2-2.9-1.8-4.8-1.8H586c-0.2,0-0.4,0.1-0.5,0.2c-0.1,0.1-0.2,0.3-0.2,0.5v11.7
			c0,0.2,0.1,0.4,0.2,0.5c0.1,0.1,0.3,0.2,0.5,0.2h3.8c1.9,0,3.6-0.6,4.8-1.8C595.9,529.9,596.6,528.3,596.6,526.3z"/>
		<path class="st0" d="M621,534.6l-2.1-5.3h-7.8l-2,5.3h-1.9l6-15.2c0.2-0.5,0.4-0.8,0.7-1.1c0.3-0.2,0.6-0.4,1.1-0.4
			c0.5,0,0.9,0.1,1.2,0.4c0.3,0.2,0.5,0.6,0.7,1.1l6,15.2H621z M614.7,520l-3,7.6h6.5l-3-7.6c-0.1-0.2-0.2-0.2-0.3-0.2
			S614.8,519.8,614.7,520z"/>
		<path class="st0" d="M638.9,534.8c-4.1,0-6.5-1.7-7.2-5.2h1.9c0.6,2.3,2.3,3.5,5.2,3.5c1.4,0,2.5-0.3,3.4-0.8
			c0.9-0.6,1.3-1.4,1.3-2.5c0-1.7-1.1-2.5-3.3-2.7l-3.2-0.2c-1.5-0.1-2.7-0.5-3.6-1.3c-0.9-0.8-1.3-1.8-1.3-3.1
			c0-1.5,0.6-2.6,1.7-3.5c1.1-0.8,2.6-1.3,4.5-1.3c1,0,1.9,0.1,2.8,0.4c0.9,0.3,1.7,0.7,2.4,1.4c0.7,0.7,1.2,1.6,1.5,2.6h-1.9
			c-0.6-1.8-2.2-2.7-4.8-2.7c-1.4,0-2.5,0.3-3.2,0.8s-1.1,1.3-1.1,2.2c0,1.7,1.1,2.5,3.3,2.7l3.1,0.2c1.6,0.1,2.8,0.5,3.7,1.2
			c0.9,0.7,1.3,1.8,1.3,3.1c0,1.6-0.6,2.9-1.8,3.8S640.9,534.8,638.9,534.8z"/>
	</g>
</g>
</svg>
