<?xml version="1.0" encoding="utf-8"?>
<!-- Generator: Adobe Illustrator 28.2.0, SVG Export Plug-In . SVG Version: 6.00 Build 0)  -->
<svg version="1.0" id="Camada_1" xmlns="http://www.w3.org/2000/svg" xmlns:xlink="http://www.w3.org/1999/xlink" x="0px" y="0px"
	 viewBox="0 0 841.9 595.3" style="enable-background:new 0 0 841.9 595.3;" xml:space="preserve">
<style type="text/css">
	.st0{fill:#FFFFFF;}
	.st1{fill:#1717FF;}
	.st2{fill:url(#SVGID_1_);}
	.st3{fill:url(#SVGID_00000059294420922081242010000000577304769773301419_);}
	.st4{fill:#FF7730;}
	.st5{fill:url(#SVGID_00000098204350686833435230000002646848509511358869_);}
	.st6{fill:url(#SVGID_00000166637933240413440910000000142284594289217960_);}
	.st7{fill:url(#SVGID_00000075856869901206667880000007959690854828303509_);}
</style>
<g>
	<g>
		<g>
			<path class="st1" d="M470.5,210.7c0,36.4-30.3,65.9-67,64.5c-34.9-1.3-62-31.1-62-66l0-90.9h-27.3c-1.4,0-2.6-1.2-2.6-2.6V101
				c0-8.2,6.6-14.8,14.8-14.8H368c3,0,5.5,2.5,5.5,5.5v119c0,18.2,15.1,33,33.4,32.5c16.9-0.5,31-14.6,31.5-31.5
				c0.5-16.7-11.7-30.7-27.6-33.1c-2.7-0.4-4.8-2.7-4.8-5.4v-27C441.5,146.2,470.5,175.1,470.5,210.7z"/>
		</g>
		<g>
			<path class="st1" d="M406,335.2c-52.1,0-94.5-42.4-94.5-94.5s42.4-94.5,94.5-94.5v8.9c-47.2,0-85.6,38.4-85.6,85.6
				s38.4,85.6,85.6,85.6V335.2z"/>
		</g>
		<g>
			<linearGradient id="SVGID_1_" gradientUnits="userSpaceOnUse" x1="478.4598" y1="96.9989" x2="435.5381" y2="340.4198">
				<stop  offset="9.000000e-02" style="stop-color:#FF7730"/>
				<stop  offset="0.55" style="stop-color:#1717FF"/>
			</linearGradient>
			<path class="st2" d="M530.5,210.7c0,68.7-55.9,124.5-124.5,124.5l0-26.7c0-2.9,2.2-5.3,5.1-5.5c48.6-2.6,87.4-43.1,87.4-92.4
				c0-49.3-38.8-89.7-87.4-92.3c-2.9-0.2-5.1-2.6-5.1-5.5l0-24c0-1.5,1.2-2.7,2.7-2.6C476.1,87.6,530.5,142.9,530.5,210.7z"/>
		</g>
	</g>
	<g>
		<path class="st1" d="M278.4,423.1c0-28.3,20.6-48.4,48.7-48.4c28.3,0,48.7,20,48.7,48.4c0,28.3-20.4,48.2-48.7,48.2
			C298.9,471.2,278.4,451.4,278.4,423.1z M352.9,423.1c0-15.3-10.5-26.3-25.8-26.3c-15.2,0-25.8,11-25.8,26.3
			c0,15.2,10.6,26.3,25.8,26.3C342.4,449.4,352.9,438.2,352.9,423.1z"/>
		<path class="st1" d="M391.7,423.1c0-28.3,20.6-48.4,48.7-48.4c28.3,0,48.7,20,48.7,48.4c0,28.3-20.4,48.2-48.7,48.2
			C412.2,471.2,391.7,451.4,391.7,423.1z M466.2,423.1c0-15.3-10.5-26.3-25.8-26.3c-15.2,0-25.8,11-25.8,26.3
			c0,15.2,10.6,26.3,25.8,26.3C455.7,449.4,466.2,438.2,466.2,423.1z"/>
		<path class="st1" d="M531.4,458.1V499c0,5.6-4.6,10.2-10.2,10.2h-9c-1.9,0-3.4-1.5-3.4-3.4v-82.7c0-28.3,21.8-49.1,50.5-48.3
			c26.6,0.7,47.4,21.8,47.4,48.4c0,27.8-20.4,48.2-46.4,48.2C549,471.2,537.5,466.4,531.4,458.1z M557.9,449.4
			c14.6,0,26-11.4,26-26.3c0-15-11.4-26.3-26-26.3c-14.8,0-26.2,11.4-26.2,26.3C531.7,438,543.1,449.4,557.9,449.4z"/>
		<path class="st1" d="M675.9,470.5c-22.2,0-34.8-11.9-34.8-35.9v-37.5h-18.8c-2.3,0-4.1-1.8-4.1-4.1v-12.3c0-2.3,1.8-4.1,4.1-4.1
			h12.1c3.7,0,6.7-3,6.7-6.7v-15.5c0-5.7,4.6-10.3,10.3-10.3h12.2v32.5h30.2c2.3,0,4.1,1.8,4.1,4.1V393c0,2.3-1.8,4.1-4.1,4.1h-30.2
			v35.4c0,11.2,4.5,16.2,16.6,16.2c4,0,9.1-0.2,16.1-1c0.8-0.1,1.6,0.5,1.6,1.4v18.8c0,0.7-0.5,1.3-1.2,1.4
			C689.5,470.2,682,470.5,675.9,470.5z"/>
		<g>
			<path class="st1" d="M216.4,374.7c-12.1,0-23.1,4.9-29.4,13.4v-55.6c0-2.1-1.7-3.8-3.8-3.8h-28.9c-5.7,0-10.3,4.6-10.3,10.3v10.2
				c0,1,0.8,1.8,1.8,1.8h18.7v72.4c0,27.6,20.2,48,48.9,48c28.3,0,48.9-20.4,48.9-48.2C262.3,395.1,242.2,374.7,216.4,374.7z
				 M213.6,449.4c-15.5,0-26.2-11.2-26.2-26.3s11-26.3,26.2-26.3c14.8,0,25.8,11.2,25.8,26.3S228.3,449.4,213.6,449.4z"/>
		</g>
	</g>
	<g>
		<path class="st4" d="M171.4,494.7h-3.1v5.3c0,1.4,0,2.4,1.6,2.4c0.5,0,1.1-0.1,1.6-0.4l0.1,1.6c-0.6,0.3-1.4,0.4-2.1,0.4
			c-2.5,0-2.9-1.4-2.9-3.5v-5.8h-2.3v-1.5h2.3v-3h1.8v3h3.1V494.7z"/>
		<path class="st4" d="M182.9,501.8c-1.2,1.6-2.7,2.2-4.7,2.2c-3.3,0-5.3-2.5-5.3-5.5c0-3.3,2.3-5.5,5.4-5.5c3,0,5,2,5,5.5v0.6h-8.5
			c0.1,1.8,1.5,3.4,3.5,3.4c1.5,0,2.5-0.5,3.4-1.6L182.9,501.8z M181.4,497.5c-0.1-1.8-1.2-3-3.2-3c-1.9,0-3.2,1.2-3.5,3H181.4z"/>
		<path class="st4" d="M193.5,495.8c-0.7-0.9-1.6-1.3-2.7-1.3c-2.4,0-3.6,1.8-3.6,3.9c0,2.2,1.4,3.9,3.6,3.9c1.2,0,2-0.4,2.7-1.3
			l1.3,1.2c-1,1.2-2.5,1.7-4,1.7c-3.3,0-5.5-2.3-5.5-5.5c0-3.2,2.2-5.5,5.5-5.5c1.6,0,3,0.5,4.1,1.7L193.5,495.8z"/>
		<path class="st4" d="M196.9,495.7c0-1-0.1-1.8-0.1-2.5h1.7c0,0.6,0,1.2,0,1.7h0c0.5-1,1.8-2,3.5-2c2.8,0,4,1.8,4,4.3v6.5h-1.8
			v-6.3c0-1.8-0.8-2.9-2.4-2.9c-2.3,0-3.3,1.6-3.3,4.1v5.1h-1.8V495.7z"/>
		<path class="st4" d="M214.4,492.9c3.2,0,5.6,2.3,5.6,5.5c0,3.3-2.4,5.5-5.6,5.5s-5.6-2.3-5.6-5.5
			C208.8,495.2,211.2,492.9,214.4,492.9z M214.4,502.4c2.3,0,3.7-1.7,3.7-3.9c0-2.2-1.5-3.9-3.7-3.9c-2.3,0-3.7,1.7-3.7,3.9
			C210.7,500.7,212.2,502.4,214.4,502.4z"/>
		<path class="st4" d="M223,486.7h1.8v17H223V486.7z"/>
		<path class="st4" d="M233.2,492.9c3.2,0,5.6,2.3,5.6,5.5c0,3.3-2.4,5.5-5.6,5.5s-5.6-2.3-5.6-5.5
			C227.6,495.2,230,492.9,233.2,492.9z M233.2,502.4c2.3,0,3.7-1.7,3.7-3.9c0-2.2-1.5-3.9-3.7-3.9c-2.3,0-3.7,1.7-3.7,3.9
			C229.5,500.7,231,502.4,233.2,502.4z"/>
		<path class="st4" d="M252.1,503.2c0,3.8-2.1,5.9-5.7,5.9c-2.1,0-3.7-0.5-5.2-2l1.3-1.4c1.1,1.2,2.3,1.8,3.9,1.8c3.2,0,4-2,4-4.3
			v-1.4h0c-0.8,1.4-2.3,2-3.7,2c-3.3,0-5.6-2.3-5.6-5.4c0-3.5,2.3-5.5,5.6-5.5c1.4,0,3,0.7,3.7,2.1h0v-1.8h1.8V503.2z M246.6,502.2
			c2.4,0,3.8-1.8,3.8-3.8c0-2.3-1.5-3.9-3.8-3.9c-2.2,0-3.7,1.7-3.7,3.9C242.9,500.6,244.5,502.2,246.6,502.2z"/>
		<path class="st4" d="M256.4,487.8c0.7,0,1.3,0.6,1.3,1.3c0,0.7-0.5,1.3-1.3,1.3s-1.3-0.5-1.3-1.3
			C255.1,488.3,255.7,487.8,256.4,487.8z M255.5,493.2h1.8v10.6h-1.8V493.2z"/>
		<path class="st4" d="M260.6,494.5c1.1-1.1,2.7-1.6,4.2-1.6c3.1,0,4.4,1.5,4.4,4.5v4.5c0,0.6,0.1,1.3,0.2,1.8h-1.7
			c-0.1-0.5-0.1-1.1-0.1-1.6h0c-0.7,1.1-1.9,1.9-3.5,1.9c-2.1,0-3.9-1.1-3.9-3.1c0-3.5,4.1-3.7,6.7-3.7h0.7v-0.3
			c0-1.5-1-2.3-2.6-2.3c-1.1,0-2.3,0.4-3.1,1.2L260.6,494.5z M265.7,498.6c-2.2,0-3.7,0.6-3.7,2c0,1.3,1,1.8,2.3,1.8
			c2,0,3.1-1.5,3.1-3.2v-0.7H265.7z"/>
		<path class="st4" d="M281.1,495.2c1.6,0,2.8,1.3,2.8,2.8s-1.3,2.8-2.8,2.8c-1.6,0-2.8-1.3-2.8-2.8S279.5,495.2,281.1,495.2z"/>
		<path class="st4" d="M293,495.7c0-1-0.1-1.8-0.1-2.5h1.7c0,0.6,0,1.2,0,1.7h0c0.5-1,1.8-2,3.5-2c0.2,0,0.5,0,0.7,0.1l-0.1,1.8
			c-0.3-0.1-0.6-0.1-0.9-0.1c-2.1,0-3.1,1.5-3.1,3.9v5.1H293V495.7z"/>
		<path class="st4" d="M310,501.8c-1.2,1.6-2.7,2.2-4.7,2.2c-3.3,0-5.3-2.5-5.3-5.5c0-3.3,2.3-5.5,5.4-5.5c3,0,5,2,5,5.5v0.6h-8.5
			c0.1,1.8,1.5,3.4,3.5,3.4c1.5,0,2.5-0.5,3.4-1.6L310,501.8z M308.5,497.5c-0.1-1.8-1.2-3-3.2-3c-1.9,0-3.2,1.2-3.5,3H308.5z"/>
		<path class="st4" d="M313.3,500.9c0.7,0.9,1.5,1.4,2.7,1.4c1.1,0,2.3-0.5,2.3-1.6c0-1.1-1.1-1.4-2.3-1.7c-2-0.4-3.7-0.9-3.7-3.1
			c0-2.1,2-3.1,3.9-3.1c1.5,0,2.9,0.6,3.6,1.9l-1.5,1c-0.5-0.7-1.2-1.3-2.2-1.3c-1,0-2.1,0.5-2.1,1.5c0,0.9,1.3,1.3,2.7,1.5
			c1.9,0.4,3.5,1,3.5,3.2c0,2.4-2.1,3.3-4.2,3.3c-1.8,0-3.1-0.5-4.1-2L313.3,500.9z"/>
		<path class="st4" d="M331.9,501.2c0,1,0.1,1.8,0.1,2.5h-1.7c0-0.6,0-1.2,0-1.7h0c-0.5,1-1.8,2-3.5,2c-2.8,0-4-1.8-4-4.3v-6.5h1.8
			v6.3c0,1.8,0.8,2.9,2.4,2.9c2.3,0,3.3-1.6,3.3-4.1v-5.1h1.8V501.2z"/>
		<path class="st4" d="M335.3,486.7h1.8v17h-1.8V486.7z"/>
		<path class="st4" d="M346.4,494.7h-3.1v5.3c0,1.4,0,2.4,1.6,2.4c0.5,0,1.1-0.1,1.6-0.4l0.1,1.6c-0.6,0.3-1.4,0.4-2.1,0.4
			c-2.5,0-2.9-1.4-2.9-3.5v-5.8h-2.3v-1.5h2.3v-3h1.8v3h3.1V494.7z"/>
		<path class="st4" d="M348.4,494.5c1.1-1.1,2.7-1.6,4.2-1.6c3.1,0,4.4,1.5,4.4,4.5v4.5c0,0.6,0.1,1.3,0.2,1.8h-1.7
			c-0.1-0.5-0.1-1.1-0.1-1.6h0c-0.7,1.1-1.9,1.9-3.5,1.9c-2.1,0-3.9-1.1-3.9-3.1c0-3.5,4.1-3.7,6.7-3.7h0.7v-0.3
			c0-1.5-1-2.3-2.6-2.3c-1.1,0-2.3,0.4-3.1,1.2L348.4,494.5z M353.5,498.6c-2.2,0-3.7,0.6-3.7,2c0,1.3,1,1.8,2.3,1.8
			c2,0,3.1-1.5,3.1-3.2v-0.7H353.5z"/>
		<path class="st4" d="M369,501.9L369,501.9c-0.7,1.2-2.2,2.1-4.1,2.1c-3,0-5.3-2.4-5.3-5.5c0-3.2,2.2-5.5,5.5-5.5
			c1.5,0,2.8,0.7,3.8,1.8h0v-8h1.8v17H369V501.9z M365.2,494.5c-2.3,0-3.7,1.7-3.7,3.9c0,2.2,1.5,3.9,3.7,3.9c2.3,0,3.7-1.7,3.7-3.9
			C369,496.2,367.5,494.5,365.2,494.5z"/>
		<path class="st4" d="M379,492.9c3.2,0,5.6,2.3,5.6,5.5c0,3.3-2.4,5.5-5.6,5.5s-5.6-2.3-5.6-5.5C373.4,495.2,375.8,492.9,379,492.9
			z M379,502.4c2.3,0,3.7-1.7,3.7-3.9c0-2.2-1.5-3.9-3.7-3.9s-3.7,1.7-3.7,3.9C375.3,500.7,376.7,502.4,379,502.4z"/>
		<path class="st4" d="M396,495.2c1.6,0,2.8,1.3,2.8,2.8s-1.3,2.8-2.8,2.8c-1.6,0-2.8-1.3-2.8-2.8S394.4,495.2,396,495.2z"/>
		<path class="st4" d="M413.6,495.9c-0.5-0.7-1.2-1.1-2.1-1.1c-0.7,0-1.6,0.3-1.6,1.2c0,1.9,5.8,0.4,5.8,4.6c0,2.6-2.5,3.5-4.7,3.5
			c-1.7,0-3.1-0.4-4.2-1.7l1.8-1.7c0.7,0.8,1.4,1.3,2.6,1.3c0.8,0,1.8-0.4,1.8-1.2c0-2.2-5.8-0.5-5.8-4.6c0-2.4,2.2-3.5,4.4-3.5
			c1.4,0,3,0.4,3.9,1.6L413.6,495.9z"/>
		<path class="st4" d="M427.7,503.7h-2.6V502h0c-0.5,1.1-1.5,2-3.3,2c-2.9,0-3.9-2.1-3.9-4.3v-6.8h2.7v5.5c0,1.2,0.1,3.2,2,3.2
			c1.8,0,2.5-1.3,2.5-2.8v-5.9h2.7V503.7z"/>
		<path class="st4" d="M438.1,496.1c-0.6-0.7-1.3-1.1-2.1-1.1c-2,0-3.2,1.6-3.2,3.2c0,1.7,1.2,3.2,3.2,3.2c0.8,0,1.6-0.4,2.1-1
			l1.8,1.9c-1.1,1.1-3,1.5-3.9,1.5c-3.3,0-5.9-2.3-5.9-5.7s2.6-5.7,5.9-5.7c1.4,0,2.9,0.5,3.9,1.6L438.1,496.1z"/>
		<path class="st4" d="M443.7,499.3c0.2,1.6,1.4,2.6,2.9,2.6c1.4,0,2.2-0.6,2.9-1.5l1.9,1.5c-1.3,1.6-2.9,2.2-4.6,2.2
			c-3.3,0-5.9-2.3-5.9-5.7s2.6-5.7,5.9-5.7c3,0,5.1,2.1,5.1,5.9v0.7H443.7z M449.3,497.2c0-1.6-1.1-2.6-2.8-2.6
			c-1.6,0-2.6,1-2.8,2.6H449.3z"/>
		<path class="st4" d="M460.3,495.9c-0.5-0.7-1.2-1.1-2.1-1.1c-0.7,0-1.6,0.3-1.6,1.2c0,1.9,5.8,0.4,5.8,4.6c0,2.6-2.5,3.5-4.7,3.5
			c-1.7,0-3.1-0.4-4.2-1.7l1.8-1.7c0.7,0.8,1.4,1.3,2.6,1.3c0.8,0,1.8-0.4,1.8-1.2c0-2.2-5.8-0.5-5.8-4.6c0-2.4,2.2-3.5,4.4-3.5
			c1.4,0,3,0.4,3.9,1.6L460.3,495.9z"/>
		<path class="st4" d="M470.3,495.9c-0.5-0.7-1.2-1.1-2.1-1.1c-0.7,0-1.6,0.3-1.6,1.2c0,1.9,5.8,0.4,5.8,4.6c0,2.6-2.5,3.5-4.7,3.5
			c-1.7,0-3.1-0.4-4.2-1.7l1.8-1.7c0.7,0.8,1.4,1.3,2.6,1.3c0.8,0,1.8-0.4,1.8-1.2c0-2.2-5.8-0.5-5.8-4.6c0-2.4,2.2-3.5,4.4-3.5
			c1.4,0,3,0.4,3.9,1.6L470.3,495.9z"/>
		<path class="st4" d="M479.9,492.6c3.3,0,5.9,2.3,5.9,5.7s-2.6,5.7-5.9,5.7c-3.3,0-5.9-2.3-5.9-5.7S476.6,492.6,479.9,492.6z
			 M479.9,501.6c2,0,3.2-1.6,3.2-3.2c0-1.7-1.2-3.2-3.2-3.2c-2,0-3.2,1.6-3.2,3.2C476.7,500,477.9,501.6,479.9,501.6z"/>
	</g>
</g>
<g>
	<path class="st1" d="M197.8,541.7c0-0.7,0.2-1.2,0.6-1.6c0.4-0.4,0.9-0.6,1.6-0.6h5.4c1.4,0,2.6,0.4,3.6,1.1
		c0.9,0.8,1.4,1.8,1.4,3.2c0,1.7-0.9,2.9-2.6,3.7c1,0.2,1.8,0.7,2.4,1.4s0.9,1.6,0.9,2.6c0,1.4-0.5,2.4-1.4,3.3
		c-0.9,0.8-2.1,1.2-3.5,1.2h-6.1c-0.7,0-1.2-0.2-1.6-0.6s-0.6-0.9-0.6-1.6V541.7z M208.5,544c0-0.9-0.3-1.6-0.9-2
		c-0.6-0.5-1.4-0.7-2.3-0.7h-5c-0.5,0-0.7,0.2-0.7,0.7v4.9h5.8c0.9,0,1.7-0.3,2.3-0.8S208.5,544.9,208.5,544z M199.6,553.7
		c0,0.2,0.1,0.4,0.2,0.5c0.1,0.1,0.3,0.2,0.5,0.2h5.8c0.9,0,1.6-0.3,2.2-0.8c0.6-0.5,0.9-1.2,0.9-2.1c0-0.9-0.3-1.7-1-2.2
		c-0.7-0.6-1.5-0.8-2.6-0.8h-5.9V553.7z"/>
	<path class="st1" d="M228.2,549c-0.3,0.5-0.5,0.8-0.8,1v6.1h-1.8V550c-0.3-0.2-0.7-0.6-0.9-1.1l-5.2-9.4h2.1l4.6,8.5
		c0.1,0.2,0.2,0.3,0.3,0.3c0.1,0,0.2-0.1,0.3-0.3l4.6-8.5h2L228.2,549z"/>
	<path class="st1" d="M262.9,556.3c-4.1,0-6.5-1.7-7.2-5.2h1.9c0.6,2.3,2.3,3.5,5.2,3.5c1.4,0,2.5-0.3,3.4-0.8
		c0.9-0.6,1.3-1.4,1.3-2.5c0-1.7-1.1-2.5-3.3-2.7l-3.2-0.2c-1.5-0.1-2.7-0.5-3.6-1.3c-0.9-0.8-1.3-1.8-1.3-3.1
		c0-1.5,0.6-2.6,1.7-3.5c1.1-0.8,2.6-1.3,4.5-1.3c1,0,1.9,0.1,2.8,0.4c0.9,0.3,1.7,0.7,2.4,1.4c0.7,0.7,1.2,1.6,1.5,2.6h-1.9
		c-0.6-1.8-2.2-2.7-4.8-2.7c-1.4,0-2.5,0.3-3.2,0.8c-0.8,0.5-1.1,1.3-1.1,2.2c0,1.7,1.1,2.5,3.3,2.7l3.1,0.2
		c1.6,0.1,2.8,0.5,3.7,1.2s1.3,1.8,1.3,3.1c0,1.6-0.6,2.9-1.8,3.8C266.4,555.9,264.9,556.3,262.9,556.3z"/>
	<path class="st1" d="M280.4,549.7v-10.2h1.8v10.2c0,1.4,0.5,2.6,1.4,3.5s2.1,1.4,3.5,1.4c1.4,0,2.6-0.5,3.5-1.4
		c0.9-0.9,1.4-2.1,1.4-3.5v-10.2h1.8v10.2c0,1.9-0.6,3.5-1.9,4.7s-2.9,1.9-4.8,1.9c-1.9,0-3.5-0.6-4.8-1.9
		C281.1,553.2,280.4,551.6,280.4,549.7z"/>
	<path class="st1" d="M321.4,550.4c-0.6,1.9-1.6,3.4-3,4.4c-1.4,1-3,1.5-5,1.5c-2.5,0-4.5-0.8-6.1-2.4c-1.6-1.6-2.3-3.6-2.3-6.1
		c0-2.5,0.8-4.5,2.3-6.1c1.6-1.6,3.6-2.4,6.1-2.4c2,0,3.6,0.5,5,1.6c1.4,1,2.4,2.5,2.9,4.4h-1.9c-0.5-1.3-1.3-2.4-2.3-3.1
		c-1.1-0.7-2.3-1.1-3.7-1.1c-2,0-3.6,0.6-4.8,1.9c-1.2,1.3-1.8,2.9-1.8,4.9c0,2,0.6,3.6,1.8,4.9c1.2,1.3,2.8,1.9,4.8,1.9
		c1.4,0,2.7-0.4,3.7-1.1c1-0.7,1.8-1.8,2.3-3.1H321.4z"/>
	<path class="st1" d="M343.4,554.4v1.7h-9c-0.7,0-1.2-0.2-1.6-0.6s-0.6-0.9-0.6-1.6v-12.2c0-0.7,0.2-1.2,0.6-1.6
		c0.4-0.4,0.9-0.6,1.6-0.6h8.9v1.7h-8.5c-0.2,0-0.4,0.1-0.5,0.2c-0.1,0.1-0.2,0.3-0.2,0.5v4.9h8.8v1.7h-8.8v5.3
		c0,0.2,0.1,0.4,0.2,0.5c0.1,0.1,0.3,0.2,0.5,0.2H343.4z"/>
	<path class="st1" d="M360.6,556.3c-4.1,0-6.5-1.7-7.2-5.2h1.9c0.6,2.3,2.3,3.5,5.2,3.5c1.4,0,2.5-0.3,3.4-0.8
		c0.9-0.6,1.3-1.4,1.3-2.5c0-1.7-1.1-2.5-3.3-2.7l-3.2-0.2c-1.5-0.1-2.7-0.5-3.6-1.3c-0.9-0.8-1.3-1.8-1.3-3.1
		c0-1.5,0.6-2.6,1.7-3.5c1.1-0.8,2.6-1.3,4.5-1.3c1,0,1.9,0.1,2.8,0.4c0.9,0.3,1.7,0.7,2.4,1.4c0.7,0.7,1.2,1.6,1.5,2.6h-1.9
		c-0.6-1.8-2.2-2.7-4.8-2.7c-1.4,0-2.5,0.3-3.2,0.8c-0.8,0.5-1.1,1.3-1.1,2.2c0,1.7,1.1,2.5,3.3,2.7l3.1,0.2
		c1.6,0.1,2.8,0.5,3.7,1.2s1.3,1.8,1.3,3.1c0,1.6-0.6,2.9-1.8,3.8C364.1,555.9,362.5,556.3,360.6,556.3z"/>
	<path class="st1" d="M384.1,556.3c-4.1,0-6.5-1.7-7.2-5.2h1.9c0.6,2.3,2.3,3.5,5.2,3.5c1.4,0,2.5-0.3,3.4-0.8
		c0.9-0.6,1.3-1.4,1.3-2.5c0-1.7-1.1-2.5-3.3-2.7l-3.2-0.2c-1.5-0.1-2.7-0.5-3.6-1.3c-0.9-0.8-1.3-1.8-1.3-3.1
		c0-1.5,0.6-2.6,1.7-3.5c1.1-0.8,2.6-1.3,4.5-1.3c1,0,1.9,0.1,2.8,0.4c0.9,0.3,1.7,0.7,2.4,1.4c0.7,0.7,1.2,1.6,1.5,2.6h-1.9
		c-0.6-1.8-2.2-2.7-4.8-2.7c-1.4,0-2.5,0.3-3.2,0.8c-0.8,0.5-1.1,1.3-1.1,2.2c0,1.7,1.1,2.5,3.3,2.7l3.1,0.2
		c1.6,0.1,2.8,0.5,3.7,1.2s1.3,1.8,1.3,3.1c0,1.6-0.6,2.9-1.8,3.8C387.6,555.9,386.1,556.3,384.1,556.3z"/>
	<path class="st1" d="M415.5,553.9c-1.6,1.6-3.7,2.4-6.2,2.4c-2.5,0-4.6-0.8-6.2-2.4s-2.4-3.6-2.4-6.1c0-2.5,0.8-4.5,2.4-6.1
		c1.6-1.6,3.7-2.4,6.1-2.4c2.5,0,4.5,0.8,6.1,2.4c1.6,1.6,2.4,3.6,2.4,6.1C417.9,550.3,417.1,552.4,415.5,553.9z M409.3,554.6
		c2,0,3.6-0.6,4.8-1.9s1.9-2.9,1.9-4.9c0-2-0.6-3.6-1.9-4.9s-2.9-1.9-4.8-1.9c-2,0-3.6,0.6-4.8,1.9s-1.9,2.9-1.9,4.9
		c0,2,0.6,3.6,1.9,4.9S407.3,554.6,409.3,554.6z"/>
	<path class="st1" d="M454.2,554.4v1.7h-9c-0.7,0-1.2-0.2-1.6-0.6c-0.4-0.4-0.6-0.9-0.6-1.6v-12.2c0-0.7,0.2-1.2,0.6-1.6
		c0.4-0.4,0.9-0.6,1.6-0.6h8.9v1.7h-8.5c-0.2,0-0.4,0.1-0.5,0.2c-0.1,0.1-0.2,0.3-0.2,0.5v4.9h8.8v1.7h-8.8v5.3
		c0,0.2,0.1,0.4,0.2,0.5c0.1,0.1,0.3,0.2,0.5,0.2H454.2z"/>
	<path class="st1" d="M475,552.3c-0.9,0-1.5-0.5-2-1.4l-4.6-9.1c-0.1-0.3-0.3-0.4-0.5-0.4c-0.1,0-0.2,0-0.3,0.1
		c-0.1,0.1-0.1,0.2-0.1,0.3v14.3h-1.8v-14.3c0-0.8,0.2-1.3,0.5-1.8c0.3-0.4,0.9-0.6,1.6-0.6c0.6,0,1,0.1,1.4,0.4
		c0.4,0.3,0.7,0.8,1,1.5l4.4,8.7c0.1,0.2,0.3,0.4,0.5,0.4c0.2,0,0.4-0.1,0.5-0.4l4.4-8.7c0.3-0.7,0.6-1.2,1-1.5
		c0.4-0.3,0.8-0.4,1.4-0.4c1.4,0,2.1,0.8,2.1,2.4v14.3h-1.8v-14.3c0-0.3-0.1-0.5-0.4-0.5c-0.2,0-0.4,0.1-0.5,0.4l-4.6,9.1
		C476.6,551.9,475.9,552.3,475,552.3z"/>
	<path class="st1" d="M521.7,539.5h1.9l-5.7,15.3c-0.4,0.9-1,1.4-1.8,1.4c-0.5,0-0.9-0.1-1.2-0.3c-0.3-0.2-0.5-0.6-0.7-1.1
		l-5.7-15.3h2l5.4,14.7c0.1,0.2,0.2,0.2,0.3,0.2s0.2-0.1,0.3-0.2L521.7,539.5z"/>
	<path class="st1" d="M545.1,554.4v1.7h-9c-0.7,0-1.2-0.2-1.6-0.6c-0.4-0.4-0.6-0.9-0.6-1.6v-12.2c0-0.7,0.2-1.2,0.6-1.6
		c0.4-0.4,0.9-0.6,1.6-0.6h8.9v1.7h-8.5c-0.2,0-0.4,0.1-0.5,0.2c-0.1,0.1-0.2,0.3-0.2,0.5v4.9h8.8v1.7h-8.8v5.3
		c0,0.2,0.1,0.4,0.2,0.5c0.1,0.1,0.3,0.2,0.5,0.2H545.1z"/>
	<path class="st1" d="M558.4,541.9v14.2h-1.8V542c0-0.8,0.2-1.4,0.6-1.8c0.4-0.5,1-0.7,1.6-0.7c0.6,0,1,0.2,1.4,0.5s0.7,0.9,1.1,1.6
		l6.4,12.1c0.1,0.2,0.2,0.3,0.2,0.4c0,0.1,0.1,0.1,0.2,0.2c0.1,0.1,0.2,0.1,0.3,0.1c0.4,0,0.5-0.2,0.5-0.6v-14.2h1.8v14.1
		c0,0.8-0.2,1.4-0.6,1.8c-0.4,0.5-1,0.7-1.6,0.7c-0.6,0-1-0.2-1.4-0.5s-0.8-0.9-1.1-1.6l-6.4-12.1c-0.1-0.2-0.2-0.3-0.2-0.3
		c0-0.1-0.1-0.1-0.2-0.2c-0.1-0.1-0.2-0.1-0.3-0.1c-0.2,0-0.3,0.1-0.4,0.2C558.5,541.6,558.4,541.7,558.4,541.9z"/>
	<path class="st1" d="M583.5,541.7c0-0.7,0.2-1.2,0.6-1.6c0.4-0.4,0.9-0.6,1.6-0.6h4.1c2.5,0,4.5,0.8,6.2,2.2c1.6,1.5,2.5,3.5,2.5,6
		c0,2.5-0.8,4.5-2.5,6c-1.6,1.5-3.7,2.2-6.2,2.2h-4.1c-0.7,0-1.2-0.2-1.6-0.6c-0.4-0.4-0.6-0.9-0.6-1.6V541.7z M596.6,547.8
		c0-2-0.6-3.6-1.9-4.8c-1.3-1.2-2.9-1.8-4.8-1.8H586c-0.2,0-0.4,0.1-0.5,0.2c-0.1,0.1-0.2,0.3-0.2,0.5v11.7c0,0.2,0.1,0.4,0.2,0.5
		c0.1,0.1,0.3,0.2,0.5,0.2h3.8c1.9,0,3.6-0.6,4.8-1.8C595.9,551.4,596.6,549.8,596.6,547.8z"/>
	<path class="st1" d="M621,556.1l-2.1-5.3h-7.8l-2,5.3h-1.9l6-15.2c0.2-0.5,0.4-0.8,0.7-1.1c0.3-0.2,0.6-0.4,1.1-0.4
		c0.5,0,0.9,0.1,1.2,0.4s0.5,0.6,0.7,1.1l6,15.2H621z M614.7,541.5l-3,7.6h6.5l-3-7.6c-0.1-0.2-0.2-0.2-0.3-0.2
		S614.8,541.3,614.7,541.5z"/>
	<path class="st1" d="M638.9,556.3c-4.1,0-6.5-1.7-7.2-5.2h1.9c0.6,2.3,2.3,3.5,5.2,3.5c1.4,0,2.5-0.3,3.4-0.8
		c0.9-0.6,1.3-1.4,1.3-2.5c0-1.7-1.1-2.5-3.3-2.7l-3.2-0.2c-1.5-0.1-2.7-0.5-3.6-1.3s-1.3-1.8-1.3-3.1c0-1.5,0.6-2.6,1.7-3.5
		c1.1-0.8,2.6-1.3,4.5-1.3c1,0,1.9,0.1,2.8,0.4c0.9,0.3,1.7,0.7,2.4,1.4c0.7,0.7,1.2,1.6,1.5,2.6h-1.9c-0.6-1.8-2.2-2.7-4.8-2.7
		c-1.4,0-2.5,0.3-3.2,0.8s-1.1,1.3-1.1,2.2c0,1.7,1.1,2.5,3.3,2.7l3.1,0.2c1.6,0.1,2.8,0.5,3.7,1.2c0.9,0.7,1.3,1.8,1.3,3.1
		c0,1.6-0.6,2.9-1.8,3.8C642.4,555.9,640.9,556.3,638.9,556.3z"/>
</g>
</svg>
