<?xml version="1.0" encoding="utf-8"?>
<!-- Generator: Adobe Illustrator 28.2.0, SVG Export Plug-In . SVG Version: 6.00 Build 0)  -->
<svg version="1.0" id="Camada_1" xmlns="http://www.w3.org/2000/svg" xmlns:xlink="http://www.w3.org/1999/xlink" x="0px"
	y="0px" viewBox="110 190 620 210" style="enable-background:new 0 0 841.9 595.3;" xml:space="preserve">
	<style type="text/css">
		.st0 {
			fill: #FFFFFF;
		}

		.st1 {
			fill: #1717FF;
		}

		.st2 {
			fill: url(#SVGID_1_);
		}

		.st3 {
			fill: url(#SVGID_00000039127661815221228100000000929370994552856757_);
		}

		.st4 {
			fill: #FF7730;
		}

		.st5 {
			fill: url(#SVGID_00000103965184524484301170000014589662338116520383_);
		}

		.st6 {
			fill: url(#SVGID_00000022545963984561413740000005373662586066700174_);
		}

		.st7 {
			fill: url(#SVGID_00000101087067879213204840000016701122251819639427_);
		}
	</style>
	<g>
		<path class="st1" d="M262.4,302.3c0-31.5,22.9-53.8,54.2-53.8c31.5,0,54.2,22.3,54.2,53.8s-22.7,53.6-54.2,53.6
		C285.3,355.8,262.4,333.8,262.4,302.3z M345.3,302.3c0-17-11.6-29.3-28.7-29.3c-16.8,0-28.7,12.2-28.7,29.3
		c0,16.8,11.8,29.3,28.7,29.3C333.6,331.6,345.3,319.1,345.3,302.3z" />
		<path class="st1" d="M388.4,302.3c0-31.5,22.9-53.8,54.2-53.8c31.5,0,54.2,22.3,54.2,53.8s-22.7,53.6-54.2,53.6
		C411.3,355.8,388.4,333.8,388.4,302.3z M471.2,302.3c0-17-11.6-29.3-28.7-29.3c-16.8,0-28.7,12.2-28.7,29.3
		c0,16.8,11.8,29.3,28.7,29.3C459.6,331.6,471.2,319.1,471.2,302.3z" />
		<path class="st1"
			d="M543.7,341.2v45.5c0,6.2-5.1,11.3-11.3,11.3h-10c-2.1,0-3.8-1.7-3.8-3.8v-91.9c0-31.4,24.3-54.5,56.2-53.7
		c29.6,0.7,52.7,24.2,52.7,53.7c0,30.9-22.7,53.5-51.5,53.5C563.3,355.8,550.5,350.4,543.7,341.2z M573.2,331.6
		c16.2,0,28.9-12.6,28.9-29.3c0-16.6-12.6-29.3-28.9-29.3c-16.4,0-29.1,12.6-29.1,29.3C544.1,318.9,556.7,331.6,573.2,331.6z" />
		<path class="st1" d="M704.3,355c-24.7,0-38.7-13.2-38.7-39.9v-41.7h-20.9c-2.5,0-4.6-2-4.6-4.6v-13.7c0-2.5,2-4.6,4.6-4.6h13.5
		c4.1,0,7.4-3.3,7.4-7.4v-17.2c0-6.4,5.2-11.5,11.5-11.5h13.6v36.1h33.5c2.5,0,4.6,2,4.6,4.6v13.7c0,2.5-2,4.6-4.6,4.6h-33.5v39.3
		c0,12.4,5,18.1,18.4,18.1c4.5,0,10.2-0.2,17.9-1.2c0.9-0.1,1.8,0.6,1.8,1.5v20.9c0,0.8-0.6,1.5-1.4,1.6
		C719.4,354.7,711.2,355,704.3,355z" />
		<g>
			<path class="st1" d="M193.6,248.5c-13.4,0-25.7,5.4-32.7,14.8v-61.8c0-2.3-1.9-4.2-4.3-4.2h-32.1c-6.3,0-11.4,5.1-11.4,11.4V220
			c0,1.1,0.9,2,2,2h20.8v80.4c0,30.7,22.5,53.4,54.4,53.4c31.5,0,54.4-22.7,54.4-53.6C244.6,271.2,222.3,248.5,193.6,248.5z
			 M190.4,331.6c-17.3,0-29.1-12.4-29.1-29.3c0-16.9,12.2-29.3,29.1-29.3c16.4,0,28.7,12.4,28.7,29.3
			C219.1,319.1,206.9,331.6,190.4,331.6z" />
		</g>
	</g>
</svg>