<?xml version="1.0" encoding="utf-8"?>
<!-- Generator: Adobe Illustrator 28.2.0, SVG Export Plug-In . SVG Version: 6.00 Build 0)  -->
<svg version="1.0" id="Camada_1" xmlns="http://www.w3.org/2000/svg" xmlns:xlink="http://www.w3.org/1999/xlink" x="0px"
	y="0px" viewBox="60 170 730 260" style="enable-background:new 0 0 841.9 595.3;" xml:space="preserve">
	<style type="text/css">
		.st0 {
			fill: #FFFFFF;
		}

		.st1 {
			fill: #1717FF;
		}

		.st2 {
			fill: url(#SVGID_1_);
		}

		.st3 {
			fill: url(#SVGID_00000181803961950147477580000013829919750940757902_);
		}

		.st4 {
			fill: #FF7730;
		}

		.st5 {
			fill: url(#SVGID_00000119094970536278474050000007643173486370204847_);
		}

		.st6 {
			fill: url(#SVGID_00000113342351256392014230000008177122255741350079_);
		}

		.st7 {
			fill: url(#SVGID_00000049915588857544093020000007286103306246762650_);
		}
	</style>
	<g>
		<g>
			<g>
				<path class="st0" d="M228.4,297.6c0,36.9-30.7,66.7-67.9,65.3c-35.4-1.3-62.8-31.5-62.8-66.9l0-92.1H70c-1.5,0-2.6-1.2-2.6-2.6
				v-14.8c0-8.3,6.7-15,15-15h42.2c3.1,0,5.6,2.5,5.6,5.6v120.6c0,18.5,15.3,33.5,33.8,32.9c17.1-0.5,31.4-14.8,31.9-31.9
				c0.5-16.9-11.8-31.1-28-33.5c-2.8-0.4-4.9-2.7-4.9-5.5l0-27.3C199.1,232.3,228.4,261.6,228.4,297.6z" />
			</g>
			<g>
				<path class="st0" d="M163,423.8c-52.8,0-95.8-43-95.8-95.8s43-95.8,95.8-95.8v9c-47.8,0-86.8,38.9-86.8,86.8s38.9,86.8,86.8,86.8
				V423.8z" />
			</g>
			<g>
				<path class="st0"
					d="M289.2,297.6c0,69.6-56.6,126.2-126.2,126.2l0-27.1c0-2.9,2.2-5.4,5.2-5.6c49.3-2.7,88.6-43.6,88.6-93.6
				c0-49.9-39.3-90.9-88.6-93.5c-2.9-0.2-5.2-2.6-5.2-5.6l0-24.4c0-1.5,1.2-2.7,2.7-2.7C234.1,172.9,289.2,229,289.2,297.6z" />
			</g>
		</g>
		<g>
			<path class="st0" d="M439.1,301c0-22.7,16.5-38.7,39-38.7c22.7,0,39,16,39,38.7c0,22.7-16.3,38.5-39,38.5
			C455.5,339.5,439.1,323.6,439.1,301z M498.7,301c0-12.3-8.4-21.1-20.6-21.1c-12.1,0-20.6,8.8-20.6,21.1c0,12.1,8.5,21.1,20.6,21.1
			C490.3,322.1,498.7,313.1,498.7,301z" />
			<path class="st0" d="M529.7,301c0-22.7,16.5-38.7,39-38.7c22.7,0,39,16,39,38.7c0,22.7-16.3,38.5-39,38.5
			C546.2,339.5,529.7,323.6,529.7,301z M589.3,301c0-12.3-8.4-21.1-20.6-21.1c-12.1,0-20.6,8.8-20.6,21.1c0,12.1,8.5,21.1,20.6,21.1
			C580.9,322.1,589.3,313.1,589.3,301z" />
			<path class="st0" d="M641.4,329v32.7c0,4.5-3.6,8.1-8.1,8.1h-7.2c-1.5,0-2.7-1.2-2.7-2.7V301c0-22.6,17.5-39.2,40.4-38.7
			c21.3,0.5,38,17.4,37.9,38.7c0,22.2-16.3,38.5-37.1,38.5C655.6,339.5,646.3,335.6,641.4,329z M662.6,322.1
			c11.7,0,20.8-9.1,20.8-21.1c0-12-9.1-21.1-20.8-21.1c-11.8,0-20.9,9.1-20.9,21.1C641.7,313,650.8,322.1,662.6,322.1z" />
			<path class="st0"
				d="M757,338.9c-17.7,0-27.9-9.5-27.9-28.7v-30h-15c-1.8,0-3.3-1.5-3.3-3.3V267c0-1.8,1.5-3.3,3.3-3.3h9.7
			c2.9,0,5.3-2.4,5.3-5.3v-12.4c0-4.6,3.7-8.3,8.3-8.3h9.8v26h24.1c1.8,0,3.3,1.5,3.3,3.3v9.9c0,1.8-1.5,3.3-3.3,3.3h-24.1v28.3
			c0,8.9,3.6,13,13.3,13c3.2,0,7.3-0.1,12.8-0.8c0.7-0.1,1.3,0.4,1.3,1.1v15c0,0.6-0.4,1.1-1,1.1C767.9,338.7,762,338.9,757,338.9z" />
			<g>
				<path class="st0" d="M389.5,262.3c-9.7,0-18.5,3.9-23.5,10.7v-44.5c0-1.7-1.4-3-3.1-3h-23.1c-4.5,0-8.2,3.7-8.2,8.2v8.1
				c0,0.8,0.6,1.4,1.4,1.4H348v57.9c0,22.1,16.2,38.4,39.1,38.4c22.7,0,39.1-16.3,39.1-38.5C426.2,278.6,410.2,262.3,389.5,262.3z
				 M387.2,322.1c-12.4,0-20.9-8.9-20.9-21.1s8.8-21.1,20.9-21.1c11.8,0,20.6,8.9,20.6,21.1S399.1,322.1,387.2,322.1z" />
			</g>
		</g>
	</g>
	<g>
		<path class="st0"
			d="M330.2,391.3c0-0.7,0.2-1.2,0.6-1.6c0.4-0.4,0.9-0.6,1.6-0.6h5.4c1.4,0,2.6,0.4,3.6,1.1s1.4,1.8,1.4,3.2
		c0,1.7-0.9,2.9-2.6,3.7c1,0.2,1.8,0.7,2.4,1.4s0.9,1.6,0.9,2.6c0,1.4-0.5,2.4-1.4,3.3c-0.9,0.8-2.1,1.2-3.5,1.2h-6.1
		c-0.7,0-1.2-0.2-1.6-0.6s-0.6-0.9-0.6-1.6V391.3z M340.9,393.5c0-0.9-0.3-1.6-0.9-2c-0.6-0.5-1.4-0.7-2.3-0.7h-5
		c-0.5,0-0.7,0.2-0.7,0.7v4.9h5.8c0.9,0,1.7-0.3,2.3-0.8C340.6,395.2,340.9,394.5,340.9,393.5z M332,403.3c0,0.2,0.1,0.4,0.2,0.5
		s0.3,0.2,0.5,0.2h5.8c0.9,0,1.6-0.3,2.2-0.8s0.9-1.2,0.9-2.1c0-0.9-0.3-1.7-1-2.2c-0.7-0.6-1.5-0.8-2.6-0.8H332V403.3z" />
		<path class="st0" d="M360.6,398.5c-0.3,0.5-0.5,0.8-0.8,1v6.1H358v-6.1c-0.3-0.2-0.7-0.6-0.9-1.1l-5.2-9.4h2.1l4.6,8.5
		c0.1,0.2,0.2,0.3,0.3,0.3c0.1,0,0.2-0.1,0.3-0.3l4.6-8.5h2L360.6,398.5z" />
		<path class="st0" d="M395.4,405.9c-4.1,0-6.5-1.7-7.2-5.2h1.9c0.6,2.3,2.3,3.5,5.2,3.5c1.4,0,2.5-0.3,3.4-0.8s1.3-1.4,1.3-2.5
		c0-1.7-1.1-2.5-3.3-2.7l-3.2-0.2c-1.5-0.1-2.7-0.5-3.6-1.3c-0.9-0.8-1.3-1.8-1.3-3.1c0-1.5,0.6-2.6,1.7-3.5
		c1.1-0.8,2.6-1.3,4.5-1.3c1,0,1.9,0.1,2.8,0.4c0.9,0.3,1.7,0.7,2.4,1.4c0.7,0.7,1.2,1.6,1.5,2.6h-1.9c-0.6-1.8-2.2-2.7-4.8-2.7
		c-1.4,0-2.5,0.3-3.2,0.8c-0.8,0.5-1.1,1.3-1.1,2.2c0,1.7,1.1,2.5,3.3,2.7l3.1,0.2c1.6,0.1,2.8,0.5,3.7,1.2s1.3,1.8,1.3,3.1
		c0,1.6-0.6,2.9-1.8,3.8C398.9,405.4,397.3,405.9,395.4,405.9z" />
		<path class="st0" d="M412.9,399.3v-10.2h1.8v10.2c0,1.4,0.5,2.6,1.4,3.5s2.1,1.4,3.5,1.4c1.4,0,2.6-0.5,3.5-1.4
		c0.9-0.9,1.4-2.1,1.4-3.5v-10.2h1.8v10.2c0,1.9-0.6,3.5-1.9,4.7s-2.9,1.9-4.8,1.9c-1.9,0-3.5-0.6-4.8-1.9
		C413.5,402.8,412.9,401.2,412.9,399.3z" />
		<path class="st0" d="M453.9,400c-0.6,1.9-1.6,3.4-3,4.4c-1.4,1-3,1.5-5,1.5c-2.5,0-4.5-0.8-6.1-2.4c-1.6-1.6-2.3-3.6-2.3-6.1
		c0-2.5,0.8-4.5,2.3-6.1s3.6-2.4,6.1-2.4c2,0,3.6,0.5,5,1.6s2.4,2.5,2.9,4.4h-1.9c-0.5-1.3-1.3-2.4-2.3-3.1
		c-1.1-0.7-2.3-1.1-3.7-1.1c-2,0-3.6,0.6-4.8,1.9c-1.2,1.3-1.8,2.9-1.8,4.9c0,2,0.6,3.6,1.8,4.9c1.2,1.3,2.8,1.9,4.8,1.9
		c1.4,0,2.7-0.4,3.7-1.1s1.8-1.8,2.3-3.1H453.9z" />
		<path class="st0" d="M475.9,404v1.7h-9c-0.7,0-1.2-0.2-1.6-0.6c-0.4-0.4-0.6-0.9-0.6-1.6v-12.2c0-0.7,0.2-1.2,0.6-1.6
		s0.9-0.6,1.6-0.6h8.9v1.7h-8.5c-0.2,0-0.4,0.1-0.5,0.2c-0.1,0.1-0.2,0.3-0.2,0.5v4.9h8.8v1.7h-8.8v5.3c0,0.2,0.1,0.4,0.2,0.5
		c0.1,0.1,0.3,0.2,0.5,0.2H475.9z" />
		<path class="st0" d="M493,405.9c-4.1,0-6.5-1.7-7.2-5.2h1.9c0.6,2.3,2.3,3.5,5.2,3.5c1.4,0,2.5-0.3,3.4-0.8
		c0.9-0.6,1.3-1.4,1.3-2.5c0-1.7-1.1-2.5-3.3-2.7l-3.2-0.2c-1.5-0.1-2.7-0.5-3.6-1.3s-1.3-1.8-1.3-3.1c0-1.5,0.6-2.6,1.7-3.5
		c1.1-0.8,2.6-1.3,4.5-1.3c1,0,1.9,0.1,2.8,0.4s1.7,0.7,2.4,1.4c0.7,0.7,1.2,1.6,1.5,2.6h-1.9c-0.6-1.8-2.2-2.7-4.8-2.7
		c-1.4,0-2.5,0.3-3.2,0.8c-0.8,0.5-1.1,1.3-1.1,2.2c0,1.7,1.1,2.5,3.3,2.7l3.1,0.2c1.6,0.1,2.8,0.5,3.7,1.2c0.9,0.7,1.3,1.8,1.3,3.1
		c0,1.6-0.6,2.9-1.8,3.8C496.5,405.4,495,405.9,493,405.9z" />
		<path class="st0" d="M516.6,405.9c-4.1,0-6.5-1.7-7.2-5.2h1.9c0.6,2.3,2.3,3.5,5.2,3.5c1.4,0,2.5-0.3,3.4-0.8
		c0.9-0.6,1.3-1.4,1.3-2.5c0-1.7-1.1-2.5-3.3-2.7l-3.2-0.2c-1.5-0.1-2.7-0.5-3.6-1.3c-0.9-0.8-1.3-1.8-1.3-3.1
		c0-1.5,0.6-2.6,1.7-3.5c1.1-0.8,2.6-1.3,4.5-1.3c1,0,1.9,0.1,2.8,0.4c0.9,0.3,1.7,0.7,2.4,1.4c0.7,0.7,1.2,1.6,1.5,2.6h-1.9
		c-0.6-1.8-2.2-2.7-4.8-2.7c-1.4,0-2.5,0.3-3.2,0.8s-1.1,1.3-1.1,2.2c0,1.7,1.1,2.5,3.3,2.7l3.1,0.2c1.6,0.1,2.8,0.5,3.7,1.2
		c0.9,0.7,1.3,1.8,1.3,3.1c0,1.6-0.6,2.9-1.8,3.8C520.1,405.4,518.5,405.9,516.6,405.9z" />
		<path class="st0" d="M547.9,403.5c-1.6,1.6-3.7,2.4-6.2,2.4s-4.6-0.8-6.2-2.4c-1.6-1.6-2.4-3.6-2.4-6.1c0-2.5,0.8-4.5,2.4-6.1
		c1.6-1.6,3.7-2.4,6.1-2.4c2.5,0,4.5,0.8,6.1,2.4c1.6,1.6,2.4,3.6,2.4,6.1C550.3,399.9,549.5,401.9,547.9,403.5z M541.8,404.2
		c2,0,3.6-0.6,4.8-1.9c1.2-1.3,1.9-2.9,1.9-4.9c0-2-0.6-3.6-1.9-4.9s-2.9-1.9-4.8-1.9c-2,0-3.6,0.6-4.8,1.9
		c-1.3,1.3-1.9,2.9-1.9,4.9c0,2,0.6,3.6,1.9,4.9C538.2,403.6,539.8,404.2,541.8,404.2z" />
		<path class="st0" d="M586.7,404v1.7h-9c-0.7,0-1.2-0.2-1.6-0.6c-0.4-0.4-0.6-0.9-0.6-1.6v-12.2c0-0.7,0.2-1.2,0.6-1.6
		c0.4-0.4,0.9-0.6,1.6-0.6h8.9v1.7h-8.5c-0.2,0-0.4,0.1-0.5,0.2c-0.1,0.1-0.2,0.3-0.2,0.5v4.9h8.8v1.7h-8.8v5.3
		c0,0.2,0.1,0.4,0.2,0.5c0.1,0.1,0.3,0.2,0.5,0.2H586.7z" />
		<path class="st0" d="M607.5,401.9c-0.9,0-1.5-0.5-2-1.4l-4.6-9.1c-0.1-0.3-0.3-0.4-0.5-0.4c-0.1,0-0.2,0-0.3,0.1s-0.1,0.2-0.1,0.3
		v14.3h-1.8v-14.3c0-0.8,0.2-1.3,0.5-1.8c0.3-0.4,0.9-0.6,1.6-0.6c0.6,0,1,0.1,1.4,0.4c0.4,0.3,0.7,0.8,1,1.5l4.4,8.7
		c0.1,0.2,0.3,0.4,0.5,0.4c0.2,0,0.4-0.1,0.5-0.4l4.4-8.7c0.3-0.7,0.6-1.2,1-1.5c0.4-0.3,0.8-0.4,1.4-0.4c1.4,0,2.1,0.8,2.1,2.4
		v14.3H615v-14.3c0-0.3-0.1-0.5-0.4-0.5c-0.2,0-0.4,0.1-0.5,0.4l-4.6,9.1C609,401.4,608.4,401.9,607.5,401.9z" />
		<path class="st0" d="M654.1,389.1h1.9l-5.7,15.3c-0.4,0.9-1,1.4-1.8,1.4c-0.5,0-0.9-0.1-1.2-0.3c-0.3-0.2-0.5-0.6-0.7-1.1
		l-5.7-15.3h2l5.4,14.7c0.1,0.2,0.2,0.2,0.3,0.2s0.2-0.1,0.3-0.2L654.1,389.1z" />
		<path class="st0" d="M677.5,404v1.7h-9c-0.7,0-1.2-0.2-1.6-0.6c-0.4-0.4-0.6-0.9-0.6-1.6v-12.2c0-0.7,0.2-1.2,0.6-1.6
		c0.4-0.4,0.9-0.6,1.6-0.6h8.9v1.7h-8.5c-0.2,0-0.4,0.1-0.5,0.2c-0.1,0.1-0.2,0.3-0.2,0.5v4.9h8.8v1.7h-8.8v5.3
		c0,0.2,0.1,0.4,0.2,0.5c0.1,0.1,0.3,0.2,0.5,0.2H677.5z" />
		<path class="st0"
			d="M690.9,391.5v14.2h-1.8v-14.1c0-0.8,0.2-1.4,0.6-1.8c0.4-0.5,1-0.7,1.6-0.7c0.6,0,1,0.2,1.4,0.5
		s0.7,0.9,1.1,1.6l6.4,12.1c0.1,0.2,0.2,0.3,0.2,0.4c0,0.1,0.1,0.1,0.2,0.2c0.1,0.1,0.2,0.1,0.3,0.1c0.4,0,0.5-0.2,0.5-0.6v-14.2
		h1.8v14.1c0,0.8-0.2,1.4-0.6,1.8c-0.4,0.5-1,0.7-1.6,0.7c-0.6,0-1-0.2-1.4-0.5s-0.8-0.9-1.1-1.6l-6.4-12.1
		c-0.1-0.2-0.2-0.3-0.2-0.4c0-0.1-0.1-0.1-0.2-0.2c-0.1-0.1-0.2-0.1-0.3-0.1c-0.2,0-0.3,0.1-0.4,0.2S690.9,391.3,690.9,391.5z" />
		<path class="st0" d="M716,391.3c0-0.7,0.2-1.2,0.6-1.6c0.4-0.4,0.9-0.6,1.6-0.6h4.1c2.5,0,4.5,0.8,6.2,2.2c1.6,1.5,2.5,3.5,2.5,6
		s-0.8,4.5-2.5,6c-1.6,1.5-3.7,2.2-6.2,2.2h-4.1c-0.7,0-1.2-0.2-1.6-0.6c-0.4-0.4-0.6-0.9-0.6-1.6V391.3z M729,397.4
		c0-2-0.6-3.6-1.9-4.8c-1.3-1.2-2.9-1.8-4.8-1.8h-3.8c-0.2,0-0.4,0.1-0.5,0.2c-0.1,0.1-0.2,0.3-0.2,0.5v11.7c0,0.2,0.1,0.4,0.2,0.5
		c0.1,0.1,0.3,0.2,0.5,0.2h3.8c1.9,0,3.6-0.6,4.8-1.8C728.4,401,729,399.4,729,397.4z" />
		<path class="st0" d="M753.4,405.7l-2.1-5.3h-7.8l-2,5.3h-1.9l6-15.2c0.2-0.5,0.4-0.8,0.7-1.1c0.3-0.2,0.6-0.4,1.1-0.4
		c0.5,0,0.9,0.1,1.2,0.4s0.5,0.6,0.7,1.1l6,15.2H753.4z M747.2,391l-3,7.6h6.5l-3-7.6c-0.1-0.2-0.2-0.2-0.3-0.2
		S747.2,390.9,747.2,391z" />
		<path class="st0" d="M771.4,405.9c-4.1,0-6.5-1.7-7.2-5.2h1.9c0.6,2.3,2.3,3.5,5.2,3.5c1.4,0,2.5-0.3,3.4-0.8
		c0.9-0.6,1.3-1.4,1.3-2.5c0-1.7-1.1-2.5-3.3-2.7l-3.2-0.2c-1.5-0.1-2.7-0.5-3.6-1.3s-1.3-1.8-1.3-3.1c0-1.5,0.6-2.6,1.7-3.5
		s2.6-1.3,4.5-1.3c1,0,1.9,0.1,2.8,0.4c0.9,0.3,1.7,0.7,2.4,1.4c0.7,0.7,1.2,1.6,1.5,2.6h-1.9c-0.6-1.8-2.2-2.7-4.8-2.7
		c-1.4,0-2.5,0.3-3.2,0.8s-1.1,1.3-1.1,2.2c0,1.7,1.1,2.5,3.3,2.7l3.1,0.2c1.6,0.1,2.8,0.5,3.7,1.2c0.9,0.7,1.3,1.8,1.3,3.1
		c0,1.6-0.6,2.9-1.8,3.8C774.9,405.4,773.3,405.9,771.4,405.9z" />
	</g>
</svg>